<svg width="221" height="70" viewBox="0 0 221 70" fill="none" xmlns="http://www.w3.org/2000/svg">
<path d="M212.904 70H8.09631C3.6983 70 0 65.5262 0 59.934V16.066C0 10.598 3.59835 6 8.09631 6H212.904C217.302 6 221 10.4738 221 16.066V59.934C220.9 65.5262 217.302 70 212.904 70Z" fill="#F2AD00"/>
<path d="M26.8 43.9C25.7 43.9 24.7 43.7 23.8 43.3C22.9 42.9 22 42.3 21.3 41.6C20.6 40.9 20.0001 40 19.6001 39C19.2001 38 19 37 19 35.9C19 34.8 19.2001 33.8 19.6001 32.8C20.0001 31.8 20.5 31 21.3 30.3C22 29.6 22.8 29 23.8 28.6C24.7 28.2 25.8 28 26.8 28C27.8 28 28.6 28.1 29.4 28.4C30.2 28.7 30.9001 29.1 31.7001 29.7C31.8001 29.8 31.9 29.9 31.9 30C31.9 30.1 31.9 30.2 31.9 30.4C31.8 30.5 31.8001 30.6 31.7001 30.7C31.7001 30.8 31.6 30.9 31.5 30.9C31.4 31 31.3001 31 31.1001 31C31.0001 31 30.8001 30.9 30.7001 30.8C30.2001 30.3 29.6 30 29 29.8C28.4 29.6 27.7 29.5 26.9 29.5C26 29.5 25.2 29.7 24.5 30C23.8 30.3 23.1 30.8 22.5 31.4C21.9 32 21.5001 32.7 21.2001 33.5C20.9001 34.3 20.7001 35.1 20.7001 36C20.7001 36.9 20.9001 37.8 21.2001 38.5C21.5001 39.3 22 40 22.5 40.6C23.1 41.2 23.7 41.7 24.5 42C25.3 42.3 26.1 42.5 26.9 42.5C27.6 42.5 28.3 42.4 29 42.1C29.7 41.8 30.3 41.5 30.9 41.1C31.1 41 31.2 40.9 31.4 40.9C31.6 40.9 31.7 41 31.9 41.1C32 41.2 32.1001 41.4 32.1001 41.6C32.1001 41.7 32.1001 41.8 32.1001 41.9C32.1001 42 32 42.1 31.9 42.2C31.2 42.8 30.5001 43.3 29.6001 43.5C28.6001 43.8 27.7 43.9 26.8 43.9Z" fill="black"/>
<path d="M35.8 39.3C35.6 39.3 35.4001 39.2 35.2001 39.1C35.1001 39 35 38.8 35 38.5V28.9C35 28.7 35.1001 28.5 35.2001 28.3C35.3001 28.2 35.5 28.1 35.8 28.1C36 28.1 36.2 28.2 36.3 28.3C36.4 28.4 36.5 28.6 36.5 28.9V38.5C36.5 38.7 36.4 38.9 36.3 39.1C36.2 39.3 36 39.3 35.8 39.3ZM35.8 43.7C35.6 43.7 35.4001 43.6 35.2001 43.5C35.1001 43.4 35 43.2 35 43V33.6C35 33.4 35.1001 33.2 35.2001 33C35.3001 32.9 35.5 32.8 35.8 32.8C36 32.8 36.2 32.9 36.3 33C36.4 33.1 36.5 33.3 36.5 33.6V43C36.5 43.2 36.4 43.4 36.3 43.5C36.2 43.6 36 43.7 35.8 43.7ZM44.4 43.7C44.2 43.7 44 43.6 43.8 43.5C43.7 43.4 43.6001 43.2 43.6001 43V37.8C43.6001 37 43.4001 36.3 43.1001 35.8C42.8001 35.3 42.4 34.9 41.8 34.6C41.3 34.3 40.6 34.2 40 34.2C39.3 34.2 38.8001 34.3 38.2001 34.6C37.6001 34.9 37.3 35.2 36.9 35.6C36.6 36 36.4 36.5 36.4 37.1H35.3C35.3 36.3 35.6 35.5 36 34.8C36.4 34.1 37.0001 33.6 37.7001 33.2C38.4001 32.8 39.2001 32.6 40.1001 32.6C41.0001 32.6 41.9001 32.8 42.6001 33.2C43.3001 33.6 43.9 34.2 44.4 34.9C44.8 35.7 45.1001 36.6 45.1001 37.7V42.9C45.1001 43.1 45 43.3 44.9 43.4C44.8 43.5 44.6 43.7 44.4 43.7Z" fill="black"/>
<path d="M53.2999 43.8C52.2999 43.8 51.3999 43.6 50.4999 43.1C49.6999 42.6 49 42 48.6 41.1C48.1 40.3 47.8999 39.3 47.8999 38.3C47.8999 37.2 48.1 36.3 48.6 35.4C49.1 34.6 49.7 33.9 50.6 33.4C51.4 32.9 52.3999 32.7 53.3999 32.7C54.4999 32.7 55.4 32.9 56.2 33.4C57 33.9 57.7 34.5 58.2 35.4C58.7 36.2 58.8999 37.2 58.9999 38.3L58.3999 38.8C58.3999 39.8 58.2 40.6 57.7 41.4C57.2 42.2 56.5999 42.8 55.8999 43.2C55.1999 43.6 54.2999 43.8 53.2999 43.8ZM53.4999 42.4C54.2999 42.4 55 42.2 55.6 41.9C56.2 41.5 56.6999 41 56.9999 40.4C57.3999 39.8 57.4999 39.1 57.4999 38.3C57.4999 37.5 57.2999 36.8 56.9999 36.2C56.6999 35.6 56.2 35.1 55.6 34.7C55 34.3 54.2999 34.2 53.4999 34.2C52.6999 34.2 52.0999 34.4 51.3999 34.7C50.7999 35.1 50.2999 35.6 49.8999 36.2C49.4999 36.8 49.3999 37.5 49.3999 38.3C49.3999 39.1 49.5999 39.8 49.8999 40.4C50.2999 41 50.6999 41.5 51.3999 41.9C52.0999 42.3 52.6999 42.4 53.4999 42.4ZM58.2999 43.7C58.0999 43.7 57.9 43.6 57.7 43.5C57.6 43.4 57.4999 43.2 57.4999 43V39.6L57.8999 38L59.1 38.3V43C59.1 43.2 58.9999 43.4 58.8999 43.5C58.6999 43.6 58.4999 43.7 58.2999 43.7Z" fill="black"/>
<path d="M62.8 43.7C62.6 43.7 62.4001 43.6 62.2001 43.5C62.1001 43.4 62 43.2 62 43V33.6C62 33.4 62.1001 33.2 62.2001 33C62.3001 32.9 62.5 32.8 62.8 32.8C63 32.8 63.2 32.9 63.3 33C63.4 33.1 63.5 33.3 63.5 33.6V43C63.5 43.2 63.4 43.4 63.3 43.5C63.2 43.6 63.1 43.7 62.8 43.7ZM71.4 43.7C71.2 43.7 71 43.6 70.8 43.5C70.7 43.4 70.6001 43.2 70.6001 43V37.8C70.6001 37 70.4001 36.3 70.1001 35.8C69.8001 35.3 69.4 34.9 68.8 34.6C68.3 34.3 67.6 34.2 67 34.2C66.3 34.2 65.8001 34.3 65.2001 34.6C64.6001 34.9 64.3 35.2 63.9 35.6C63.6 36 63.4 36.5 63.4 37.1H62.3C62.3 36.3 62.6 35.5 63 34.8C63.4 34.1 64.0001 33.6 64.7001 33.2C65.4001 32.8 66.2001 32.6 67.1001 32.6C68.0001 32.6 68.9001 32.8 69.6001 33.2C70.3001 33.6 70.9 34.2 71.4 34.9C71.8 35.7 72.1001 36.6 72.1001 37.7V42.9C72.1001 43.1 72 43.3 71.9 43.4C71.8 43.5 71.6 43.7 71.4 43.7Z" fill="black"/>
<path d="M80.4 43.8C79.3 43.8 78.4001 43.6 77.6001 43.1C76.8001 42.6 76.1001 42 75.7001 41.1C75.3001 40.2 75 39.3 75 38.2C75 37.1 75.2001 36.1 75.7001 35.3C76.2001 34.5 76.8001 33.8 77.7001 33.3C78.5001 32.8 79.5001 32.6 80.6001 32.6C81.7001 32.6 82.6 32.8 83.5 33.3C84.3 33.8 85 34.4 85.5 35.3C86 36.1 86.2001 37.1 86.2001 38.2L85.3 38.7C85.3 39.7 85.1001 40.6 84.7001 41.3C84.3001 42.1 83.7 42.7 83 43.1C82.2 43.6 81.3 43.8 80.4 43.8ZM80.6001 48C79.5001 48 78.6 47.8 77.8 47.4C77 47 76.3 46.5 75.8 45.8C75.7 45.6 75.6001 45.5 75.6001 45.3C75.6001 45.1 75.7 45 75.9 44.8C76.1 44.7 76.3 44.6 76.5 44.7C76.7 44.7 76.9 44.8 77 45C77.4 45.5 77.9 45.9 78.5 46.2C79.1 46.5 79.8001 46.6 80.6001 46.6C81.3001 46.6 82.0001 46.4 82.6001 46.1C83.2001 45.7 83.7 45.2 84 44.6C84.3 44 84.5 43.2 84.5 42.3V39.3L85.1001 38.1L86 38.3V42.4C86 43.5 85.8 44.4 85.3 45.3C84.8 46.2 84.2 46.8 83.3 47.3C82.6 47.8 81.7001 48 80.6001 48ZM80.6001 42.4C81.4001 42.4 82.1001 42.2 82.7001 41.9C83.3001 41.5 83.8001 41.1 84.1001 40.4C84.4001 39.7 84.6001 39.1 84.6001 38.2C84.6001 37.4 84.4001 36.7 84.1001 36C83.8001 35.4 83.3001 34.9 82.7001 34.5C82.1001 34.1 81.4001 34 80.6001 34C79.8001 34 79.1 34.2 78.5 34.5C77.9 34.8 77.4001 35.3 77.1001 36C76.8001 36.6 76.6001 37.4 76.6001 38.2C76.6001 39 76.8001 39.7 77.1001 40.4C77.4001 41.1 77.9 41.5 78.5 41.9C79.1 42.2 79.8001 42.4 80.6001 42.4Z" fill="black"/>
<path d="M94.1001 43.8C93.0001 43.8 92.1001 43.6 91.2001 43.1C90.4001 42.6 89.7001 42 89.2001 41.1C88.7001 40.3 88.5 39.3 88.5 38.2C88.5 37.1 88.7001 36.1 89.2001 35.3C89.6001 34.5 90.3001 33.8 91.1001 33.3C91.9001 32.8 92.8 32.6 93.8 32.6C94.8 32.6 95.7 32.8 96.5 33.3C97.3 33.8 97.8 34.4 98.3 35.2C98.7 36 98.9 36.9 98.9 38C98.9 38.2 98.8001 38.4 98.7001 38.5C98.6001 38.6 98.4001 38.7 98.2001 38.7H89.7001V37.4H98.4L97.5 38C97.5 37.2 97.4001 36.5 97.1001 35.9C96.8001 35.3 96.4 34.8 95.8 34.5C95.2 34.2 94.6 34 93.9 34C93.1 34 92.5 34.2 91.9 34.5C91.3 34.9 90.9001 35.4 90.6001 36C90.3001 36.6 90.1001 37.4 90.1001 38.2C90.1001 39 90.3001 39.7 90.6001 40.4C91.0001 41 91.4 41.5 92 41.9C92.6 42.3 93.3001 42.4 94.1001 42.4C94.6001 42.4 95.1001 42.3 95.6001 42.1C96.1001 41.9 96.5 41.7 96.8 41.5C96.9 41.4 97.1 41.3 97.3 41.3C97.5 41.3 97.6 41.3 97.8 41.4C98 41.6 98.1001 41.7 98.1001 41.9C98.1001 42.1 98 42.2 97.9 42.4C97.5 42.8 96.9001 43.1 96.2001 43.3C95.4001 43.7 94.7001 43.8 94.1001 43.8Z" fill="black"/>
<path d="M108.3 43.7C108.1 43.7 107.9 43.6 107.7 43.5C107.5 43.4 107.5 43.2 107.5 42.9V28.8C107.5 28.6 107.6 28.4 107.7 28.2C107.8 28 108 28 108.3 28H112.3C113.3 28 114.2 28.2 114.9 28.7C115.7 29.1 116.3 29.7 116.7 30.5C117.1 31.3 117.3 32.1 117.3 33.1C117.3 34.1 117.1 34.9 116.7 35.7C116.3 36.5 115.7 37 114.9 37.5C114.1 37.9 113.3 38.2 112.3 38.2H109.1V42.9C109.1 43.1 109 43.3 108.9 43.5C108.8 43.7 108.5 43.7 108.3 43.7ZM109 36.7H112.2C112.9 36.7 113.5 36.5 114 36.2C114.5 35.9 115 35.5 115.3 34.9C115.6 34.4 115.8 33.8 115.8 33.1C115.8 32.4 115.7 31.8 115.3 31.2C115 30.7 114.6 30.2 114 29.9C113.5 29.6 112.9 29.4 112.2 29.4H109V36.7Z" fill="black"/>
<path d="M124.3 43.8C123.3 43.8 122.4 43.6 121.5 43.1C120.7 42.6 120 42 119.6 41.1C119.1 40.3 118.9 39.3 118.9 38.3C118.9 37.2 119.1 36.3 119.6 35.4C120.1 34.6 120.7 33.9 121.6 33.4C122.4 32.9 123.4 32.7 124.4 32.7C125.5 32.7 126.4 32.9 127.2 33.4C128 33.9 128.7 34.5 129.2 35.4C129.7 36.2 129.9 37.2 130 38.3L129.4 38.8C129.4 39.8 129.2 40.6 128.7 41.4C128.2 42.2 127.6 42.8 126.9 43.2C126.2 43.6 125.3 43.8 124.3 43.8ZM124.5 42.4C125.3 42.4 126 42.2 126.6 41.9C127.2 41.5 127.7 41 128 40.4C128.4 39.8 128.5 39.1 128.5 38.3C128.5 37.5 128.3 36.8 128 36.2C127.7 35.6 127.2 35.1 126.6 34.7C126 34.3 125.3 34.2 124.5 34.2C123.7 34.2 123.1 34.4 122.4 34.7C121.8 35.1 121.3 35.6 120.9 36.2C120.5 36.8 120.4 37.5 120.4 38.3C120.4 39.1 120.6 39.8 120.9 40.4C121.3 41 121.7 41.5 122.4 41.9C123.1 42.3 123.7 42.4 124.5 42.4ZM129.3 43.7C129.1 43.7 128.9 43.6 128.7 43.5C128.6 43.4 128.5 43.2 128.5 43V39.6L128.9 38L130.1 38.3V43C130.1 43.2 130 43.4 129.9 43.5C129.7 43.6 129.5 43.7 129.3 43.7Z" fill="black"/>
<path d="M136.9 43.8C136.1 43.8 135.3 43.7 134.6 43.4C133.8 43.1 133.2 42.7 132.7 42.2C132.6 42 132.5 41.9 132.5 41.7C132.5 41.5 132.6 41.3 132.8 41.2C133 41.1 133.2 41 133.4 41C133.6 41 133.8 41.1 133.9 41.3C134.2 41.7 134.6 42 135.2 42.2C135.7 42.4 136.3 42.5 137 42.5C138 42.5 138.7 42.3 139.1 42C139.5 41.7 139.8 41.2 139.8 40.8C139.8 40.3 139.6 39.9 139.1 39.6C138.6 39.3 137.9 39 136.9 38.9C135.6 38.7 134.6 38.3 133.9 37.8C133.3 37.3 133 36.6 133 35.9C133 35.2 133.2 34.7 133.5 34.2C133.9 33.7 134.3 33.4 134.9 33.2C135.5 33 136.2 32.9 136.9 32.9C137.8 32.9 138.6 33.1 139.2 33.4C139.8 33.7 140.4 34.1 140.8 34.6C140.9 34.8 141 35 141 35.1C141 35.3 140.9 35.4 140.7 35.6C140.5 35.7 140.4 35.7 140.2 35.7C140 35.7 139.8 35.6 139.7 35.4C139.4 35 139 34.7 138.5 34.6C138.1 34.4 137.6 34.3 137 34.3C136.3 34.3 135.7 34.5 135.2 34.8C134.8 35.1 134.5 35.5 134.5 35.9C134.5 36.2 134.6 36.5 134.8 36.7C135 36.9 135.3 37.1 135.7 37.3C136.1 37.5 136.7 37.6 137.4 37.7C138.4 37.9 139.2 38.1 139.8 38.4C140.4 38.7 140.8 39.1 141 39.5C141.2 39.9 141.4 40.4 141.4 40.9C141.4 41.5 141.2 42.1 140.9 42.5C140.5 43 140 43.3 139.4 43.6C138.8 43.9 137.7 43.8 136.9 43.8Z" fill="black"/>
<path d="M147.6 43.8C146.8 43.8 146 43.7 145.3 43.4C144.5 43.1 143.9 42.7 143.4 42.2C143.3 42 143.2 41.9 143.2 41.7C143.2 41.5 143.3 41.3 143.5 41.2C143.7 41.1 143.9 41 144.1 41C144.3 41 144.5 41.1 144.6 41.3C144.9 41.7 145.3 42 145.9 42.2C146.4 42.4 147 42.5 147.7 42.5C148.7 42.5 149.4 42.3 149.8 42C150.2 41.7 150.5 41.2 150.5 40.8C150.5 40.3 150.3 39.9 149.8 39.6C149.3 39.3 148.6 39 147.6 38.9C146.3 38.7 145.3 38.3 144.6 37.8C144 37.3 143.7 36.6 143.7 35.9C143.7 35.2 143.9 34.7 144.2 34.2C144.6 33.7 145 33.4 145.6 33.2C146.2 33 146.9 32.9 147.6 32.9C148.5 32.9 149.3 33.1 149.9 33.4C150.5 33.7 151.1 34.1 151.5 34.6C151.6 34.8 151.7 35 151.7 35.1C151.7 35.3 151.6 35.4 151.4 35.6C151.2 35.7 151.1 35.7 150.9 35.7C150.7 35.7 150.5 35.6 150.4 35.4C150.1 35 149.7 34.7 149.2 34.6C148.8 34.4 148.3 34.3 147.7 34.3C147 34.3 146.4 34.5 145.9 34.8C145.5 35.1 145.2 35.5 145.2 35.9C145.2 36.2 145.3 36.5 145.5 36.7C145.7 36.9 146 37.1 146.4 37.3C146.8 37.5 147.4 37.6 148.1 37.7C149.1 37.9 149.9 38.1 150.5 38.4C151.1 38.7 151.5 39.1 151.7 39.5C151.9 39.9 152.1 40.4 152.1 40.9C152.1 41.5 151.9 42.1 151.6 42.5C151.2 43 150.7 43.3 150.1 43.6C149.5 43.9 148.5 43.8 147.6 43.8Z" fill="black"/>
<path d="M157.1 43.7C156.9 43.7 156.8 43.7 156.6 43.6C156.5 43.5 156.4 43.4 156.3 43.2L153.2 33.8C153.1 33.5 153.1 33.2 153.2 33C153.3 32.8 153.5 32.7 153.8 32.7C154 32.7 154.1 32.7 154.3 32.8C154.4 32.9 154.5 33 154.6 33.2L157.4 41.7H157L159.6 33.2C159.7 33 159.7 32.9 159.9 32.8C160 32.7 160.2 32.6 160.4 32.6C160.6 32.6 160.8 32.7 160.9 32.8C161 32.9 161.1 33.1 161.2 33.2L163.7 41.5H163.4L166.1 33.2C166.2 32.8 166.5 32.6 166.8 32.6C167.1 32.6 167.3 32.7 167.4 32.9C167.5 33.1 167.5 33.4 167.4 33.7L164.3 43.1C164.2 43.2 164.2 43.4 164 43.5C163.9 43.6 163.7 43.6 163.5 43.6C163.3 43.6 163.2 43.6 163 43.5C162.9 43.4 162.8 43.3 162.7 43.1L160.2 34.7H160.4L157.9 43.1C157.8 43.3 157.8 43.4 157.6 43.5C157.4 43.7 157.2 43.7 157.1 43.7Z" fill="black"/>
<path d="M174.4 43.8C173.3 43.8 172.4 43.6 171.5 43.1C170.7 42.6 170 42 169.5 41.1C169 40.3 168.8 39.3 168.8 38.2C168.8 37.1 169 36.2 169.5 35.3C170 34.5 170.6 33.8 171.5 33.3C172.3 32.8 173.3 32.6 174.4 32.6C175.5 32.6 176.4 32.8 177.2 33.3C178 33.8 178.7 34.4 179.2 35.3C179.7 36.1 179.9 37.1 179.9 38.2C179.9 39.3 179.7 40.2 179.2 41.1C178.7 41.9 178.1 42.6 177.2 43.1C176.4 43.6 175.5 43.8 174.4 43.8ZM174.4 42.4C175.2 42.4 175.9 42.2 176.5 41.9C177.1 41.5 177.6 41 177.9 40.4C178.2 39.8 178.4 39.1 178.4 38.3C178.4 37.5 178.2 36.8 177.9 36.2C177.6 35.6 177.1 35.1 176.5 34.7C175.9 34.3 175.2 34.2 174.4 34.2C173.6 34.2 172.9 34.4 172.3 34.7C171.7 35.1 171.2 35.6 170.8 36.2C170.4 36.8 170.3 37.5 170.3 38.3C170.3 39.1 170.5 39.8 170.8 40.4C171.2 41 171.6 41.5 172.3 41.9C173 42.3 173.6 42.4 174.4 42.4Z" fill="black"/>
<path d="M183.7 43.7C183.5 43.7 183.3 43.6 183.1 43.5C183 43.4 182.9 43.2 182.9 42.9V33.5C182.9 33.3 183 33.1 183.1 32.9C183.2 32.8 183.4 32.7 183.7 32.7C183.9 32.7 184.1 32.8 184.3 32.9C184.4 33 184.5 33.2 184.5 33.5V42.9C184.5 43.1 184.4 43.3 184.3 43.5C184.1 43.6 183.9 43.7 183.7 43.7ZM183.6 37C183.6 36.2 183.9 35.4 184.2 34.8C184.5 34.2 185.1 33.6 185.7 33.3C186.3 32.9 187 32.7 187.8 32.7C188.4 32.7 188.9 32.8 189.2 33C189.5 33.2 189.7 33.4 189.6 33.8C189.5 34 189.5 34.1 189.3 34.2C189.2 34.3 189 34.3 188.8 34.3C188.6 34.3 188.4 34.3 188.2 34.3C187.5 34.2 186.8 34.3 186.2 34.5C185.6 34.7 185.2 35.1 184.8 35.5C184.4 35.9 184.3 36.5 184.3 37.1H183.6V37Z" fill="black"/>
<path d="M197.1 43.8C196 43.8 195.1 43.6 194.3 43.1C193.5 42.6 192.8 42 192.3 41.1C191.8 40.3 191.6 39.3 191.6 38.2C191.6 37.1 191.8 36.2 192.3 35.4C192.8 34.6 193.4 33.9 194.2 33.4C195 32.9 195.9 32.7 197 32.7C197.9 32.7 198.7 32.9 199.4 33.3C200.1 33.7 200.7 34.2 201.1 34.8V28.9C201.1 28.7 201.2 28.5 201.3 28.3C201.4 28.2 201.6 28.1 201.9 28.1C202.2 28.1 202.3 28.2 202.5 28.3C202.6 28.4 202.7 28.6 202.7 28.9V38.3C202.7 39.3 202.4 40.3 201.9 41.1C201.4 41.9 200.8 42.6 199.9 43.1C199.1 43.6 198.1 43.8 197.1 43.8ZM197.1 42.4C197.9 42.4 198.6 42.2 199.2 41.9C199.8 41.5 200.3 41 200.6 40.4C200.9 39.8 201.1 39.1 201.1 38.3C201.1 37.5 200.9 36.8 200.6 36.2C200.2 35.6 199.8 35.1 199.2 34.7C198.6 34.3 197.9 34.2 197.1 34.2C196.3 34.2 195.7 34.4 195 34.7C194.4 35.1 193.9 35.6 193.5 36.2C193.1 36.8 193 37.5 193 38.3C193 39.1 193.2 39.8 193.5 40.4C193.9 41 194.3 41.5 195 41.9C195.7 42.3 196.3 42.4 197.1 42.4Z" fill="black"/>
<path d="M212.904 64H8.09631C3.6983 64 0 59.5262 0 53.934V10.066C0 4.59805 3.59835 0 8.09631 0H212.904C217.302 0 221 4.47378 221 10.066V53.934C220.9 59.5262 217.302 64 212.904 64Z" fill="white"/>
<path d="M26.8 37.9C25.7 37.9 24.7 37.7 23.8 37.3C22.9 36.9 22 36.3 21.3 35.6C20.6 34.9 20.0001 34 19.6001 33C19.2001 32 19 31 19 29.9C19 28.8 19.2001 27.8 19.6001 26.8C20.0001 25.8 20.5 25 21.3 24.3C22 23.6 22.8 23 23.8 22.6C24.7 22.2 25.8 22 26.8 22C27.8 22 28.6 22.1 29.4 22.4C30.2 22.7 30.9001 23.1 31.7001 23.7C31.8001 23.8 31.9 23.9 31.9 24C31.9 24.1 31.9 24.2 31.9 24.4C31.8 24.5 31.8001 24.6 31.7001 24.7C31.7001 24.8 31.6 24.9 31.5 24.9C31.4 25 31.3001 25 31.1001 25C31.0001 25 30.8001 24.9 30.7001 24.8C30.2001 24.3 29.6 24 29 23.8C28.4 23.6 27.7 23.5 26.9 23.5C26 23.5 25.2 23.7 24.5 24C23.8 24.3 23.1 24.8 22.5 25.4C21.9 26 21.5001 26.7 21.2001 27.5C20.9001 28.3 20.7001 29.1 20.7001 30C20.7001 30.9 20.9001 31.8 21.2001 32.5C21.5001 33.3 22 34 22.5 34.6C23.1 35.2 23.7 35.7 24.5 36C25.3 36.3 26.1 36.5 26.9 36.5C27.6 36.5 28.3 36.4 29 36.1C29.7 35.8 30.3 35.5 30.9 35.1C31.1 35 31.2 34.9 31.4 34.9C31.6 34.9 31.7 35 31.9 35.1C32 35.2 32.1001 35.4 32.1001 35.6C32.1001 35.7 32.1001 35.8 32.1001 35.9C32.1001 36 32 36.1 31.9 36.2C31.2 36.8 30.5001 37.3 29.6001 37.5C28.6001 37.8 27.7 37.9 26.8 37.9Z" fill="black"/>
<path d="M35.8 33.3C35.6 33.3 35.4001 33.2 35.2001 33.1C35.1001 33 35 32.8 35 32.5V22.9C35 22.7 35.1001 22.5 35.2001 22.3C35.3001 22.2 35.5 22.1 35.8 22.1C36 22.1 36.2 22.2 36.3 22.3C36.4 22.4 36.5 22.6 36.5 22.9V32.5C36.5 32.7 36.4 32.9 36.3 33.1C36.2 33.3 36 33.3 35.8 33.3ZM35.8 37.7C35.6 37.7 35.4001 37.6 35.2001 37.5C35.1001 37.4 35 37.2 35 37V27.6C35 27.4 35.1001 27.2 35.2001 27C35.3001 26.9 35.5 26.8 35.8 26.8C36 26.8 36.2 26.9 36.3 27C36.4 27.1 36.5 27.3 36.5 27.6V37C36.5 37.2 36.4 37.4 36.3 37.5C36.2 37.6 36 37.7 35.8 37.7ZM44.4 37.7C44.2 37.7 44 37.6 43.8 37.5C43.7 37.4 43.6001 37.2 43.6001 37V31.8C43.6001 31 43.4001 30.3 43.1001 29.8C42.8001 29.3 42.4 28.9 41.8 28.6C41.3 28.3 40.6 28.2 40 28.2C39.3 28.2 38.8001 28.3 38.2001 28.6C37.6001 28.9 37.3 29.2 36.9 29.6C36.6 30 36.4 30.5 36.4 31.1H35.3C35.3 30.3 35.6 29.5 36 28.8C36.4 28.1 37.0001 27.6 37.7001 27.2C38.4001 26.8 39.2001 26.6 40.1001 26.6C41.0001 26.6 41.9001 26.8 42.6001 27.2C43.3001 27.6 43.9 28.2 44.4 28.9C44.8 29.7 45.1001 30.6 45.1001 31.7V36.9C45.1001 37.1 45 37.3 44.9 37.4C44.8 37.5 44.6 37.7 44.4 37.7Z" fill="black"/>
<path d="M53.2999 37.8C52.2999 37.8 51.3999 37.6 50.4999 37.1C49.6999 36.6 49 36 48.6 35.1C48.1 34.3 47.8999 33.3 47.8999 32.3C47.8999 31.2 48.1 30.3 48.6 29.4C49.1 28.6 49.7 27.9 50.6 27.4C51.4 26.9 52.3999 26.7 53.3999 26.7C54.4999 26.7 55.4 26.9 56.2 27.4C57 27.9 57.7 28.5 58.2 29.4C58.7 30.2 58.8999 31.2 58.9999 32.3L58.3999 32.8C58.3999 33.8 58.2 34.6 57.7 35.4C57.2 36.2 56.5999 36.8 55.8999 37.2C55.1999 37.6 54.2999 37.8 53.2999 37.8ZM53.4999 36.4C54.2999 36.4 55 36.2 55.6 35.9C56.2 35.5 56.6999 35 56.9999 34.4C57.3999 33.8 57.4999 33.1 57.4999 32.3C57.4999 31.5 57.2999 30.8 56.9999 30.2C56.6999 29.6 56.2 29.1 55.6 28.7C55 28.3 54.2999 28.2 53.4999 28.2C52.6999 28.2 52.0999 28.4 51.3999 28.7C50.7999 29.1 50.2999 29.6 49.8999 30.2C49.4999 30.8 49.3999 31.5 49.3999 32.3C49.3999 33.1 49.5999 33.8 49.8999 34.4C50.2999 35 50.6999 35.5 51.3999 35.9C52.0999 36.3 52.6999 36.4 53.4999 36.4ZM58.2999 37.7C58.0999 37.7 57.9 37.6 57.7 37.5C57.6 37.4 57.4999 37.2 57.4999 37V33.6L57.8999 32L59.1 32.3V37C59.1 37.2 58.9999 37.4 58.8999 37.5C58.6999 37.6 58.4999 37.7 58.2999 37.7Z" fill="black"/>
<path d="M62.8 37.7C62.6 37.7 62.4001 37.6 62.2001 37.5C62.1001 37.4 62 37.2 62 37V27.6C62 27.4 62.1001 27.2 62.2001 27C62.3001 26.9 62.5 26.8 62.8 26.8C63 26.8 63.2 26.9 63.3 27C63.4 27.1 63.5 27.3 63.5 27.6V37C63.5 37.2 63.4 37.4 63.3 37.5C63.2 37.6 63.1 37.7 62.8 37.7ZM71.4 37.7C71.2 37.7 71 37.6 70.8 37.5C70.7 37.4 70.6001 37.2 70.6001 37V31.8C70.6001 31 70.4001 30.3 70.1001 29.8C69.8001 29.3 69.4 28.9 68.8 28.6C68.3 28.3 67.6 28.2 67 28.2C66.3 28.2 65.8001 28.3 65.2001 28.6C64.6001 28.9 64.3 29.2 63.9 29.6C63.6 30 63.4 30.5 63.4 31.1H62.3C62.3 30.3 62.6 29.5 63 28.8C63.4 28.1 64.0001 27.6 64.7001 27.2C65.4001 26.8 66.2001 26.6 67.1001 26.6C68.0001 26.6 68.9001 26.8 69.6001 27.2C70.3001 27.6 70.9 28.2 71.4 28.9C71.8 29.7 72.1001 30.6 72.1001 31.7V36.9C72.1001 37.1 72 37.3 71.9 37.4C71.8 37.5 71.6 37.7 71.4 37.7Z" fill="black"/>
<path d="M80.4 37.8C79.3 37.8 78.4001 37.6 77.6001 37.1C76.8001 36.6 76.1001 36 75.7001 35.1C75.3001 34.2 75 33.3 75 32.2C75 31.1 75.2001 30.1 75.7001 29.3C76.2001 28.5 76.8001 27.8 77.7001 27.3C78.5001 26.8 79.5001 26.6 80.6001 26.6C81.7001 26.6 82.6 26.8 83.5 27.3C84.3 27.8 85 28.4 85.5 29.3C86 30.1 86.2001 31.1 86.2001 32.2L85.3 32.7C85.3 33.7 85.1001 34.6 84.7001 35.3C84.3001 36.1 83.7 36.7 83 37.1C82.2 37.6 81.3 37.8 80.4 37.8ZM80.6001 42C79.5001 42 78.6 41.8 77.8 41.4C77 41 76.3 40.5 75.8 39.8C75.7 39.6 75.6001 39.5 75.6001 39.3C75.6001 39.1 75.7 39 75.9 38.8C76.1 38.7 76.3 38.6 76.5 38.7C76.7 38.7 76.9 38.8 77 39C77.4 39.5 77.9 39.9 78.5 40.2C79.1 40.5 79.8001 40.6 80.6001 40.6C81.3001 40.6 82.0001 40.4 82.6001 40.1C83.2001 39.7 83.7 39.2 84 38.6C84.3 38 84.5 37.2 84.5 36.3V33.3L85.1001 32.1L86 32.3V36.4C86 37.5 85.8 38.4 85.3 39.3C84.8 40.2 84.2 40.8 83.3 41.3C82.6 41.8 81.7001 42 80.6001 42ZM80.6001 36.4C81.4001 36.4 82.1001 36.2 82.7001 35.9C83.3001 35.5 83.8001 35.1 84.1001 34.4C84.4001 33.7 84.6001 33.1 84.6001 32.2C84.6001 31.4 84.4001 30.7 84.1001 30C83.8001 29.4 83.3001 28.9 82.7001 28.5C82.1001 28.1 81.4001 28 80.6001 28C79.8001 28 79.1 28.2 78.5 28.5C77.9 28.8 77.4001 29.3 77.1001 30C76.8001 30.6 76.6001 31.4 76.6001 32.2C76.6001 33 76.8001 33.7 77.1001 34.4C77.4001 35.1 77.9 35.5 78.5 35.9C79.1 36.2 79.8001 36.4 80.6001 36.4Z" fill="black"/>
<path d="M94.1001 37.8C93.0001 37.8 92.1001 37.6 91.2001 37.1C90.4001 36.6 89.7001 36 89.2001 35.1C88.7001 34.3 88.5 33.3 88.5 32.2C88.5 31.1 88.7001 30.1 89.2001 29.3C89.6001 28.5 90.3001 27.8 91.1001 27.3C91.9001 26.8 92.8 26.6 93.8 26.6C94.8 26.6 95.7 26.8 96.5 27.3C97.3 27.8 97.8 28.4 98.3 29.2C98.7 30 98.9 30.9 98.9 32C98.9 32.2 98.8001 32.4 98.7001 32.5C98.6001 32.6 98.4001 32.7 98.2001 32.7H89.7001V31.4H98.4L97.5 32C97.5 31.2 97.4001 30.5 97.1001 29.9C96.8001 29.3 96.4 28.8 95.8 28.5C95.2 28.2 94.6 28 93.9 28C93.1 28 92.5 28.2 91.9 28.5C91.3 28.9 90.9001 29.4 90.6001 30C90.3001 30.6 90.1001 31.4 90.1001 32.2C90.1001 33 90.3001 33.7 90.6001 34.4C91.0001 35 91.4 35.5 92 35.9C92.6 36.3 93.3001 36.4 94.1001 36.4C94.6001 36.4 95.1001 36.3 95.6001 36.1C96.1001 35.9 96.5 35.7 96.8 35.5C96.9 35.4 97.1 35.3 97.3 35.3C97.5 35.3 97.6 35.3 97.8 35.4C98 35.6 98.1001 35.7 98.1001 35.9C98.1001 36.1 98 36.2 97.9 36.4C97.5 36.8 96.9001 37.1 96.2001 37.3C95.4001 37.7 94.7001 37.8 94.1001 37.8Z" fill="black"/>
<path d="M108.3 37.7C108.1 37.7 107.9 37.6 107.7 37.5C107.5 37.4 107.5 37.2 107.5 36.9V22.8C107.5 22.6 107.6 22.4 107.7 22.2C107.8 22 108 22 108.3 22H112.3C113.3 22 114.2 22.2 114.9 22.7C115.7 23.1 116.3 23.7 116.7 24.5C117.1 25.3 117.3 26.1 117.3 27.1C117.3 28.1 117.1 28.9 116.7 29.7C116.3 30.5 115.7 31 114.9 31.5C114.1 31.9 113.3 32.2 112.3 32.2H109.1V36.9C109.1 37.1 109 37.3 108.9 37.5C108.8 37.7 108.5 37.7 108.3 37.7ZM109 30.7H112.2C112.9 30.7 113.5 30.5 114 30.2C114.5 29.9 115 29.5 115.3 28.9C115.6 28.4 115.8 27.8 115.8 27.1C115.8 26.4 115.7 25.8 115.3 25.2C115 24.7 114.6 24.2 114 23.9C113.5 23.6 112.9 23.4 112.2 23.4H109V30.7Z" fill="black"/>
<path d="M124.3 37.8C123.3 37.8 122.4 37.6 121.5 37.1C120.7 36.6 120 36 119.6 35.1C119.1 34.3 118.9 33.3 118.9 32.3C118.9 31.2 119.1 30.3 119.6 29.4C120.1 28.6 120.7 27.9 121.6 27.4C122.4 26.9 123.4 26.7 124.4 26.7C125.5 26.7 126.4 26.9 127.2 27.4C128 27.9 128.7 28.5 129.2 29.4C129.7 30.2 129.9 31.2 130 32.3L129.4 32.8C129.4 33.8 129.2 34.6 128.7 35.4C128.2 36.2 127.6 36.8 126.9 37.2C126.2 37.6 125.3 37.8 124.3 37.8ZM124.5 36.4C125.3 36.4 126 36.2 126.6 35.9C127.2 35.5 127.7 35 128 34.4C128.4 33.8 128.5 33.1 128.5 32.3C128.5 31.5 128.3 30.8 128 30.2C127.7 29.6 127.2 29.1 126.6 28.7C126 28.3 125.3 28.2 124.5 28.2C123.7 28.2 123.1 28.4 122.4 28.7C121.8 29.1 121.3 29.6 120.9 30.2C120.5 30.8 120.4 31.5 120.4 32.3C120.4 33.1 120.6 33.8 120.9 34.4C121.3 35 121.7 35.5 122.4 35.9C123.1 36.3 123.7 36.4 124.5 36.4ZM129.3 37.7C129.1 37.7 128.9 37.6 128.7 37.5C128.6 37.4 128.5 37.2 128.5 37V33.6L128.9 32L130.1 32.3V37C130.1 37.2 130 37.4 129.9 37.5C129.7 37.6 129.5 37.7 129.3 37.7Z" fill="black"/>
<path d="M136.9 37.8C136.1 37.8 135.3 37.7 134.6 37.4C133.8 37.1 133.2 36.7 132.7 36.2C132.6 36 132.5 35.9 132.5 35.7C132.5 35.5 132.6 35.3 132.8 35.2C133 35.1 133.2 35 133.4 35C133.6 35 133.8 35.1 133.9 35.3C134.2 35.7 134.6 36 135.2 36.2C135.7 36.4 136.3 36.5 137 36.5C138 36.5 138.7 36.3 139.1 36C139.5 35.7 139.8 35.2 139.8 34.8C139.8 34.3 139.6 33.9 139.1 33.6C138.6 33.3 137.9 33 136.9 32.9C135.6 32.7 134.6 32.3 133.9 31.8C133.3 31.3 133 30.6 133 29.9C133 29.2 133.2 28.7 133.5 28.2C133.9 27.7 134.3 27.4 134.9 27.2C135.5 27 136.2 26.9 136.9 26.9C137.8 26.9 138.6 27.1 139.2 27.4C139.8 27.7 140.4 28.1 140.8 28.6C140.9 28.8 141 29 141 29.1C141 29.3 140.9 29.4 140.7 29.6C140.5 29.7 140.4 29.7 140.2 29.7C140 29.7 139.8 29.6 139.7 29.4C139.4 29 139 28.7 138.5 28.6C138.1 28.4 137.6 28.3 137 28.3C136.3 28.3 135.7 28.5 135.2 28.8C134.8 29.1 134.5 29.5 134.5 29.9C134.5 30.2 134.6 30.5 134.8 30.7C135 30.9 135.3 31.1 135.7 31.3C136.1 31.5 136.7 31.6 137.4 31.7C138.4 31.9 139.2 32.1 139.8 32.4C140.4 32.7 140.8 33.1 141 33.5C141.2 33.9 141.4 34.4 141.4 34.9C141.4 35.5 141.2 36.1 140.9 36.5C140.5 37 140 37.3 139.4 37.6C138.8 37.9 137.7 37.8 136.9 37.8Z" fill="black"/>
<path d="M147.6 37.8C146.8 37.8 146 37.7 145.3 37.4C144.5 37.1 143.9 36.7 143.4 36.2C143.3 36 143.2 35.9 143.2 35.7C143.2 35.5 143.3 35.3 143.5 35.2C143.7 35.1 143.9 35 144.1 35C144.3 35 144.5 35.1 144.6 35.3C144.9 35.7 145.3 36 145.9 36.2C146.4 36.4 147 36.5 147.7 36.5C148.7 36.5 149.4 36.3 149.8 36C150.2 35.7 150.5 35.2 150.5 34.8C150.5 34.3 150.3 33.9 149.8 33.6C149.3 33.3 148.6 33 147.6 32.9C146.3 32.7 145.3 32.3 144.6 31.8C144 31.3 143.7 30.6 143.7 29.9C143.7 29.2 143.9 28.7 144.2 28.2C144.6 27.7 145 27.4 145.6 27.2C146.2 27 146.9 26.9 147.6 26.9C148.5 26.9 149.3 27.1 149.9 27.4C150.5 27.7 151.1 28.1 151.5 28.6C151.6 28.8 151.7 29 151.7 29.1C151.7 29.3 151.6 29.4 151.4 29.6C151.2 29.7 151.1 29.7 150.9 29.7C150.7 29.7 150.5 29.6 150.4 29.4C150.1 29 149.7 28.7 149.2 28.6C148.8 28.4 148.3 28.3 147.7 28.3C147 28.3 146.4 28.5 145.9 28.8C145.5 29.1 145.2 29.5 145.2 29.9C145.2 30.2 145.3 30.5 145.5 30.7C145.7 30.9 146 31.1 146.4 31.3C146.8 31.5 147.4 31.6 148.1 31.7C149.1 31.9 149.9 32.1 150.5 32.4C151.1 32.7 151.5 33.1 151.7 33.5C151.9 33.9 152.1 34.4 152.1 34.9C152.1 35.5 151.9 36.1 151.6 36.5C151.2 37 150.7 37.3 150.1 37.6C149.5 37.9 148.5 37.8 147.6 37.8Z" fill="black"/>
<path d="M157.1 37.7C156.9 37.7 156.8 37.7 156.6 37.6C156.5 37.5 156.4 37.4 156.3 37.2L153.2 27.8C153.1 27.5 153.1 27.2 153.2 27C153.3 26.8 153.5 26.7 153.8 26.7C154 26.7 154.1 26.7 154.3 26.8C154.4 26.9 154.5 27 154.6 27.2L157.4 35.7H157L159.6 27.2C159.7 27 159.7 26.9 159.9 26.8C160 26.7 160.2 26.6 160.4 26.6C160.6 26.6 160.8 26.7 160.9 26.8C161 26.9 161.1 27.1 161.2 27.2L163.7 35.5H163.4L166.1 27.2C166.2 26.8 166.5 26.6 166.8 26.6C167.1 26.6 167.3 26.7 167.4 26.9C167.5 27.1 167.5 27.4 167.4 27.7L164.3 37.1C164.2 37.2 164.2 37.4 164 37.5C163.9 37.6 163.7 37.6 163.5 37.6C163.3 37.6 163.2 37.6 163 37.5C162.9 37.4 162.8 37.3 162.7 37.1L160.2 28.7H160.4L157.9 37.1C157.8 37.3 157.8 37.4 157.6 37.5C157.4 37.7 157.2 37.7 157.1 37.7Z" fill="black"/>
<path d="M174.4 37.8C173.3 37.8 172.4 37.6 171.5 37.1C170.7 36.6 170 36 169.5 35.1C169 34.3 168.8 33.3 168.8 32.2C168.8 31.1 169 30.2 169.5 29.3C170 28.5 170.6 27.8 171.5 27.3C172.3 26.8 173.3 26.6 174.4 26.6C175.5 26.6 176.4 26.8 177.2 27.3C178 27.8 178.7 28.4 179.2 29.3C179.7 30.1 179.9 31.1 179.9 32.2C179.9 33.3 179.7 34.2 179.2 35.1C178.7 35.9 178.1 36.6 177.2 37.1C176.4 37.6 175.5 37.8 174.4 37.8ZM174.4 36.4C175.2 36.4 175.9 36.2 176.5 35.9C177.1 35.5 177.6 35 177.9 34.4C178.2 33.8 178.4 33.1 178.4 32.3C178.4 31.5 178.2 30.8 177.9 30.2C177.6 29.6 177.1 29.1 176.5 28.7C175.9 28.3 175.2 28.2 174.4 28.2C173.6 28.2 172.9 28.4 172.3 28.7C171.7 29.1 171.2 29.6 170.8 30.2C170.4 30.8 170.3 31.5 170.3 32.3C170.3 33.1 170.5 33.8 170.8 34.4C171.2 35 171.6 35.5 172.3 35.9C173 36.3 173.6 36.4 174.4 36.4Z" fill="black"/>
<path d="M183.7 37.7C183.5 37.7 183.3 37.6 183.1 37.5C183 37.4 182.9 37.2 182.9 36.9V27.5C182.9 27.3 183 27.1 183.1 26.9C183.2 26.8 183.4 26.7 183.7 26.7C183.9 26.7 184.1 26.8 184.3 26.9C184.4 27 184.5 27.2 184.5 27.5V36.9C184.5 37.1 184.4 37.3 184.3 37.5C184.1 37.6 183.9 37.7 183.7 37.7ZM183.6 31C183.6 30.2 183.9 29.4 184.2 28.8C184.5 28.2 185.1 27.6 185.7 27.3C186.3 26.9 187 26.7 187.8 26.7C188.4 26.7 188.9 26.8 189.2 27C189.5 27.2 189.7 27.4 189.6 27.8C189.5 28 189.5 28.1 189.3 28.2C189.2 28.3 189 28.3 188.8 28.3C188.6 28.3 188.4 28.3 188.2 28.3C187.5 28.2 186.8 28.3 186.2 28.5C185.6 28.7 185.2 29.1 184.8 29.5C184.4 29.9 184.3 30.5 184.3 31.1H183.6V31Z" fill="black"/>
<path d="M197.1 37.8C196 37.8 195.1 37.6 194.3 37.1C193.5 36.6 192.8 36 192.3 35.1C191.8 34.3 191.6 33.3 191.6 32.2C191.6 31.1 191.8 30.2 192.3 29.4C192.8 28.6 193.4 27.9 194.2 27.4C195 26.9 195.9 26.7 197 26.7C197.9 26.7 198.7 26.9 199.4 27.3C200.1 27.7 200.7 28.2 201.1 28.8V22.9C201.1 22.7 201.2 22.5 201.3 22.3C201.4 22.2 201.6 22.1 201.9 22.1C202.2 22.1 202.3 22.2 202.5 22.3C202.6 22.4 202.7 22.6 202.7 22.9V32.3C202.7 33.3 202.4 34.3 201.9 35.1C201.4 35.9 200.8 36.6 199.9 37.1C199.1 37.6 198.1 37.8 197.1 37.8ZM197.1 36.4C197.9 36.4 198.6 36.2 199.2 35.9C199.8 35.5 200.3 35 200.6 34.4C200.9 33.8 201.1 33.1 201.1 32.3C201.1 31.5 200.9 30.8 200.6 30.2C200.2 29.6 199.8 29.1 199.2 28.7C198.6 28.3 197.9 28.2 197.1 28.2C196.3 28.2 195.7 28.4 195 28.7C194.4 29.1 193.9 29.6 193.5 30.2C193.1 30.8 193 31.5 193 32.3C193 33.1 193.2 33.8 193.5 34.4C193.9 35 194.3 35.5 195 35.9C195.7 36.3 196.3 36.4 197.1 36.4Z" fill="black"/>
</svg>
