<svg width="221" height="70" viewBox="0 0 221 70" fill="none" xmlns="http://www.w3.org/2000/svg">
<path d="M212.904 70H8.09631C3.6983 70 0 65.5262 0 59.934V16.066C0 10.598 3.59835 6 8.09631 6H212.904C217.302 6 221 10.4738 221 16.066V59.934C220.9 65.5262 217.302 70 212.904 70Z" fill="#F2AD00"/>
<path d="M86.7999 45.9C85.6999 45.9 84.6999 45.7 83.7999 45.3C82.8999 44.9 81.9999 44.3 81.2999 43.6C80.5999 42.9 80 42 79.6 41C79.2 40 79 39 79 37.9C79 36.8 79.2 35.8 79.6 34.8C80 33.8 80.4999 33 81.2999 32.3C81.9999 31.6 82.7999 31 83.7999 30.6C84.6999 30.2 85.8 30 86.9 30C87.9 30 88.7 30.1 89.5 30.4C90.3 30.7 90.9999 31.1 91.7999 31.7C91.8999 31.8 92 31.9 92 32C92 32.1 92 32.2 92 32.4C91.9 32.5 91.8999 32.6 91.7999 32.7C91.7999 32.8 91.7 32.9 91.6 32.9C91.5 33 91.4 33 91.2 33C91 33 90.8999 32.9 90.7999 32.8C90.2999 32.3 89.7 32 89.1 31.8C88.5 31.6 87.8 31.5 87 31.5C86.1 31.5 85.3 31.7 84.6 32C83.8 32.3 83.2 32.8 82.6 33.4C82 34 81.5999 34.7 81.2999 35.5C80.9999 36.3 80.7999 37.1 80.7999 38C80.7999 38.9 80.9999 39.8 81.2999 40.5C81.5999 41.3 82.1 42 82.6 42.6C83.2 43.2 83.8 43.7 84.6 44C85.4 44.3 86.2 44.5 87 44.5C87.7 44.5 88.4 44.4 89.1 44.1C89.8 43.9 90.4 43.5 91 43.1C91.2 43 91.3 42.9 91.5 42.9C91.7 42.9 91.8 43 92 43.1C92.1 43.2 92.2 43.4 92.2 43.6C92.2 43.7 92.2 43.8 92.2 43.9C92.2 44 92.1 44.1 92 44.2C91.3 44.8 90.6 45.3 89.7 45.5C88.5 45.8 87.6999 45.9 86.7999 45.9ZM91.9 43.6L90.4 43.3V39.3H87.2999C87.0999 39.3 86.9 39.2 86.7 39.1C86.6 39 86.5 38.8 86.5 38.6C86.5 38.4 86.6 38.2 86.7 38.1C86.8 38 86.9999 37.9 87.2999 37.9H91.2C91.4 37.9 91.5999 38 91.7999 38.1C91.8999 38.2 92 38.4 92 38.6V43.6H91.9Z" fill="black"/>
<path d="M95.6998 45.7C95.4998 45.7 95.2999 45.6 95.0999 45.5C94.9999 45.4 94.8999 45.2 94.8999 44.9V35.5C94.8999 35.3 94.9999 35.1 95.0999 34.9C95.1999 34.8 95.3998 34.7 95.6998 34.7C95.8998 34.7 96.0998 34.8 96.2998 34.9C96.3998 35 96.4999 35.2 96.4999 35.5V44.9C96.4999 45.1 96.3998 45.3 96.2998 45.5C96.0998 45.6 95.8998 45.7 95.6998 45.7ZM95.5999 39C95.5999 38.2 95.8998 37.4 96.2998 36.8C96.6998 36.1 97.1998 35.6 97.7998 35.3C98.3998 34.9 99.0999 34.7 99.8999 34.7C100.5 34.7 101 34.8 101.3 35C101.6 35.2 101.8 35.4 101.7 35.8C101.6 36 101.6 36.1 101.4 36.2C101.3 36.3 101.1 36.3 100.9 36.3C100.7 36.3 100.5 36.3 100.3 36.3C99.5998 36.2 98.8998 36.3 98.2998 36.5C97.6998 36.7 97.2999 37.1 96.8999 37.5C96.4999 37.9 96.3999 38.5 96.3999 39.1H95.5999V39Z" fill="black"/>
<path d="M108.9 45.8C107.9 45.8 107 45.6 106.1 45.1C105.2 44.6 104.6 44 104.2 43.1C103.7 42.3 103.5 41.3 103.5 40.3C103.5 39.2 103.7 38.3 104.2 37.4C104.7 36.6 105.4 35.9 106.2 35.4C107 34.9 108 34.7 109 34.7C110 34.7 111 34.9 111.8 35.4C112.6 35.9 113.3 36.5 113.8 37.4C114.3 38.2 114.5 39.2 114.6 40.3L114 40.8C114 41.8 113.8 42.6 113.3 43.4C112.9 44.2 112.2 44.8 111.5 45.2C110.8 45.6 109.9 45.8 108.9 45.8ZM109.1 44.4C109.9 44.4 110.6 44.2 111.2 43.9C111.8 43.5 112.3 43 112.6 42.4C113 41.8 113.1 41.1 113.1 40.3C113.1 39.5 112.9 38.8 112.6 38.2C112.2 37.6 111.8 37.1 111.2 36.7C110.6 36.3 109.9 36.1 109.1 36.1C108.3 36.1 107.7 36.3 107 36.7C106.3 37.1 105.9 37.6 105.5 38.2C105.1 38.8 105 39.5 105 40.3C105 41.1 105.2 41.8 105.5 42.4C105.9 43 106.3 43.5 107 43.9C107.6 44.2 108.3 44.4 109.1 44.4ZM113.9 45.7C113.7 45.7 113.5 45.6 113.3 45.5C113.1 45.4 113.1 45.2 113.1 45V41.6L113.5 40L114.7 40.3V45C114.7 45.2 114.6 45.4 114.5 45.5C114.4 45.6 114.1 45.7 113.9 45.7Z" fill="black"/>
<path d="M122.6 45.8C121.5 45.8 120.6 45.6 119.8 45.1C119 44.6 118.3 44 117.8 43.1C117.3 42.3 117.1 41.3 117.1 40.2C117.1 39.1 117.3 38.2 117.8 37.4C118.3 36.6 118.9 35.9 119.7 35.4C120.5 34.9 121.4 34.7 122.5 34.7C123.4 34.7 124.2 34.9 124.9 35.3C125.6 35.7 126.2 36.2 126.6 36.8V30.9C126.6 30.7 126.7 30.5 126.8 30.3C126.9 30.2 127.1 30.1 127.4 30.1C127.7 30.1 127.8 30.2 128 30.3C128.1 30.4 128.2 30.6 128.2 30.9V40.3C128.2 41.3 127.9 42.3 127.4 43.1C126.9 43.9 126.3 44.6 125.4 45.1C124.6 45.6 123.7 45.8 122.6 45.8ZM122.6 44.4C123.4 44.4 124.1 44.2 124.7 43.8C125.3 43.4 125.8 42.9 126.1 42.3C126.4 41.7 126.6 41 126.6 40.2C126.6 39.4 126.4 38.7 126.1 38.1C125.8 37.5 125.3 37 124.7 36.6C124.1 36.2 123.4 36.1 122.6 36.1C121.8 36.1 121.2 36.3 120.5 36.6C119.8 36.9 119.4 37.5 119 38.1C118.6 38.7 118.5 39.4 118.5 40.2C118.5 41 118.7 41.7 119 42.3C119.3 42.9 119.8 43.4 120.5 43.8C121.2 44.2 121.9 44.4 122.6 44.4Z" fill="black"/>
<path d="M136.7 45.8C135.6 45.8 134.7 45.6 133.8 45.1C133 44.6 132.3 44 131.8 43.1C131.3 42.3 131.1 41.3 131.1 40.2C131.1 39.1 131.3 38.1 131.8 37.3C132.2 36.5 132.9 35.8 133.6 35.3C134.3 34.8 135.3 34.6 136.3 34.6C137.3 34.6 138.2 34.8 139 35.3C139.8 35.8 140.3 36.4 140.8 37.2C141.2 38 141.4 38.9 141.4 40C141.4 40.2 141.3 40.4 141.2 40.5C141.1 40.6 140.9 40.7 140.7 40.7H132.2V39.4H140.9L140 40C140 39.2 139.9 38.5 139.6 37.9C139.3 37.3 138.9 36.8 138.3 36.5C137.8 36.2 137.1 36 136.4 36C135.6 36 135 36.2 134.4 36.5C133.8 36.9 133.4 37.4 133.1 38C132.8 38.6 132.6 39.4 132.6 40.2C132.6 41 132.8 41.7 133.1 42.4C133.5 43 133.9 43.5 134.5 43.9C135.1 44.3 135.8 44.4 136.6 44.4C137.1 44.4 137.6 44.3 138.1 44.1C138.6 43.9 139 43.7 139.3 43.5C139.4 43.4 139.6 43.3 139.8 43.3C140 43.3 140.1 43.3 140.3 43.4C140.5 43.6 140.6 43.7 140.6 43.9C140.6 44.1 140.5 44.2 140.4 44.4C140 44.8 139.4 45.1 138.7 45.3C138 45.7 137.4 45.8 136.7 45.8Z" fill="black"/>
<path d="M212.904 64H8.09631C3.6983 64 0 59.5262 0 53.934V10.066C0 4.59805 3.59835 0 8.09631 0H212.904C217.302 0 221 4.47377 221 10.066V53.934C220.9 59.5262 217.302 64 212.904 64Z" fill="white"/>
<path d="M86.7999 39.9C85.6999 39.9 84.6999 39.7 83.7999 39.3C82.8999 38.9 81.9999 38.3 81.2999 37.6C80.5999 36.9 80 36 79.6 35C79.2 34 79 33 79 31.9C79 30.8 79.2 29.8 79.6 28.8C80 27.8 80.4999 27 81.2999 26.3C81.9999 25.6 82.7999 25 83.7999 24.6C84.6999 24.2 85.8 24 86.9 24C87.9 24 88.7 24.1 89.5 24.4C90.3 24.7 90.9999 25.1 91.7999 25.7C91.8999 25.8 92 25.9 92 26C92 26.1 92 26.2 92 26.4C91.9 26.5 91.8999 26.6 91.7999 26.7C91.7999 26.8 91.7 26.9 91.6 26.9C91.5 27 91.4 27 91.2 27C91 27 90.8999 26.9 90.7999 26.8C90.2999 26.3 89.7 26 89.1 25.8C88.5 25.6 87.8 25.5 87 25.5C86.1 25.5 85.3 25.7 84.6 26C83.8 26.3 83.2 26.8 82.6 27.4C82 28 81.5999 28.7 81.2999 29.5C80.9999 30.3 80.7999 31.1 80.7999 32C80.7999 32.9 80.9999 33.8 81.2999 34.5C81.5999 35.3 82.1 36 82.6 36.6C83.2 37.2 83.8 37.7 84.6 38C85.4 38.3 86.2 38.5 87 38.5C87.7 38.5 88.4 38.4 89.1 38.1C89.8 37.9 90.4 37.5 91 37.1C91.2 37 91.3 36.9 91.5 36.9C91.7 36.9 91.8 37 92 37.1C92.1 37.2 92.2 37.4 92.2 37.6C92.2 37.7 92.2 37.8 92.2 37.9C92.2 38 92.1 38.1 92 38.2C91.3 38.8 90.6 39.3 89.7 39.5C88.5 39.8 87.6999 39.9 86.7999 39.9ZM91.9 37.6L90.4 37.3V33.3H87.2999C87.0999 33.3 86.9 33.2 86.7 33.1C86.6 33 86.5 32.8 86.5 32.6C86.5 32.4 86.6 32.2 86.7 32.1C86.8 32 86.9999 31.9 87.2999 31.9H91.2C91.4 31.9 91.5999 32 91.7999 32.1C91.8999 32.2 92 32.4 92 32.6V37.6H91.9Z" fill="black"/>
<path d="M95.6998 39.7C95.4998 39.7 95.2999 39.6 95.0999 39.5C94.9999 39.4 94.8999 39.2 94.8999 38.9V29.5C94.8999 29.3 94.9999 29.1 95.0999 28.9C95.1999 28.8 95.3998 28.7 95.6998 28.7C95.8998 28.7 96.0998 28.8 96.2998 28.9C96.3998 29 96.4999 29.2 96.4999 29.5V38.9C96.4999 39.1 96.3998 39.3 96.2998 39.5C96.0998 39.6 95.8998 39.7 95.6998 39.7ZM95.5999 33C95.5999 32.2 95.8998 31.4 96.2998 30.8C96.6998 30.1 97.1998 29.6 97.7998 29.3C98.3998 28.9 99.0999 28.7 99.8999 28.7C100.5 28.7 101 28.8 101.3 29C101.6 29.2 101.8 29.4 101.7 29.8C101.6 30 101.6 30.1 101.4 30.2C101.3 30.3 101.1 30.3 100.9 30.3C100.7 30.3 100.5 30.3 100.3 30.3C99.5998 30.2 98.8998 30.3 98.2998 30.5C97.6998 30.7 97.2999 31.1 96.8999 31.5C96.4999 31.9 96.3999 32.5 96.3999 33.1H95.5999V33Z" fill="black"/>
<path d="M108.9 39.8C107.9 39.8 107 39.6 106.1 39.1C105.2 38.6 104.6 38 104.2 37.1C103.7 36.3 103.5 35.3 103.5 34.3C103.5 33.2 103.7 32.3 104.2 31.4C104.7 30.6 105.4 29.9 106.2 29.4C107 28.9 108 28.7 109 28.7C110 28.7 111 28.9 111.8 29.4C112.6 29.9 113.3 30.5 113.8 31.4C114.3 32.2 114.5 33.2 114.6 34.3L114 34.8C114 35.8 113.8 36.6 113.3 37.4C112.9 38.2 112.2 38.8 111.5 39.2C110.8 39.6 109.9 39.8 108.9 39.8ZM109.1 38.4C109.9 38.4 110.6 38.2 111.2 37.9C111.8 37.5 112.3 37 112.6 36.4C113 35.8 113.1 35.1 113.1 34.3C113.1 33.5 112.9 32.8 112.6 32.2C112.2 31.6 111.8 31.1 111.2 30.7C110.6 30.3 109.9 30.1 109.1 30.1C108.3 30.1 107.7 30.3 107 30.7C106.3 31.1 105.9 31.6 105.5 32.2C105.1 32.8 105 33.5 105 34.3C105 35.1 105.2 35.8 105.5 36.4C105.9 37 106.3 37.5 107 37.9C107.6 38.2 108.3 38.4 109.1 38.4ZM113.9 39.7C113.7 39.7 113.5 39.6 113.3 39.5C113.1 39.4 113.1 39.2 113.1 39V35.6L113.5 34L114.7 34.3V39C114.7 39.2 114.6 39.4 114.5 39.5C114.4 39.6 114.1 39.7 113.9 39.7Z" fill="black"/>
<path d="M122.6 39.8C121.5 39.8 120.6 39.6 119.8 39.1C119 38.6 118.3 38 117.8 37.1C117.3 36.3 117.1 35.3 117.1 34.2C117.1 33.1 117.3 32.2 117.8 31.4C118.3 30.6 118.9 29.9 119.7 29.4C120.5 28.9 121.4 28.7 122.5 28.7C123.4 28.7 124.2 28.9 124.9 29.3C125.6 29.7 126.2 30.2 126.6 30.8V24.9C126.6 24.7 126.7 24.5 126.8 24.3C126.9 24.2 127.1 24.1 127.4 24.1C127.7 24.1 127.8 24.2 128 24.3C128.1 24.4 128.2 24.6 128.2 24.9V34.3C128.2 35.3 127.9 36.3 127.4 37.1C126.9 37.9 126.3 38.6 125.4 39.1C124.6 39.6 123.7 39.8 122.6 39.8ZM122.6 38.4C123.4 38.4 124.1 38.2 124.7 37.8C125.3 37.4 125.8 36.9 126.1 36.3C126.4 35.7 126.6 35 126.6 34.2C126.6 33.4 126.4 32.7 126.1 32.1C125.8 31.5 125.3 31 124.7 30.6C124.1 30.2 123.4 30.1 122.6 30.1C121.8 30.1 121.2 30.3 120.5 30.6C119.8 30.9 119.4 31.5 119 32.1C118.6 32.7 118.5 33.4 118.5 34.2C118.5 35 118.7 35.7 119 36.3C119.3 36.9 119.8 37.4 120.5 37.8C121.2 38.2 121.9 38.4 122.6 38.4Z" fill="black"/>
<path d="M136.7 39.8C135.6 39.8 134.7 39.6 133.8 39.1C133 38.6 132.3 38 131.8 37.1C131.3 36.3 131.1 35.3 131.1 34.2C131.1 33.1 131.3 32.1 131.8 31.3C132.2 30.5 132.9 29.8 133.6 29.3C134.3 28.8 135.3 28.6 136.3 28.6C137.3 28.6 138.2 28.8 139 29.3C139.8 29.8 140.3 30.4 140.8 31.2C141.2 32 141.4 32.9 141.4 34C141.4 34.2 141.3 34.4 141.2 34.5C141.1 34.6 140.9 34.7 140.7 34.7H132.2V33.4H140.9L140 34C140 33.2 139.9 32.5 139.6 31.9C139.3 31.3 138.9 30.8 138.3 30.5C137.8 30.2 137.1 30 136.4 30C135.6 30 135 30.2 134.4 30.5C133.8 30.9 133.4 31.4 133.1 32C132.8 32.6 132.6 33.4 132.6 34.2C132.6 35 132.8 35.7 133.1 36.4C133.5 37 133.9 37.5 134.5 37.9C135.1 38.3 135.8 38.4 136.6 38.4C137.1 38.4 137.6 38.3 138.1 38.1C138.6 37.9 139 37.7 139.3 37.5C139.4 37.4 139.6 37.3 139.8 37.3C140 37.3 140.1 37.3 140.3 37.4C140.5 37.6 140.6 37.7 140.6 37.9C140.6 38.1 140.5 38.2 140.4 38.4C140 38.8 139.4 39.1 138.7 39.3C138 39.7 137.4 39.8 136.7 39.8Z" fill="black"/>
</svg>
