<svg width="214" height="118" viewBox="0 0 214 118" fill="none" xmlns="http://www.w3.org/2000/svg">
<path d="M164.1 23C163.4 23 162.8 23 162.1 23C160.9 23 159.7 22.6 158.9 21.6C146.8 8.49997 128.3 0.0999756 107.5 0.0999756C86.7 0.0999756 68.2 8.59997 56 21.8C55.2 22.7 53.9 23.2 52.7 23.1C51.5 23 50.2 23 49 23C21.9 23 0 41.5 0 64.4C0 87.3 21.9 105.8 49 105.8C53.8 105.8 58.4 105.2 62.7 104.2C63.9 103.9 65.1 104.1 66.1 104.8C77.5 112.8 91.9 117.7 107.5 117.7C123 117.7 137.2 113 148.5 105.2C149.4 104.5 150.6 104.3 151.7 104.5C155.7 105.4 159.8 105.9 164.1 105.9C191.2 105.9 213.1 87.4 213.1 64.5C213.1 41.5 191.2 23 164.1 23Z" fill="white"/>
<g opacity="0.3">
<path opacity="0.3" d="M195.1 82.1C202.8 82.1 202.8 70.1 195.1 70.1C187.4 70.1 187.4 82.1 195.1 82.1Z" fill="#19A2DC"/>
</g>
<g opacity="0.3">
<path opacity="0.3" d="M191.2 89.3C190.5 90 189.9 90.5 189.2 91C188.6 91.5 187.9 92 187.3 92.4C186 93.3 184.6 94.1 183.3 94.9C180.5 96.4 177.6 97.6 174.7 98.4C173.2 98.9 171.7 99.1 170.2 99.4C169.4 99.5 168.7 99.6 167.9 99.6C167.5 99.6 167.1 99.7 166.8 99.7H165.7C162.7 99.8 159.7 99.2 156.9 98.6C159.8 98.6 162.7 98.5 165.5 97.7L166.5 97.5C166.8 97.4 167.2 97.3 167.5 97.2C168.2 97 168.8 96.8 169.5 96.5C170.8 95.9 172.1 95.4 173.3 94.7C175.7 93.4 178 91.8 180 89.9C181 89 182 88 182.9 87C183.3 86.5 183.8 86 184.2 85.5C184.6 85 185 84.4 185.3 84C186.4 82.1 188.9 81.4 190.8 82.6C192.7 83.7 193.4 86.2 192.2 88.1C192 88.4 191.8 88.7 191.6 88.9L191.2 89.3Z" fill="#19A2DC"/>
</g>
<path d="M82.8 47.2L81.5 72.1L74.3 71.8L74.5 62.3L70.3 62.5L70.4 70.9L62.4 70.8L62.8 45.9H70L70.1 56.1L74.6 55.7L74.8 46.8L82.8 47.2Z" fill="#E7F4F5" stroke="#E7F4F5" stroke-width="6" stroke-miterlimit="10"/>
<path d="M94.1 72.3C92.5 72.2 91 71.7 89.6 70.8C88.3 70 87.1 69 86.2 67.7C85.3 66.4 84.6 64.9 84.2 63.3C83.8 61.6 83.7 59.9 84 58.1C84.3 56.3 84.8 54.6 85.7 53.1C86.5 51.6 87.6 50.3 88.9 49.2C91.6 46.9 94.6 45.9 98 46.2C99.6 46.3 101.1 46.8 102.5 47.7C103.9 48.5 105 49.5 105.9 50.8C106.8 52.1 107.5 53.6 107.9 55.2C108.3 56.9 108.4 58.6 108.1 60.4C107.8 62.2 107.3 63.9 106.4 65.4C105.6 66.9 104.5 68.2 103.2 69.3C100.4 71.6 97.4 72.6 94.1 72.3ZM91.3 58.9C91.1 60.3 91.4 61.6 92.2 62.7C93 63.8 94.1 64.4 95.4 64.5C96.7 64.6 97.9 64.2 99 63.3C100.1 62.4 100.7 61.2 100.9 59.8C101.1 58.4 100.8 57.1 100 56C99.2 54.9 98.2 54.3 96.8 54.2C95.5 54.1 94.3 54.5 93.2 55.4C92.1 56.3 91.5 57.5 91.3 58.9Z" fill="#E7F4F5" stroke="#E7F4F5" stroke-width="6" stroke-miterlimit="10"/>
<path d="M106.8 68.4L114.4 45.6L121.9 55.9L129.8 45.4L136.1 68.8L128.1 71.9L126.1 62.8L121.7 69.3L117.3 63.6L114.5 71.9L106.8 68.4Z" fill="#E7F4F5" stroke="#E7F4F5" stroke-width="6" stroke-miterlimit="10"/>
<path d="M153.5 72L138.1 72.2L138.2 46L153.8 45.5L154 52.8L145.2 52.6L145.3 55.6H149.8L150.1 62.3L145.4 61.9L145.5 65.1H153.3L153.5 72Z" fill="#E7F4F5" stroke="#E7F4F5" stroke-width="6" stroke-miterlimit="10"/>
<path d="M82.8 46.2L81.5 71.1L74.3 70.8L74.5 61.3L70.3 61.5L70.4 69.9L62.4 69.8L62.8 44.9H70L70.1 55.1L74.6 54.7L74.8 45.8L82.8 46.2Z" fill="#1A7ABE"/>
<path d="M94.1 71.3C92.5 71.2 91 70.7 89.6 69.8C88.3 69 87.1 68 86.2 66.7C85.3 65.4 84.6 63.9 84.2 62.3C83.8 60.6 83.7 58.9 84 57.1C84.3 55.3 84.8 53.6 85.7 52.1C86.5 50.6 87.6 49.3 88.9 48.2C91.6 45.9 94.6 44.9 98 45.2C99.6 45.3 101.1 45.8 102.5 46.7C103.9 47.5 105 48.5 105.9 49.8C106.8 51.1 107.5 52.6 107.9 54.2C108.3 55.9 108.4 57.6 108.1 59.4C107.8 61.2 107.3 62.9 106.4 64.4C105.6 65.9 104.5 67.2 103.2 68.3C100.4 70.6 97.4 71.6 94.1 71.3ZM91.3 57.9C91.1 59.3 91.4 60.6 92.2 61.7C93 62.8 94.1 63.4 95.4 63.5C96.7 63.6 97.9 63.2 99 62.3C100.1 61.4 100.7 60.2 100.9 58.8C101.1 57.4 100.8 56.1 100 55C99.2 53.9 98.2 53.3 96.8 53.2C95.5 53.1 94.3 53.5 93.2 54.4C92.1 55.3 91.5 56.5 91.3 57.9Z" fill="#1A7ABE"/>
<path d="M106.8 67.4L114.4 44.6L121.9 54.9L129.8 44.4L136.1 67.8L128.1 70.9L126.1 61.8L121.7 68.3L117.3 62.6L114.5 70.9L106.8 67.4Z" fill="#1A7ABE"/>
<path d="M153.5 71L138.1 71.2L138.2 45L153.8 44.5L154 51.8L145.2 51.6L145.3 54.6H149.8L150.1 61.3L145.4 60.9L145.5 64.1H153.3L153.5 71Z" fill="#1A7ABE"/>
<path d="M82.8 48.2L81.5 73.1L74.3 72.8L74.5 63.3L70.3 63.5L70.4 71.9L62.4 71.8L62.8 46.9H70L70.1 57.1L74.6 56.7L74.8 47.8L82.8 48.2Z" fill="#19A2DC"/>
<path d="M94.1 73.3C92.5 73.2 91 72.7 89.6 71.8C88.3 71 87.1 70 86.2 68.7C85.3 67.4 84.6 65.9 84.2 64.3C83.8 62.6 83.7 60.9 84 59.1C84.3 57.3 84.8 55.6 85.7 54.1C86.5 52.6 87.6 51.3 88.9 50.2C91.6 47.9 94.6 46.9 98 47.2C99.6 47.3 101.1 47.8 102.5 48.7C103.9 49.5 105 50.5 105.9 51.8C106.8 53.1 107.5 54.6 107.9 56.2C108.3 57.9 108.4 59.6 108.1 61.4C107.8 63.2 107.3 64.9 106.4 66.4C105.6 67.9 104.5 69.2 103.2 70.3C100.4 72.6 97.4 73.6 94.1 73.3ZM91.3 59.9C91.1 61.3 91.4 62.6 92.2 63.7C93 64.8 94.1 65.4 95.4 65.5C96.7 65.6 97.9 65.2 99 64.3C100.1 63.4 100.7 62.2 100.9 60.8C101.1 59.4 100.8 58.1 100 57C99.2 55.9 98.2 55.3 96.8 55.2C95.5 55.1 94.3 55.5 93.2 56.4C92.1 57.3 91.5 58.5 91.3 59.9Z" fill="#19A2DC"/>
<path d="M106.8 69.4L114.4 46.6L121.9 56.9L129.8 46.4L136.1 69.8L128.1 72.9L126.1 63.8L121.7 70.3L117.3 64.6L114.5 72.9L106.8 69.4Z" fill="#19A2DC"/>
<path d="M153.5 73L138.1 73.2L138.2 47L153.8 46.5L154 53.8L145.2 53.6L145.3 56.6H149.8L150.1 63.3L145.4 62.9L145.5 66.1H153.3L153.5 73Z" fill="#19A2DC"/>
</svg>
