<svg width="221" height="70" viewBox="0 0 221 70" fill="none" xmlns="http://www.w3.org/2000/svg">
<path d="M212.904 70H8.09631C3.6983 70 0 65.5262 0 59.934V16.066C0 10.598 3.59835 6 8.09631 6H212.904C217.302 6 221 10.4738 221 16.066V59.934C220.9 65.5262 217.302 70 212.904 70Z" fill="#F2AD00"/>
<path d="M72.78 44C72.5667 44 72.38 43.9267 72.22 43.78C72.0733 43.6333 72 43.4467 72 43.22V29.16C72 28.9467 72.0733 28.7667 72.22 28.62C72.38 28.46 72.5667 28.38 72.78 28.38C72.9933 28.38 73.1733 28.46 73.32 28.62C73.48 28.7667 73.56 28.9467 73.56 29.16V42.52H81.38C81.5933 42.52 81.7733 42.5933 81.92 42.74C82.08 42.8733 82.16 43.0467 82.16 43.26C82.16 43.4733 82.08 43.6533 81.92 43.8C81.7733 43.9333 81.5933 44 81.38 44H72.78ZM89.4363 44.1C88.3696 44.1 87.4163 43.86 86.5763 43.38C85.7363 42.9 85.0763 42.24 84.5963 41.4C84.1163 40.56 83.8763 39.6067 83.8763 38.54C83.8763 37.46 84.1163 36.5 84.5963 35.66C85.0763 34.82 85.7363 34.16 86.5763 33.68C87.4163 33.2 88.3696 32.96 89.4363 32.96C90.5029 32.96 91.4496 33.2 92.2763 33.68C93.1163 34.16 93.7763 34.82 94.2563 35.66C94.7363 36.5 94.9829 37.46 94.9963 38.54C94.9963 39.6067 94.7496 40.56 94.2563 41.4C93.7763 42.24 93.1163 42.9 92.2763 43.38C91.4496 43.86 90.5029 44.1 89.4363 44.1ZM89.4363 42.7C90.2096 42.7 90.9029 42.52 91.5163 42.16C92.1296 41.8 92.6096 41.3067 92.9563 40.68C93.3029 40.0533 93.4763 39.34 93.4763 38.54C93.4763 37.74 93.3029 37.0267 92.9563 36.4C92.6096 35.76 92.1296 35.26 91.5163 34.9C90.9029 34.54 90.2096 34.36 89.4363 34.36C88.6629 34.36 87.9696 34.54 87.3563 34.9C86.7429 35.26 86.2563 35.76 85.8963 36.4C85.5496 37.0267 85.3763 37.74 85.3763 38.54C85.3763 39.34 85.5496 40.0533 85.8963 40.68C86.2563 41.3067 86.7429 41.8 87.3563 42.16C87.9696 42.52 88.6629 42.7 89.4363 42.7ZM102.811 44.1C101.758 44.1 100.825 43.8667 100.011 43.4C99.1981 42.92 98.5581 42.26 98.0914 41.42C97.6381 40.58 97.4114 39.62 97.4114 38.54C97.4114 37.4467 97.6514 36.48 98.1314 35.64C98.6114 34.8 99.2714 34.1467 100.111 33.68C100.951 33.2 101.905 32.96 102.971 32.96C104.051 32.96 105.005 33.2 105.831 33.68C106.671 34.1467 107.325 34.8 107.791 35.64C108.271 36.48 108.518 37.4467 108.531 38.54V42.62C108.531 43.7 108.291 44.6667 107.811 45.52C107.331 46.3867 106.678 47.0667 105.851 47.56C105.025 48.0667 104.078 48.32 103.011 48.32C101.958 48.32 101.031 48.12 100.231 47.72C99.4314 47.3333 98.7714 46.8 98.2514 46.12C98.1047 45.96 98.0381 45.7867 98.0514 45.6C98.0781 45.4133 98.1781 45.26 98.3514 45.14C98.5247 45.02 98.7181 44.98 98.9314 45.02C99.1447 45.06 99.3114 45.16 99.4314 45.32C99.8181 45.8 100.311 46.1867 100.911 46.48C101.525 46.7733 102.231 46.92 103.031 46.92C103.778 46.92 104.451 46.74 105.051 46.38C105.651 46.02 106.125 45.5133 106.471 44.86C106.831 44.2067 107.011 43.44 107.011 42.56V41.64C106.611 42.4 106.045 43 105.311 43.44C104.591 43.88 103.758 44.1 102.811 44.1ZM102.971 42.7C103.758 42.7 104.451 42.5267 105.051 42.18C105.665 41.82 106.145 41.3267 106.491 40.7C106.838 40.0733 107.011 39.3533 107.011 38.54C107.011 37.7267 106.838 37.0067 106.491 36.38C106.145 35.74 105.665 35.2467 105.051 34.9C104.451 34.54 103.758 34.36 102.971 34.36C102.185 34.36 101.485 34.54 100.871 34.9C100.258 35.2467 99.7781 35.74 99.4314 36.38C99.0847 37.0067 98.9114 37.7267 98.9114 38.54C98.9114 39.3533 99.0847 40.0733 99.4314 40.7C99.7781 41.3267 100.258 41.82 100.871 42.18C101.485 42.5267 102.185 42.7 102.971 42.7ZM122.366 44.1C121.299 44.1 120.346 43.86 119.506 43.38C118.666 42.9 118.006 42.24 117.526 41.4C117.046 40.56 116.806 39.6067 116.806 38.54C116.806 37.46 117.046 36.5 117.526 35.66C118.006 34.82 118.666 34.16 119.506 33.68C120.346 33.2 121.299 32.96 122.366 32.96C123.433 32.96 124.379 33.2 125.206 33.68C126.046 34.16 126.706 34.82 127.186 35.66C127.666 36.5 127.913 37.46 127.926 38.54C127.926 39.6067 127.679 40.56 127.186 41.4C126.706 42.24 126.046 42.9 125.206 43.38C124.379 43.86 123.433 44.1 122.366 44.1ZM122.366 42.7C123.139 42.7 123.833 42.52 124.446 42.16C125.059 41.8 125.539 41.3067 125.886 40.68C126.233 40.0533 126.406 39.34 126.406 38.54C126.406 37.74 126.233 37.0267 125.886 36.4C125.539 35.76 125.059 35.26 124.446 34.9C123.833 34.54 123.139 34.36 122.366 34.36C121.593 34.36 120.899 34.54 120.286 34.9C119.673 35.26 119.186 35.76 118.826 36.4C118.479 37.0267 118.306 37.74 118.306 38.54C118.306 39.34 118.479 40.0533 118.826 40.68C119.186 41.3067 119.673 41.8 120.286 42.16C120.899 42.52 121.593 42.7 122.366 42.7ZM135.681 44.12C134.734 44.12 133.888 43.9267 133.141 43.54C132.394 43.14 131.801 42.56 131.361 41.8C130.934 41.04 130.721 40.1133 130.721 39.02V33.82C130.721 33.6067 130.794 33.4267 130.941 33.28C131.088 33.1333 131.268 33.06 131.481 33.06C131.708 33.06 131.894 33.1333 132.041 33.28C132.188 33.4267 132.261 33.6067 132.261 33.82V39.02C132.261 40.2467 132.601 41.16 133.281 41.76C133.961 42.36 134.814 42.66 135.841 42.66C136.494 42.66 137.081 42.5333 137.601 42.28C138.134 42.0267 138.554 41.68 138.861 41.24C139.168 40.8 139.321 40.3 139.321 39.74V33.82C139.321 33.5933 139.388 33.4133 139.521 33.28C139.668 33.1333 139.854 33.06 140.081 33.06C140.308 33.06 140.494 33.1333 140.641 33.28C140.788 33.4133 140.861 33.5933 140.861 33.82V43.22C140.861 43.46 140.788 43.6533 140.641 43.8C140.494 43.9333 140.308 44 140.081 44C139.854 44 139.668 43.9333 139.521 43.8C139.388 43.6533 139.321 43.46 139.321 43.22V42.54C138.881 43.0333 138.348 43.42 137.721 43.7C137.094 43.98 136.414 44.12 135.681 44.12ZM148.736 44C148.03 44 147.396 43.8333 146.836 43.5C146.29 43.1667 145.856 42.7133 145.536 42.14C145.216 41.5533 145.056 40.8867 145.056 40.14V34.8H143.756C143.556 34.8 143.39 34.74 143.256 34.62C143.123 34.4867 143.056 34.3267 143.056 34.14C143.056 33.94 143.123 33.78 143.256 33.66C143.39 33.5267 143.556 33.46 143.756 33.46H145.056V30.36C145.056 30.1333 145.123 29.9467 145.256 29.8C145.403 29.6533 145.59 29.58 145.816 29.58C146.043 29.58 146.23 29.6533 146.376 29.8C146.523 29.9467 146.596 30.1333 146.596 30.36V33.46H148.856C149.056 33.46 149.223 33.5267 149.356 33.66C149.49 33.78 149.556 33.94 149.556 34.14C149.556 34.3267 149.49 34.4867 149.356 34.62C149.223 34.74 149.056 34.8 148.856 34.8H146.596V40.14C146.596 40.82 146.796 41.38 147.196 41.82C147.596 42.2467 148.11 42.46 148.736 42.46H149.276C149.49 42.46 149.663 42.5333 149.796 42.68C149.93 42.8267 149.996 43.0133 149.996 43.24C149.996 43.4667 149.916 43.6533 149.756 43.8C149.596 43.9333 149.396 44 149.156 44H148.736Z" fill="black"/>
<path d="M212.904 64H8.09631C3.6983 64 0 59.5262 0 53.934V10.066C0 4.59805 3.59835 0 8.09631 0H212.904C217.302 0 221 4.47377 221 10.066V53.934C220.9 59.5262 217.302 64 212.904 64Z" fill="white"/>
<path d="M72.78 38C72.5667 38 72.38 37.9267 72.22 37.78C72.0733 37.6333 72 37.4467 72 37.22V23.16C72 22.9467 72.0733 22.7667 72.22 22.62C72.38 22.46 72.5667 22.38 72.78 22.38C72.9933 22.38 73.1733 22.46 73.32 22.62C73.48 22.7667 73.56 22.9467 73.56 23.16V36.52H81.38C81.5933 36.52 81.7733 36.5933 81.92 36.74C82.08 36.8733 82.16 37.0467 82.16 37.26C82.16 37.4733 82.08 37.6533 81.92 37.8C81.7733 37.9333 81.5933 38 81.38 38H72.78ZM89.4363 38.1C88.3696 38.1 87.4163 37.86 86.5763 37.38C85.7363 36.9 85.0763 36.24 84.5963 35.4C84.1163 34.56 83.8763 33.6067 83.8763 32.54C83.8763 31.46 84.1163 30.5 84.5963 29.66C85.0763 28.82 85.7363 28.16 86.5763 27.68C87.4163 27.2 88.3696 26.96 89.4363 26.96C90.5029 26.96 91.4496 27.2 92.2763 27.68C93.1163 28.16 93.7763 28.82 94.2563 29.66C94.7363 30.5 94.9829 31.46 94.9963 32.54C94.9963 33.6067 94.7496 34.56 94.2563 35.4C93.7763 36.24 93.1163 36.9 92.2763 37.38C91.4496 37.86 90.5029 38.1 89.4363 38.1ZM89.4363 36.7C90.2096 36.7 90.9029 36.52 91.5163 36.16C92.1296 35.8 92.6096 35.3067 92.9563 34.68C93.3029 34.0533 93.4763 33.34 93.4763 32.54C93.4763 31.74 93.3029 31.0267 92.9563 30.4C92.6096 29.76 92.1296 29.26 91.5163 28.9C90.9029 28.54 90.2096 28.36 89.4363 28.36C88.6629 28.36 87.9696 28.54 87.3563 28.9C86.7429 29.26 86.2563 29.76 85.8963 30.4C85.5496 31.0267 85.3763 31.74 85.3763 32.54C85.3763 33.34 85.5496 34.0533 85.8963 34.68C86.2563 35.3067 86.7429 35.8 87.3563 36.16C87.9696 36.52 88.6629 36.7 89.4363 36.7ZM102.811 38.1C101.758 38.1 100.825 37.8667 100.011 37.4C99.1981 36.92 98.5581 36.26 98.0914 35.42C97.6381 34.58 97.4114 33.62 97.4114 32.54C97.4114 31.4467 97.6514 30.48 98.1314 29.64C98.6114 28.8 99.2714 28.1467 100.111 27.68C100.951 27.2 101.905 26.96 102.971 26.96C104.051 26.96 105.005 27.2 105.831 27.68C106.671 28.1467 107.325 28.8 107.791 29.64C108.271 30.48 108.518 31.4467 108.531 32.54V36.62C108.531 37.7 108.291 38.6667 107.811 39.52C107.331 40.3867 106.678 41.0667 105.851 41.56C105.025 42.0667 104.078 42.32 103.011 42.32C101.958 42.32 101.031 42.12 100.231 41.72C99.4314 41.3333 98.7714 40.8 98.2514 40.12C98.1047 39.96 98.0381 39.7867 98.0514 39.6C98.0781 39.4133 98.1781 39.26 98.3514 39.14C98.5247 39.02 98.7181 38.98 98.9314 39.02C99.1447 39.06 99.3114 39.16 99.4314 39.32C99.8181 39.8 100.311 40.1867 100.911 40.48C101.525 40.7733 102.231 40.92 103.031 40.92C103.778 40.92 104.451 40.74 105.051 40.38C105.651 40.02 106.125 39.5133 106.471 38.86C106.831 38.2067 107.011 37.44 107.011 36.56V35.64C106.611 36.4 106.045 37 105.311 37.44C104.591 37.88 103.758 38.1 102.811 38.1ZM102.971 36.7C103.758 36.7 104.451 36.5267 105.051 36.18C105.665 35.82 106.145 35.3267 106.491 34.7C106.838 34.0733 107.011 33.3533 107.011 32.54C107.011 31.7267 106.838 31.0067 106.491 30.38C106.145 29.74 105.665 29.2467 105.051 28.9C104.451 28.54 103.758 28.36 102.971 28.36C102.185 28.36 101.485 28.54 100.871 28.9C100.258 29.2467 99.7781 29.74 99.4314 30.38C99.0847 31.0067 98.9114 31.7267 98.9114 32.54C98.9114 33.3533 99.0847 34.0733 99.4314 34.7C99.7781 35.3267 100.258 35.82 100.871 36.18C101.485 36.5267 102.185 36.7 102.971 36.7ZM122.366 38.1C121.299 38.1 120.346 37.86 119.506 37.38C118.666 36.9 118.006 36.24 117.526 35.4C117.046 34.56 116.806 33.6067 116.806 32.54C116.806 31.46 117.046 30.5 117.526 29.66C118.006 28.82 118.666 28.16 119.506 27.68C120.346 27.2 121.299 26.96 122.366 26.96C123.433 26.96 124.379 27.2 125.206 27.68C126.046 28.16 126.706 28.82 127.186 29.66C127.666 30.5 127.913 31.46 127.926 32.54C127.926 33.6067 127.679 34.56 127.186 35.4C126.706 36.24 126.046 36.9 125.206 37.38C124.379 37.86 123.433 38.1 122.366 38.1ZM122.366 36.7C123.139 36.7 123.833 36.52 124.446 36.16C125.059 35.8 125.539 35.3067 125.886 34.68C126.233 34.0533 126.406 33.34 126.406 32.54C126.406 31.74 126.233 31.0267 125.886 30.4C125.539 29.76 125.059 29.26 124.446 28.9C123.833 28.54 123.139 28.36 122.366 28.36C121.593 28.36 120.899 28.54 120.286 28.9C119.673 29.26 119.186 29.76 118.826 30.4C118.479 31.0267 118.306 31.74 118.306 32.54C118.306 33.34 118.479 34.0533 118.826 34.68C119.186 35.3067 119.673 35.8 120.286 36.16C120.899 36.52 121.593 36.7 122.366 36.7ZM135.681 38.12C134.734 38.12 133.888 37.9267 133.141 37.54C132.394 37.14 131.801 36.56 131.361 35.8C130.934 35.04 130.721 34.1133 130.721 33.02V27.82C130.721 27.6067 130.794 27.4267 130.941 27.28C131.088 27.1333 131.268 27.06 131.481 27.06C131.708 27.06 131.894 27.1333 132.041 27.28C132.188 27.4267 132.261 27.6067 132.261 27.82V33.02C132.261 34.2467 132.601 35.16 133.281 35.76C133.961 36.36 134.814 36.66 135.841 36.66C136.494 36.66 137.081 36.5333 137.601 36.28C138.134 36.0267 138.554 35.68 138.861 35.24C139.168 34.8 139.321 34.3 139.321 33.74V27.82C139.321 27.5933 139.388 27.4133 139.521 27.28C139.668 27.1333 139.854 27.06 140.081 27.06C140.308 27.06 140.494 27.1333 140.641 27.28C140.788 27.4133 140.861 27.5933 140.861 27.82V37.22C140.861 37.46 140.788 37.6533 140.641 37.8C140.494 37.9333 140.308 38 140.081 38C139.854 38 139.668 37.9333 139.521 37.8C139.388 37.6533 139.321 37.46 139.321 37.22V36.54C138.881 37.0333 138.348 37.42 137.721 37.7C137.094 37.98 136.414 38.12 135.681 38.12ZM148.736 38C148.03 38 147.396 37.8333 146.836 37.5C146.29 37.1667 145.856 36.7133 145.536 36.14C145.216 35.5533 145.056 34.8867 145.056 34.14V28.8H143.756C143.556 28.8 143.39 28.74 143.256 28.62C143.123 28.4867 143.056 28.3267 143.056 28.14C143.056 27.94 143.123 27.78 143.256 27.66C143.39 27.5267 143.556 27.46 143.756 27.46H145.056V24.36C145.056 24.1333 145.123 23.9467 145.256 23.8C145.403 23.6533 145.59 23.58 145.816 23.58C146.043 23.58 146.23 23.6533 146.376 23.8C146.523 23.9467 146.596 24.1333 146.596 24.36V27.46H148.856C149.056 27.46 149.223 27.5267 149.356 27.66C149.49 27.78 149.556 27.94 149.556 28.14C149.556 28.3267 149.49 28.4867 149.356 28.62C149.223 28.74 149.056 28.8 148.856 28.8H146.596V34.14C146.596 34.82 146.796 35.38 147.196 35.82C147.596 36.2467 148.11 36.46 148.736 36.46H149.276C149.49 36.46 149.663 36.5333 149.796 36.68C149.93 36.8267 149.996 37.0133 149.996 37.24C149.996 37.4667 149.916 37.6533 149.756 37.8C149.596 37.9333 149.396 38 149.156 38H148.736Z" fill="black"/>
</svg>
