<svg width="213" height="71" viewBox="0 0 213 71" fill="none" xmlns="http://www.w3.org/2000/svg">
<rect y="7" width="213" height="64" rx="12" fill="#1A7ABE"/>
<rect width="213" height="64" rx="12" fill="white"/>
<path d="M77.336 39C77.08 39 76.856 38.912 76.664 38.736C76.488 38.544 76.4 38.32 76.4 38.064V21.192C76.4 20.92 76.488 20.696 76.664 20.52C76.856 20.344 77.08 20.256 77.336 20.256C77.72 20.256 78 20.416 78.176 20.736L86.264 36.816H85.448L93.392 20.736C93.584 20.416 93.864 20.256 94.232 20.256C94.488 20.256 94.704 20.344 94.88 20.52C95.056 20.696 95.144 20.92 95.144 21.192V38.064C95.144 38.32 95.056 38.544 94.88 38.736C94.704 38.912 94.488 39 94.232 39C93.96 39 93.728 38.912 93.536 38.736C93.36 38.544 93.272 38.32 93.272 38.064V23.616L93.68 23.64L86.6 38.112C86.424 38.416 86.152 38.568 85.784 38.568C85.384 38.568 85.096 38.376 84.92 37.992L77.792 23.736L78.272 23.616V38.064C78.272 38.32 78.176 38.544 77.984 38.736C77.808 38.912 77.592 39 77.336 39ZM105.499 39.12C104.267 39.12 103.163 38.832 102.187 38.256C101.211 37.664 100.435 36.864 99.8587 35.856C99.2987 34.848 99.0187 33.712 99.0187 32.448C99.0187 31.168 99.3067 30.024 99.8827 29.016C100.475 28.008 101.275 27.216 102.283 26.64C103.291 26.048 104.427 25.752 105.691 25.752C106.955 25.752 108.083 26.048 109.075 26.64C110.083 27.216 110.875 28.008 111.451 29.016C112.043 30.024 112.347 31.168 112.363 32.448L111.619 33.024C111.619 34.176 111.347 35.216 110.803 36.144C110.275 37.056 109.547 37.784 108.619 38.328C107.707 38.856 106.667 39.12 105.499 39.12ZM105.691 37.44C106.619 37.44 107.443 37.224 108.163 36.792C108.899 36.36 109.475 35.768 109.891 35.016C110.323 34.248 110.539 33.392 110.539 32.448C110.539 31.488 110.323 30.632 109.891 29.88C109.475 29.128 108.899 28.536 108.163 28.104C107.443 27.656 106.619 27.432 105.691 27.432C104.779 27.432 103.955 27.656 103.219 28.104C102.483 28.536 101.899 29.128 101.467 29.88C101.035 30.632 100.819 31.488 100.819 32.448C100.819 33.392 101.035 34.248 101.467 35.016C101.899 35.768 102.483 36.36 103.219 36.792C103.955 37.224 104.779 37.44 105.691 37.44ZM111.427 39C111.155 39 110.931 38.92 110.755 38.76C110.579 38.584 110.491 38.36 110.491 38.088V33.984L110.947 32.088L112.363 32.448V38.088C112.363 38.36 112.275 38.584 112.099 38.76C111.923 38.92 111.699 39 111.427 39ZM121.093 39C120.245 39 119.485 38.8 118.813 38.4C118.157 38 117.637 37.456 117.253 36.768C116.869 36.064 116.677 35.264 116.677 34.368V22.632C116.677 22.36 116.757 22.136 116.917 21.96C117.093 21.784 117.317 21.696 117.589 21.696C117.861 21.696 118.085 21.784 118.261 21.96C118.437 22.136 118.525 22.36 118.525 22.632V34.368C118.525 35.184 118.765 35.856 119.245 36.384C119.725 36.896 120.341 37.152 121.093 37.152H121.741C121.997 37.152 122.205 37.24 122.365 37.416C122.525 37.592 122.605 37.816 122.605 38.088C122.605 38.36 122.509 38.584 122.317 38.76C122.125 38.92 121.885 39 121.597 39H121.093ZM115.117 27.96C114.877 27.96 114.677 27.888 114.517 27.744C114.357 27.584 114.277 27.392 114.277 27.168C114.277 26.928 114.357 26.736 114.517 26.592C114.677 26.432 114.877 26.352 115.117 26.352H121.237C121.477 26.352 121.677 26.432 121.837 26.592C121.997 26.736 122.077 26.928 122.077 27.168C122.077 27.392 121.997 27.584 121.837 27.744C121.677 27.888 121.477 27.96 121.237 27.96H115.117ZM136.869 39C136.597 39 136.373 38.912 136.197 38.736C136.021 38.56 135.933 38.344 135.933 38.088V31.848C135.933 30.856 135.741 30.04 135.357 29.4C134.989 28.76 134.477 28.28 133.821 27.96C133.181 27.64 132.453 27.48 131.637 27.48C130.853 27.48 130.141 27.632 129.501 27.936C128.877 28.24 128.381 28.656 128.013 29.184C127.645 29.712 127.461 30.312 127.461 30.984H126.141C126.173 29.976 126.445 29.08 126.957 28.296C127.469 27.496 128.149 26.872 128.997 26.424C129.845 25.96 130.789 25.728 131.829 25.728C132.965 25.728 133.981 25.968 134.877 26.448C135.773 26.912 136.477 27.6 136.989 28.512C137.517 29.424 137.781 30.536 137.781 31.848V38.088C137.781 38.344 137.693 38.56 137.517 38.736C137.341 38.912 137.125 39 136.869 39ZM126.549 39C126.261 39 126.029 38.92 125.853 38.76C125.693 38.584 125.613 38.36 125.613 38.088V26.808C125.613 26.52 125.693 26.296 125.853 26.136C126.029 25.96 126.261 25.872 126.549 25.872C126.821 25.872 127.037 25.96 127.197 26.136C127.373 26.296 127.461 26.52 127.461 26.808V38.088C127.461 38.36 127.373 38.584 127.197 38.76C127.037 38.92 126.821 39 126.549 39ZM126.549 33.648C126.261 33.648 126.029 33.56 125.853 33.384C125.693 33.208 125.613 32.984 125.613 32.712V21.192C125.613 20.904 125.693 20.68 125.853 20.52C126.029 20.344 126.261 20.256 126.549 20.256C126.821 20.256 127.037 20.344 127.197 20.52C127.373 20.68 127.461 20.904 127.461 21.192V32.712C127.461 32.984 127.373 33.208 127.197 33.384C127.037 33.56 126.821 33.648 126.549 33.648Z" fill="black"/>
</svg>
