<svg width="214" height="118" viewBox="0 0 214 118" fill="none" xmlns="http://www.w3.org/2000/svg">
<path d="M164.87 23H162.87C162.265 23.0238 161.663 22.9102 161.109 22.6677C160.555 22.4252 160.063 22.0602 159.67 21.6C147.47 8.4 129 0 108.27 0C87.54 0 69 8.5 56.77 21.7C56.3524 22.1499 55.839 22.5003 55.2679 22.7253C54.6967 22.9503 54.0823 23.0442 53.47 23C52.27 22.9 50.97 22.9 49.77 22.9C22.67 22.9 0.77002 41.4 0.77002 64.3C0.77002 87.2 22.67 105.7 49.77 105.7C54.3827 105.691 58.9793 105.154 63.47 104.1C64.0462 103.946 64.6491 103.92 65.2364 104.024C65.8238 104.127 66.3813 104.358 66.87 104.7C78.9763 113.033 93.3113 117.528 108.008 117.6C122.705 117.671 137.083 113.315 149.27 105.1C149.725 104.767 150.245 104.533 150.796 104.412C151.347 104.291 151.917 104.287 152.47 104.4C156.538 105.326 160.697 105.796 164.87 105.8C191.97 105.8 213.87 87.3 213.87 64.4C213.87 41.5 192 23 164.87 23Z" fill="white"/>
<g opacity="0.3">
<path opacity="0.3" d="M195.87 82.4301C203.57 82.4301 203.57 70.4301 195.87 70.4301C188.17 70.4301 188.17 82.4301 195.87 82.4301Z" fill="#19A2DC"/>
</g>
<g opacity="0.3">
<path opacity="0.3" d="M192 89.6C191.384 90.2237 190.715 90.7926 190 91.3C189.391 91.7988 188.757 92.2661 188.1 92.7C186.8 93.6 185.4 94.4 184.1 95.2C181.371 96.6809 178.487 97.8548 175.5 98.7C174.023 99.1283 172.52 99.4623 171 99.7C170.238 99.8163 169.47 99.8831 168.7 99.9C168.3 99.9 167.9 100 167.6 100H166.5C163.533 99.9917 160.578 99.6223 157.7 98.9C160.595 99.0023 163.489 98.6994 166.3 98L167.3 97.8C167.6 97.7 168 97.6 168.3 97.5C168.981 97.3115 169.65 97.0777 170.3 96.8C171.6 96.2 172.9 95.7 174.1 95C176.534 93.6999 178.786 92.0861 180.8 90.2C181.816 89.284 182.784 88.3161 183.7 87.3C184.1 86.8 184.6 86.3 185 85.8C185.4 85.3 185.8 84.7 186.1 84.3C186.644 83.385 187.529 82.7235 188.56 82.4609C189.591 82.1984 190.685 82.3563 191.6 82.9C192.515 83.4437 193.176 84.3286 193.439 85.3601C193.702 86.3915 193.544 87.485 193 88.4C192.824 88.6842 192.624 88.952 192.4 89.2L192 89.6Z" fill="#19A2DC"/>
</g>
<path d="M41.0901 76L40.9301 52.38L55.7501 60.9L55.0001 50.54L65.0001 50L65.84 75.67L50.3001 68.53L50.5801 75.93L41.0901 76Z" fill="#E7F4F5" stroke="#E7F4F5" stroke-width="11" stroke-linecap="round" stroke-linejoin="round"/>
<path d="M78.9 76C77.0981 75.8651 75.3425 75.3649 73.74 74.53C72.2474 73.7656 70.9269 72.7039 69.86 71.41C68.7815 70.0928 67.9977 68.5598 67.5612 66.9142C67.1248 65.2686 67.046 63.5486 67.33 61.87C67.6108 60.0868 68.2651 58.3829 69.25 56.87C70.705 54.5434 72.7703 52.6605 75.2212 51.4263C77.672 50.1921 80.4145 49.6538 83.15 49.87C84.9545 50.0013 86.7134 50.4981 88.32 51.33C89.8192 52.0931 91.1438 53.1589 92.21 54.46C93.2689 55.7447 94.0396 57.2418 94.47 58.85C94.929 60.5277 95.0144 62.2857 94.72 64C94.4418 65.7808 93.7947 67.4839 92.82 69C91.8548 70.5106 90.6291 71.8378 89.2 72.92C86.2801 75.2131 82.5994 76.3137 78.9 76ZM75.71 62.6C75.5914 63.2665 75.6195 63.9508 75.7921 64.6053C75.9648 65.2598 76.2781 65.8688 76.71 66.39C77.1554 66.9248 77.7053 67.363 78.3261 67.6777C78.9469 67.9923 79.6254 68.1769 80.32 68.22C81.7886 68.346 83.2504 67.91 84.41 67C84.9934 66.5879 85.4886 66.0633 85.8664 65.4571C86.2442 64.8509 86.497 64.1753 86.61 63.47C86.7384 62.8053 86.7152 62.1202 86.542 61.4657C86.3689 60.8113 86.0503 60.2043 85.61 59.69C85.1742 59.1445 84.6264 58.6988 84.0037 58.3831C83.3809 58.0674 82.6976 57.889 82 57.86C80.5295 57.7307 79.0646 58.163 77.9 59.07C76.7318 59.9107 75.9443 61.18 75.71 62.6Z" fill="#E7F4F5" stroke="#E7F4F5" stroke-width="11" stroke-linecap="round" stroke-linejoin="round"/>
<path d="M93.7001 50.21L115 49.15L115.27 56.24L108.01 56.69L108.52 75.13L99.9401 75.46L99.8501 57.19L94.0001 57.54L93.7001 50.21Z" fill="#E7F4F5" stroke="#E7F4F5" stroke-width="11" stroke-linecap="round" stroke-linejoin="round"/>
<path d="M116.91 75.1L116.64 50L125.79 50.18L125.15 75.1H116.91Z" fill="#E7F4F5" stroke="#E7F4F5" stroke-width="11" stroke-linecap="round" stroke-linejoin="round"/>
<path d="M149.5 72.36C146.626 74.5655 143.012 75.579 139.41 75.19C135.843 74.8387 132.551 73.1224 130.22 70.4C129.108 69.1138 128.264 67.6176 127.74 66C127.2 64.3439 127.019 62.5915 127.21 60.86C127.4 59.1478 127.941 57.4933 128.8 56C129.658 54.5295 130.796 53.2418 132.15 52.21C133.554 51.1159 135.16 50.3099 136.876 49.8379C138.592 49.366 140.384 49.2376 142.15 49.46C145.242 49.7513 148.144 51.0841 150.38 53.24L147 58.44C146.052 57.6967 144.91 57.242 143.71 57.13C142.157 56.9227 140.584 57.324 139.32 58.25C138.718 58.657 138.212 59.1904 137.837 59.813C137.462 60.4355 137.228 61.1323 137.15 61.8548C137.072 62.5773 137.152 63.3081 137.385 63.9963C137.618 64.6846 137.999 65.3137 138.5 65.84C139.55 66.9985 141.002 67.7136 142.56 67.84C143.958 68.0189 145.374 67.7003 146.56 66.94L149.5 72.36Z" fill="#E7F4F5" stroke="#E7F4F5" stroke-width="11" stroke-linecap="round" stroke-linejoin="round"/>
<path d="M169.83 75.5999L152.27 75.8099L152.33 49.7199L170.17 49.1899L170.44 56.4799L160.44 56.2899L160.56 59.2899H165.71L166 65.9199L160.68 65.5199L160.76 68.6599H169.58L169.83 75.5999Z" fill="#E7F4F5" stroke="#E7F4F5" stroke-width="11" stroke-linecap="round" stroke-linejoin="round"/>
<path d="M41.0901 75L40.9301 51.38L55.7501 59.9L55.0001 49.54L65.0001 49L65.84 74.67L50.3001 67.53L50.5801 74.93L41.0901 75Z" fill="#1A7ABE"/>
<path d="M78.9 75C77.0981 74.8651 75.3425 74.3649 73.74 73.53C72.2474 72.7656 70.9269 71.7039 69.86 70.41C68.7815 69.0928 67.9977 67.5598 67.5612 65.9142C67.1248 64.2686 67.046 62.5486 67.33 60.87C67.6108 59.0868 68.2651 57.3829 69.25 55.87C70.705 53.5434 72.7703 51.6605 75.2212 50.4263C77.672 49.1921 80.4145 48.6538 83.15 48.87C84.9545 49.0013 86.7134 49.4981 88.32 50.33C89.8192 51.0931 91.1438 52.1589 92.21 53.46C93.2689 54.7447 94.0396 56.2418 94.47 57.85C94.929 59.5277 95.0144 61.2857 94.72 63C94.4418 64.7808 93.7947 66.4839 92.82 68C91.8548 69.5106 90.6291 70.8378 89.2 71.92C86.2801 74.2131 82.5994 75.3137 78.9 75ZM75.71 61.6C75.5914 62.2665 75.6195 62.9508 75.7921 63.6053C75.9648 64.2598 76.2781 64.8688 76.71 65.39C77.1554 65.9248 77.7053 66.363 78.3261 66.6777C78.9469 66.9923 79.6254 67.1769 80.32 67.22C81.7886 67.346 83.2504 66.91 84.41 66C84.9934 65.5879 85.4886 65.0633 85.8664 64.4571C86.2442 63.8509 86.497 63.1753 86.61 62.47C86.7384 61.8053 86.7152 61.1202 86.542 60.4657C86.3689 59.8113 86.0503 59.2043 85.61 58.69C85.1742 58.1445 84.6264 57.6988 84.0037 57.3831C83.3809 57.0674 82.6976 56.889 82 56.86C80.5295 56.7307 79.0646 57.163 77.9 58.07C76.7318 58.9107 75.9443 60.18 75.71 61.6Z" fill="#1A7ABE"/>
<path d="M93.7001 49.21L115 48.15L115.27 55.24L108.01 55.69L108.52 74.13L99.9401 74.46L99.8501 56.19L94.0001 56.54L93.7001 49.21Z" fill="#1A7ABE"/>
<path d="M116.91 74.1L116.64 49L125.79 49.18L125.15 74.1H116.91Z" fill="#1A7ABE"/>
<path d="M149.5 71.36C146.626 73.5655 143.012 74.579 139.41 74.19C135.843 73.8387 132.551 72.1224 130.22 69.4C129.108 68.1138 128.264 66.6176 127.74 65C127.2 63.3439 127.019 61.5915 127.21 59.86C127.4 58.1478 127.941 56.4933 128.8 55C129.658 53.5295 130.796 52.2418 132.15 51.21C133.554 50.1159 135.16 49.3099 136.876 48.8379C138.592 48.366 140.384 48.2376 142.15 48.46C145.242 48.7513 148.144 50.0841 150.38 52.24L147 57.44C146.052 56.6967 144.91 56.242 143.71 56.13C142.157 55.9227 140.584 56.324 139.32 57.25C138.718 57.657 138.212 58.1904 137.837 58.813C137.462 59.4355 137.228 60.1323 137.15 60.8548C137.072 61.5773 137.152 62.3081 137.385 62.9963C137.618 63.6846 137.999 64.3137 138.5 64.84C139.55 65.9985 141.002 66.7136 142.56 66.84C143.958 67.0189 145.374 66.7003 146.56 65.94L149.5 71.36Z" fill="#1A7ABE"/>
<path d="M169.83 74.5999L152.27 74.8099L152.33 48.7199L170.17 48.1899L170.44 55.4799L160.44 55.2899L160.56 58.2899H165.71L166 64.9199L160.68 64.5199L160.76 67.6599H169.58L169.83 74.5999Z" fill="#1A7ABE"/>
<path d="M41.0901 77L40.9301 53.38L55.7501 61.9L55.0001 51.54L65.0001 51L65.84 76.67L50.3001 69.53L50.5801 76.93L41.0901 77Z" fill="#19A2DC"/>
<path d="M78.9 77C77.0981 76.8651 75.3425 76.3649 73.74 75.53C72.2474 74.7656 70.9269 73.7039 69.86 72.41C68.7815 71.0928 67.9977 69.5598 67.5612 67.9142C67.1248 66.2686 67.046 64.5486 67.33 62.87C67.6108 61.0868 68.2651 59.3829 69.25 57.87C70.705 55.5434 72.7703 53.6605 75.2212 52.4263C77.672 51.1921 80.4145 50.6538 83.15 50.87C84.9545 51.0013 86.7134 51.4981 88.32 52.33C89.8192 53.0931 91.1438 54.1589 92.21 55.46C93.2689 56.7447 94.0396 58.2418 94.47 59.85C94.929 61.5277 95.0144 63.2857 94.72 65C94.4418 66.7808 93.7947 68.4839 92.82 70C91.8548 71.5106 90.6291 72.8378 89.2 73.92C86.2801 76.2131 82.5994 77.3137 78.9 77ZM75.71 63.6C75.5914 64.2665 75.6195 64.9508 75.7921 65.6053C75.9648 66.2598 76.2781 66.8688 76.71 67.39C77.1554 67.9248 77.7053 68.363 78.3261 68.6777C78.9469 68.9923 79.6254 69.1769 80.32 69.22C81.7886 69.346 83.2504 68.91 84.41 68C84.9934 67.5879 85.4886 67.0633 85.8664 66.4571C86.2442 65.8509 86.497 65.1753 86.61 64.47C86.7384 63.8053 86.7152 63.1202 86.542 62.4657C86.3689 61.8113 86.0503 61.2043 85.61 60.69C85.1742 60.1445 84.6264 59.6988 84.0037 59.3831C83.3809 59.0674 82.6976 58.889 82 58.86C80.5295 58.7307 79.0646 59.163 77.9 60.07C76.7318 60.9107 75.9443 62.18 75.71 63.6Z" fill="#19A2DC"/>
<path d="M93.7001 51.21L115 50.15L115.27 57.24L108.01 57.69L108.52 76.13L99.9401 76.46L99.8501 58.19L94.0001 58.54L93.7001 51.21Z" fill="#19A2DC"/>
<path d="M116.91 76.1L116.64 51L125.79 51.18L125.15 76.1H116.91Z" fill="#19A2DC"/>
<path d="M149.5 73.36C146.626 75.5655 143.012 76.579 139.41 76.19C135.843 75.8387 132.551 74.1224 130.22 71.4C129.108 70.1138 128.264 68.6176 127.74 67C127.2 65.3439 127.019 63.5915 127.21 61.86C127.4 60.1478 127.941 58.4933 128.8 57C129.658 55.5295 130.796 54.2418 132.15 53.21C133.554 52.1159 135.16 51.3099 136.876 50.8379C138.592 50.366 140.384 50.2376 142.15 50.46C145.242 50.7513 148.144 52.0841 150.38 54.24L147 59.44C146.052 58.6967 144.91 58.242 143.71 58.13C142.157 57.9227 140.584 58.324 139.32 59.25C138.718 59.657 138.212 60.1904 137.837 60.813C137.462 61.4355 137.228 62.1323 137.15 62.8548C137.072 63.5773 137.152 64.3081 137.385 64.9963C137.618 65.6846 137.999 66.3137 138.5 66.84C139.55 67.9985 141.002 68.7136 142.56 68.84C143.958 69.0189 145.374 68.7003 146.56 67.94L149.5 73.36Z" fill="#19A2DC"/>
<path d="M169.83 76.5999L152.27 76.8099L152.33 50.7199L170.17 50.1899L170.44 57.4799L160.44 57.2899L160.56 60.2899H165.71L166 66.9199L160.68 66.5199L160.76 69.6599H169.58L169.83 76.5999Z" fill="#19A2DC"/>
</svg>
