<svg width="221" height="70" viewBox="0 0 221 70" fill="none" xmlns="http://www.w3.org/2000/svg">
<path d="M212.904 70H8.09631C3.6983 70 0 65.5262 0 59.934V16.066C0 10.598 3.59835 6 8.09631 6H212.904C217.302 6 221 10.4738 221 16.066V59.934C220.9 65.5262 217.302 70 212.904 70Z" fill="#F2AD00"/>
<path d="M79.8 45.7C79.6 45.7 79.4001 45.6 79.2001 45.5C79.1001 45.4 79 45.2 79 44.9V30.8C79 30.6 79.1001 30.4 79.2001 30.2C79.3001 30.1 79.5 30 79.8 30H83.8C84.8 30 85.7 30.2 86.4 30.6C87.2 31 87.8001 31.6 88.2001 32.4C88.6001 33.2 88.8 34 88.8 35C88.8 36 88.6001 36.8 88.2001 37.6C87.8001 38.4 87.2 38.9 86.4 39.4C85.6 39.8 84.8 40 83.8 40H80.6001V44.7C80.6001 44.9 80.5 45.1 80.4 45.3C80.2 45.6 80.1 45.7 79.8 45.7ZM80.6001 38.7H83.8C84.5 38.7 85.1001 38.6 85.6001 38.2C86.1001 37.9 86.6 37.5 86.9 36.9C87.2 36.4 87.4 35.8 87.4 35.1C87.4 34.4 87.3 33.8 86.9 33.2C86.6 32.7 86.2001 32.2 85.6001 31.9C85.1001 31.6 84.5 31.4 83.8 31.4H80.6001V38.7Z" fill="#FFDD17"/>
<path d="M91.8 45.7C91.6 45.7 91.4001 45.6 91.2001 45.5C91.1001 45.4 91 45.2 91 44.9V35.5C91 35.3 91.1001 35.1 91.2001 34.9C91.3001 34.8 91.5 34.7 91.8 34.7C92 34.7 92.2 34.8 92.4 34.9C92.5 35 92.6001 35.2 92.6001 35.5V44.9C92.6001 45.1 92.5 45.3 92.4 45.5C92.3 45.7 92.1 45.7 91.8 45.7ZM91.7001 39C91.7001 38.2 92 37.4 92.3 36.8C92.6 36.2 93.2 35.6 93.8 35.3C94.4 34.9 95.1 34.7 95.9 34.7C96.5 34.7 97 34.8 97.3 35C97.6 35.2 97.8001 35.4 97.7001 35.8C97.6001 36 97.6 36.1 97.4 36.2C97.3 36.3 97.1 36.3 96.9 36.3C96.7 36.3 96.5 36.3 96.3 36.3C95.6 36.2 94.9 36.3 94.3 36.5C93.7 36.7 93.3 37.1 92.9 37.5C92.5 37.9 92.4 38.5 92.4 39.1H91.7001V39Z" fill="#FFDD17"/>
<path d="M105.2 45.8C104.1 45.8 103.2 45.6 102.3 45.1C101.4 44.6 100.8 44 100.3 43.1C99.8 42.3 99.6001 41.3 99.6001 40.2C99.6001 39.1 99.8 38.2 100.3 37.3C100.8 36.5 101.4 35.8 102.3 35.3C103.2 34.8 104.1 34.6 105.2 34.6C106.3 34.6 107.2 34.8 108 35.3C108.8 35.8 109.5 36.4 110 37.3C110.5 38.1 110.7 39.1 110.7 40.2C110.7 41.3 110.5 42.2 110 43.1C109.5 43.9 108.9 44.6 108 45.1C107.1 45.6 106.3 45.8 105.2 45.8ZM105.2 44.4C106 44.4 106.7 44.2 107.3 43.9C107.9 43.5 108.4 43 108.7 42.4C109 41.8 109.2 41.1 109.2 40.3C109.2 39.5 109 38.8 108.7 38.2C108.4 37.6 107.9 37.1 107.3 36.7C106.7 36.3 106 36.2 105.2 36.2C104.4 36.2 103.7 36.4 103.1 36.7C102.5 37 102 37.6 101.6 38.2C101.2 38.8 101.1 39.6 101.1 40.3C101.1 41 101.3 41.8 101.6 42.4C102 43 102.4 43.5 103.1 43.9C103.8 44.2 104.5 44.4 105.2 44.4Z" fill="#FFDD17"/>
<path d="M113.1 36.5C112.9 36.5 112.7 36.4 112.6 36.3C112.5 36.2 112.4 36 112.4 35.8C112.4 35.6 112.5 35.4 112.6 35.3C112.7 35.2 112.9 35.1 113.1 35.1H118.3C118.5 35.1 118.7 35.2 118.8 35.3C118.9 35.4 119 35.6 119 35.8C119 36 118.9 36.1 118.8 36.3C118.7 36.4 118.5 36.5 118.3 36.5H113.1ZM115.2 45.7C115 45.7 114.8 45.6 114.7 45.5C114.6 45.4 114.5 45.2 114.5 44.9V34.6C114.5 33.7 114.7 32.9 115 32.2C115.3 31.5 115.8 31 116.5 30.6C117.2 30.2 118.1 30 119.3 30C119.8 30 120.3 30.1 120.8 30.2C121.3 30.3 121.7 30.5 122 30.7C122.3 30.9 122.5 31.2 122.5 31.5C122.5 32.1 122.2 32.4 121.5 32.4C121.3 32.4 121.1 32.3 120.9 32.2C120.7 32.1 120.5 32 120.3 31.8C120.1 31.6 119.9 31.5 119.7 31.4C119.5 31.3 119.2 31.2 118.9 31.2C118.4 31.2 117.9 31.3 117.5 31.5C117.1 31.7 116.8 32.1 116.5 32.6C116.2 33.1 116.2 33.8 116.2 34.6V44.9C116.2 45.1 116.1 45.3 116 45.5C115.6 45.6 115.4 45.7 115.2 45.7ZM121.4 45.7C121.2 45.7 121 45.6 120.8 45.5C120.7 45.4 120.6 45.2 120.6 44.9V35.5C120.6 35.3 120.7 35.1 120.8 34.9C120.9 34.8 121.1 34.7 121.4 34.7C121.6 34.7 121.8 34.8 121.9 34.9C122 35 122.1 35.2 122.1 35.5V44.9C122.1 45.1 122 45.3 121.9 45.5C121.8 45.7 121.6 45.7 121.4 45.7Z" fill="#FFDD17"/>
<path d="M128.3 45.7C127.8 45.7 127.3 45.6 126.9 45.3C126.5 45 126.2 44.6 125.9 44.1C125.6 43.6 125.6 43 125.6 42.3V30.9C125.6 30.7 125.7 30.5 125.8 30.3C125.9 30.2 126.1 30.1 126.3 30.1C126.5 30.1 126.7 30.2 126.8 30.3C126.9 30.4 127 30.6 127 30.9V42.3C127 42.9 127.1 43.3 127.3 43.7C127.5 44.1 127.8 44.2 128.2 44.2H128.7C128.9 44.2 129.1 44.3 129.2 44.4C129.3 44.5 129.4 44.7 129.4 45C129.4 45.3 129.3 45.4 129.1 45.5C128.9 45.6 128.7 45.7 128.4 45.7H128.3Z" fill="#FFDD17"/>
<path d="M136.5 45.8C135.4 45.8 134.5 45.6 133.6 45.1C132.7 44.6 132.1 44 131.6 43.1C131.1 42.3 130.9 41.3 130.9 40.2C130.9 39.1 131.1 38.1 131.6 37.3C132 36.5 132.7 35.8 133.5 35.3C134.3 34.8 135.2 34.6 136.2 34.6C137.2 34.6 138.1 34.8 138.9 35.3C139.7 35.8 140.2 36.4 140.7 37.2C141.1 38 141.3 38.9 141.3 40C141.3 40.2 141.2 40.4 141.1 40.5C141 40.6 140.8 40.7 140.6 40.7H132.1V39.4H140.8L139.9 40C139.9 39.2 139.8 38.5 139.5 37.9C139.2 37.3 138.8 36.8 138.2 36.5C137.7 36.2 137 36 136.3 36C135.5 36 134.9 36.2 134.3 36.5C133.7 36.9 133.3 37.4 133 38C132.7 38.6 132.5 39.4 132.5 40.2C132.5 41 132.7 41.7 133 42.4C133.4 43 133.8 43.5 134.4 43.9C135 44.3 135.7 44.4 136.5 44.4C137 44.4 137.5 44.3 138 44.1C138.5 43.9 138.9 43.7 139.2 43.5C139.3 43.4 139.5 43.3 139.7 43.3C139.9 43.3 140 43.3 140.2 43.4C140.4 43.6 140.5 43.7 140.5 43.9C140.5 44.1 140.4 44.2 140.3 44.4C139.9 44.8 139.3 45.1 138.6 45.3C137.8 45.7 137.1 45.8 136.5 45.8Z" fill="#FFDD17"/>
<path d="M212.904 64H8.09631C3.6983 64 0 59.5262 0 53.934V10.066C0 4.59805 3.59835 0 8.09631 0H212.904C217.302 0 221 4.47377 221 10.066V53.934C220.9 59.5262 217.302 64 212.904 64Z" fill="white"/>
<path d="M79.8 39.7C79.6 39.7 79.4001 39.6 79.2001 39.5C79.1001 39.4 79 39.2 79 38.9V24.8C79 24.6 79.1001 24.4 79.2001 24.2C79.3001 24.1 79.5 24 79.8 24H83.8C84.8 24 85.7 24.2 86.4 24.6C87.2 25 87.8001 25.6 88.2001 26.4C88.6001 27.2 88.8 28 88.8 29C88.8 30 88.6001 30.8 88.2001 31.6C87.8001 32.4 87.2 32.9 86.4 33.4C85.6 33.8 84.8 34 83.8 34H80.6001V38.7C80.6001 38.9 80.5 39.1 80.4 39.3C80.2 39.6 80.1 39.7 79.8 39.7ZM80.6001 32.7H83.8C84.5 32.7 85.1001 32.6 85.6001 32.2C86.1001 31.9 86.6 31.5 86.9 30.9C87.2 30.4 87.4 29.8 87.4 29.1C87.4 28.4 87.3 27.8 86.9 27.2C86.6 26.7 86.2001 26.2 85.6001 25.9C85.1001 25.6 84.5 25.4 83.8 25.4H80.6001V32.7Z" fill="black"/>
<path d="M91.8 39.7C91.6 39.7 91.4001 39.6 91.2001 39.5C91.1001 39.4 91 39.2 91 38.9V29.5C91 29.3 91.1001 29.1 91.2001 28.9C91.3001 28.8 91.5 28.7 91.8 28.7C92 28.7 92.2 28.8 92.4 28.9C92.5 29 92.6001 29.2 92.6001 29.5V38.9C92.6001 39.1 92.5 39.3 92.4 39.5C92.3 39.7 92.1 39.7 91.8 39.7ZM91.7001 33C91.7001 32.2 92 31.4 92.3 30.8C92.6 30.2 93.2 29.6 93.8 29.3C94.4 28.9 95.1 28.7 95.9 28.7C96.5 28.7 97 28.8 97.3 29C97.6 29.2 97.8001 29.4 97.7001 29.8C97.6001 30 97.6 30.1 97.4 30.2C97.3 30.3 97.1 30.3 96.9 30.3C96.7 30.3 96.5 30.3 96.3 30.3C95.6 30.2 94.9 30.3 94.3 30.5C93.7 30.7 93.3 31.1 92.9 31.5C92.5 31.9 92.4 32.5 92.4 33.1H91.7001V33Z" fill="black"/>
<path d="M105.2 39.8C104.1 39.8 103.2 39.6 102.3 39.1C101.4 38.6 100.8 38 100.3 37.1C99.8 36.3 99.6001 35.3 99.6001 34.2C99.6001 33.1 99.8 32.2 100.3 31.3C100.8 30.5 101.4 29.8 102.3 29.3C103.2 28.8 104.1 28.6 105.2 28.6C106.3 28.6 107.2 28.8 108 29.3C108.8 29.8 109.5 30.4 110 31.3C110.5 32.1 110.7 33.1 110.7 34.2C110.7 35.3 110.5 36.2 110 37.1C109.5 37.9 108.9 38.6 108 39.1C107.1 39.6 106.3 39.8 105.2 39.8ZM105.2 38.4C106 38.4 106.7 38.2 107.3 37.9C107.9 37.5 108.4 37 108.7 36.4C109 35.8 109.2 35.1 109.2 34.3C109.2 33.5 109 32.8 108.7 32.2C108.4 31.6 107.9 31.1 107.3 30.7C106.7 30.3 106 30.2 105.2 30.2C104.4 30.2 103.7 30.4 103.1 30.7C102.5 31 102 31.6 101.6 32.2C101.2 32.8 101.1 33.6 101.1 34.3C101.1 35 101.3 35.8 101.6 36.4C102 37 102.4 37.5 103.1 37.9C103.8 38.2 104.5 38.4 105.2 38.4Z" fill="black"/>
<path d="M113.1 30.5C112.9 30.5 112.7 30.4 112.6 30.3C112.5 30.2 112.4 30 112.4 29.8C112.4 29.6 112.5 29.4 112.6 29.3C112.7 29.2 112.9 29.1 113.1 29.1H118.3C118.5 29.1 118.7 29.2 118.8 29.3C118.9 29.4 119 29.6 119 29.8C119 30 118.9 30.1 118.8 30.3C118.7 30.4 118.5 30.5 118.3 30.5H113.1ZM115.2 39.7C115 39.7 114.8 39.6 114.7 39.5C114.6 39.4 114.5 39.2 114.5 38.9V28.6C114.5 27.7 114.7 26.9 115 26.2C115.3 25.5 115.8 25 116.5 24.6C117.2 24.2 118.1 24 119.3 24C119.8 24 120.3 24.1 120.8 24.2C121.3 24.3 121.7 24.5 122 24.7C122.3 24.9 122.5 25.2 122.5 25.5C122.5 26.1 122.2 26.4 121.5 26.4C121.3 26.4 121.1 26.3 120.9 26.2C120.7 26.1 120.5 26 120.3 25.8C120.1 25.6 119.9 25.5 119.7 25.4C119.5 25.3 119.2 25.2 118.9 25.2C118.4 25.2 117.9 25.3 117.5 25.5C117.1 25.7 116.8 26.1 116.5 26.6C116.2 27.1 116.2 27.8 116.2 28.6V38.9C116.2 39.1 116.1 39.3 116 39.5C115.6 39.6 115.4 39.7 115.2 39.7ZM121.4 39.7C121.2 39.7 121 39.6 120.8 39.5C120.7 39.4 120.6 39.2 120.6 38.9V29.5C120.6 29.3 120.7 29.1 120.8 28.9C120.9 28.8 121.1 28.7 121.4 28.7C121.6 28.7 121.8 28.8 121.9 28.9C122 29 122.1 29.2 122.1 29.5V38.9C122.1 39.1 122 39.3 121.9 39.5C121.8 39.7 121.6 39.7 121.4 39.7Z" fill="black"/>
<path d="M128.3 39.7C127.8 39.7 127.3 39.6 126.9 39.3C126.5 39 126.2 38.6 125.9 38.1C125.6 37.6 125.6 37 125.6 36.3V24.9C125.6 24.7 125.7 24.5 125.8 24.3C125.9 24.2 126.1 24.1 126.3 24.1C126.5 24.1 126.7 24.2 126.8 24.3C126.9 24.4 127 24.6 127 24.9V36.3C127 36.9 127.1 37.3 127.3 37.7C127.5 38.1 127.8 38.2 128.2 38.2H128.7C128.9 38.2 129.1 38.3 129.2 38.4C129.3 38.5 129.4 38.7 129.4 39C129.4 39.3 129.3 39.4 129.1 39.5C128.9 39.6 128.7 39.7 128.4 39.7H128.3V39.7Z" fill="black"/>
<path d="M136.5 39.8C135.4 39.8 134.5 39.6 133.6 39.1C132.7 38.6 132.1 38 131.6 37.1C131.1 36.3 130.9 35.3 130.9 34.2C130.9 33.1 131.1 32.1 131.6 31.3C132 30.5 132.7 29.8 133.5 29.3C134.3 28.8 135.2 28.6 136.2 28.6C137.2 28.6 138.1 28.8 138.9 29.3C139.7 29.8 140.2 30.4 140.7 31.2C141.1 32 141.3 32.9 141.3 34C141.3 34.2 141.2 34.4 141.1 34.5C141 34.6 140.8 34.7 140.6 34.7H132.1V33.4H140.8L139.9 34C139.9 33.2 139.8 32.5 139.5 31.9C139.2 31.3 138.8 30.8 138.2 30.5C137.7 30.2 137 30 136.3 30C135.5 30 134.9 30.2 134.3 30.5C133.7 30.9 133.3 31.4 133 32C132.7 32.6 132.5 33.4 132.5 34.2C132.5 35 132.7 35.7 133 36.4C133.4 37 133.8 37.5 134.4 37.9C135 38.3 135.7 38.4 136.5 38.4C137 38.4 137.5 38.3 138 38.1C138.5 37.9 138.9 37.7 139.2 37.5C139.3 37.4 139.5 37.3 139.7 37.3C139.9 37.3 140 37.3 140.2 37.4C140.4 37.6 140.5 37.7 140.5 37.9C140.5 38.1 140.4 38.2 140.3 38.4C139.9 38.8 139.3 39.1 138.6 39.3C137.8 39.7 137.1 39.8 136.5 39.8Z" fill="black"/>
</svg>
