<svg width="213" height="71" viewBox="0 0 213 71" fill="none" xmlns="http://www.w3.org/2000/svg">
<rect y="7" width="213" height="64" rx="12" fill="#1A7ABE"/>
<rect width="213" height="64" rx="12" fill="white"/>
<path d="M66.16 39.24C65.136 39.24 64.184 39.096 63.304 38.808C62.44 38.504 61.688 38.08 61.048 37.536C60.408 36.992 59.92 36.36 59.584 35.64C59.456 35.384 59.448 35.152 59.56 34.944C59.688 34.72 59.896 34.568 60.184 34.488C60.408 34.424 60.624 34.448 60.832 34.56C61.056 34.672 61.224 34.84 61.336 35.064C61.576 35.528 61.928 35.944 62.392 36.312C62.856 36.68 63.408 36.968 64.048 37.176C64.688 37.368 65.392 37.464 66.16 37.464C67.008 37.464 67.76 37.328 68.416 37.056C69.072 36.768 69.584 36.36 69.952 35.832C70.336 35.288 70.528 34.632 70.528 33.864C70.528 32.888 70.168 32.048 69.448 31.344C68.728 30.64 67.6 30.192 66.064 30C64.192 29.776 62.728 29.2 61.672 28.272C60.616 27.328 60.088 26.176 60.088 24.816C60.088 23.84 60.344 22.992 60.856 22.272C61.384 21.552 62.104 21 63.016 20.616C63.928 20.216 64.976 20.016 66.16 20.016C67.04 20.016 67.84 20.16 68.56 20.448C69.28 20.72 69.904 21.088 70.432 21.552C70.976 22 71.416 22.496 71.752 23.04C71.912 23.296 71.96 23.544 71.896 23.784C71.848 24.024 71.712 24.208 71.488 24.336C71.248 24.448 71 24.464 70.744 24.384C70.504 24.304 70.32 24.152 70.192 23.928C69.952 23.56 69.648 23.216 69.28 22.896C68.928 22.56 68.496 22.296 67.984 22.104C67.472 21.912 66.856 21.808 66.136 21.792C64.872 21.792 63.856 22.064 63.088 22.608C62.32 23.136 61.936 23.912 61.936 24.936C61.936 25.48 62.08 25.984 62.368 26.448C62.656 26.896 63.128 27.288 63.784 27.624C64.456 27.944 65.352 28.184 66.472 28.344C68.472 28.632 69.952 29.248 70.912 30.192C71.888 31.12 72.376 32.336 72.376 33.84C72.376 34.704 72.216 35.472 71.896 36.144C71.592 36.816 71.152 37.384 70.576 37.848C70.016 38.296 69.352 38.64 68.584 38.88C67.832 39.12 67.024 39.24 66.16 39.24ZM81.9066 39.12C80.6426 39.12 79.5146 38.832 78.5226 38.256C77.5466 37.664 76.7706 36.864 76.1946 35.856C75.6346 34.848 75.3546 33.712 75.3546 32.448C75.3546 31.168 75.6266 30.024 76.1706 29.016C76.7146 28.008 77.4586 27.216 78.4026 26.64C79.3466 26.048 80.4346 25.752 81.6666 25.752C82.6426 25.752 83.5386 25.944 84.3546 26.328C85.1866 26.712 85.9146 27.288 86.5386 28.056C86.7146 28.248 86.7786 28.456 86.7306 28.68C86.6826 28.888 86.5466 29.072 86.3226 29.232C86.1466 29.36 85.9466 29.408 85.7226 29.376C85.5146 29.328 85.3306 29.208 85.1706 29.016C84.2426 27.96 83.0746 27.432 81.6666 27.432C80.7706 27.432 79.9786 27.648 79.2906 28.08C78.6186 28.512 78.0906 29.104 77.7066 29.856C77.3386 30.608 77.1546 31.472 77.1546 32.448C77.1546 33.408 77.3546 34.264 77.7546 35.016C78.1546 35.768 78.7146 36.36 79.4346 36.792C80.1546 37.224 80.9786 37.44 81.9066 37.44C82.5306 37.44 83.0986 37.36 83.6106 37.2C84.1386 37.024 84.6026 36.76 85.0026 36.408C85.1946 36.248 85.3946 36.16 85.6026 36.144C85.8106 36.128 86.0026 36.192 86.1786 36.336C86.3706 36.512 86.4746 36.712 86.4906 36.936C86.5226 37.16 86.4506 37.352 86.2746 37.512C85.1066 38.584 83.6506 39.12 81.9066 39.12ZM91.6675 39C91.3795 39 91.1475 38.92 90.9715 38.76C90.8115 38.584 90.7315 38.352 90.7315 38.064V26.808C90.7315 26.52 90.8115 26.296 90.9715 26.136C91.1475 25.96 91.3795 25.872 91.6675 25.872C91.9395 25.872 92.1555 25.96 92.3155 26.136C92.4915 26.296 92.5795 26.52 92.5795 26.808V38.064C92.5795 38.352 92.4915 38.584 92.3155 38.76C92.1555 38.92 91.9395 39 91.6675 39ZM91.6435 23.376C91.2915 23.376 90.9875 23.248 90.7315 22.992C90.4755 22.736 90.3475 22.424 90.3475 22.056C90.3475 21.656 90.4755 21.344 90.7315 21.12C91.0035 20.88 91.3155 20.76 91.6675 20.76C92.0035 20.76 92.2995 20.88 92.5555 21.12C92.8275 21.344 92.9635 21.656 92.9635 22.056C92.9635 22.424 92.8355 22.736 92.5795 22.992C92.3235 23.248 92.0115 23.376 91.6435 23.376ZM103.237 39.12C101.941 39.12 100.789 38.84 99.781 38.28C98.789 37.704 98.005 36.912 97.429 35.904C96.869 34.896 96.589 33.744 96.589 32.448C96.589 31.136 96.853 29.984 97.381 28.992C97.925 27.984 98.669 27.192 99.613 26.616C100.557 26.04 101.645 25.752 102.877 25.752C104.093 25.752 105.149 26.032 106.045 26.592C106.957 27.136 107.661 27.896 108.157 28.872C108.653 29.848 108.901 30.96 108.901 32.208C108.901 32.464 108.821 32.672 108.661 32.832C108.501 32.976 108.293 33.048 108.037 33.048H97.837V31.512H108.229L107.197 32.256C107.213 31.328 107.045 30.496 106.693 29.76C106.341 29.024 105.837 28.448 105.181 28.032C104.541 27.616 103.773 27.408 102.877 27.408C101.965 27.408 101.165 27.624 100.477 28.056C99.789 28.488 99.253 29.088 98.869 29.856C98.501 30.608 98.317 31.472 98.317 32.448C98.317 33.424 98.525 34.288 98.941 35.04C99.373 35.792 99.957 36.384 100.693 36.816C101.429 37.248 102.277 37.464 103.237 37.464C103.813 37.464 104.389 37.368 104.965 37.176C105.557 36.968 106.029 36.712 106.381 36.408C106.557 36.264 106.757 36.192 106.981 36.192C107.205 36.176 107.397 36.232 107.557 36.36C107.765 36.552 107.869 36.76 107.869 36.984C107.885 37.208 107.797 37.4 107.605 37.56C107.077 38.008 106.405 38.384 105.589 38.688C104.773 38.976 103.989 39.12 103.237 39.12ZM123.283 39C123.011 39 122.787 38.912 122.611 38.736C122.435 38.56 122.347 38.344 122.347 38.088V31.848C122.347 30.856 122.155 30.04 121.771 29.4C121.403 28.76 120.891 28.28 120.235 27.96C119.595 27.64 118.867 27.48 118.051 27.48C117.267 27.48 116.555 27.632 115.915 27.936C115.291 28.24 114.795 28.656 114.427 29.184C114.059 29.712 113.875 30.312 113.875 30.984H112.555C112.587 29.976 112.859 29.08 113.371 28.296C113.883 27.496 114.563 26.872 115.411 26.424C116.259 25.96 117.203 25.728 118.243 25.728C119.379 25.728 120.395 25.968 121.291 26.448C122.187 26.912 122.891 27.6 123.403 28.512C123.931 29.424 124.195 30.536 124.195 31.848V38.088C124.195 38.344 124.107 38.56 123.931 38.736C123.755 38.912 123.539 39 123.283 39ZM112.963 39C112.675 39 112.443 38.92 112.267 38.76C112.107 38.584 112.027 38.36 112.027 38.088V26.808C112.027 26.52 112.107 26.296 112.267 26.136C112.443 25.96 112.675 25.872 112.963 25.872C113.235 25.872 113.451 25.96 113.611 26.136C113.787 26.296 113.875 26.52 113.875 26.808V38.088C113.875 38.36 113.787 38.584 113.611 38.76C113.451 38.92 113.235 39 112.963 39ZM134.125 39.12C132.861 39.12 131.733 38.832 130.741 38.256C129.765 37.664 128.989 36.864 128.413 35.856C127.853 34.848 127.573 33.712 127.573 32.448C127.573 31.168 127.845 30.024 128.389 29.016C128.933 28.008 129.677 27.216 130.621 26.64C131.565 26.048 132.653 25.752 133.885 25.752C134.861 25.752 135.757 25.944 136.573 26.328C137.405 26.712 138.133 27.288 138.757 28.056C138.933 28.248 138.997 28.456 138.949 28.68C138.901 28.888 138.765 29.072 138.541 29.232C138.365 29.36 138.165 29.408 137.941 29.376C137.733 29.328 137.549 29.208 137.389 29.016C136.461 27.96 135.293 27.432 133.885 27.432C132.989 27.432 132.197 27.648 131.509 28.08C130.837 28.512 130.309 29.104 129.925 29.856C129.557 30.608 129.373 31.472 129.373 32.448C129.373 33.408 129.573 34.264 129.973 35.016C130.373 35.768 130.933 36.36 131.653 36.792C132.373 37.224 133.197 37.44 134.125 37.44C134.749 37.44 135.317 37.36 135.829 37.2C136.357 37.024 136.821 36.76 137.221 36.408C137.413 36.248 137.613 36.16 137.821 36.144C138.029 36.128 138.221 36.192 138.397 36.336C138.589 36.512 138.693 36.712 138.709 36.936C138.741 37.16 138.669 37.352 138.493 37.512C137.325 38.584 135.869 39.12 134.125 39.12ZM148.518 39.12C147.222 39.12 146.07 38.84 145.062 38.28C144.07 37.704 143.286 36.912 142.71 35.904C142.15 34.896 141.87 33.744 141.87 32.448C141.87 31.136 142.134 29.984 142.662 28.992C143.206 27.984 143.95 27.192 144.894 26.616C145.838 26.04 146.926 25.752 148.158 25.752C149.374 25.752 150.43 26.032 151.326 26.592C152.238 27.136 152.942 27.896 153.438 28.872C153.934 29.848 154.182 30.96 154.182 32.208C154.182 32.464 154.102 32.672 153.942 32.832C153.782 32.976 153.574 33.048 153.318 33.048H143.118V31.512H153.51L152.478 32.256C152.494 31.328 152.326 30.496 151.974 29.76C151.622 29.024 151.118 28.448 150.462 28.032C149.822 27.616 149.054 27.408 148.158 27.408C147.246 27.408 146.446 27.624 145.758 28.056C145.07 28.488 144.534 29.088 144.15 29.856C143.782 30.608 143.598 31.472 143.598 32.448C143.598 33.424 143.806 34.288 144.222 35.04C144.654 35.792 145.238 36.384 145.974 36.816C146.71 37.248 147.558 37.464 148.518 37.464C149.094 37.464 149.67 37.368 150.246 37.176C150.838 36.968 151.31 36.712 151.662 36.408C151.838 36.264 152.038 36.192 152.262 36.192C152.486 36.176 152.678 36.232 152.838 36.36C153.046 36.552 153.15 36.76 153.15 36.984C153.166 37.208 153.078 37.4 152.886 37.56C152.358 38.008 151.686 38.384 150.87 38.688C150.054 38.976 149.27 39.12 148.518 39.12Z" fill="black"/>
</svg>
