<svg width="214" height="118" viewBox="0 0 214 118" fill="none" xmlns="http://www.w3.org/2000/svg">
<path d="M164.4 23C163.7 23 163.1 23 162.4 23C161.2 23 160 22.6 159.2 21.6C147 8.49997 128.5 0.0999756 107.8 0.0999756C87 0.0999756 68.5 8.59997 56.3 21.8C55.5 22.7 54.2001 23.2 53.0001 23.1C51.8001 23 50.5 23 49.3 23C22.2 23 0.300049 41.5 0.300049 64.4C0.300049 87.3 22.2 105.8 49.3 105.8C54.1 105.8 58.7001 105.2 63.0001 104.2C64.2001 103.9 65.4 104.1 66.4 104.8C77.8 112.8 92.2001 117.7 107.8 117.7C123.3 117.7 137.5 113 148.8 105.2C149.7 104.5 150.9 104.3 152 104.5C156 105.4 160.1 105.9 164.4 105.9C191.5 105.9 213.4 87.4 213.4 64.5C213.4 41.5 191.4 23 164.4 23Z" fill="white"/>
<g opacity="0.3">
<path opacity="0.3" d="M195.4 82.1C203.1 82.1 203.1 70.1 195.4 70.1C187.7 70.1 187.7 82.1 195.4 82.1Z" fill="#19A2DC"/>
</g>
<g opacity="0.3">
<path opacity="0.3" d="M191.4 89.3C190.7 90 190.1 90.5 189.4 91C188.8 91.5 188.1 92 187.5 92.4C186.2 93.3 184.8 94.1 183.5 94.9C180.7 96.4 177.8 97.6 174.9 98.4C173.4 98.9 171.9 99.1 170.4 99.4C169.6 99.5 168.9 99.6 168.1 99.6C167.7 99.6 167.3 99.7 167 99.7H165.9C162.9 99.8 159.9 99.2 157.1 98.6C160 98.6 162.9 98.5 165.7 97.7L166.7 97.5C167 97.4 167.4 97.3 167.7 97.2C168.4 97 169 96.8 169.7 96.5C171 95.9 172.3 95.4 173.5 94.7C175.9 93.4 178.2 91.8 180.2 89.9C181.2 89 182.2 88 183.1 87C183.5 86.5 184 86 184.4 85.5C184.8 85 185.2 84.4 185.5 84C186.6 82.1 189.1 81.4 191 82.6C192.9 83.7 193.6 86.2 192.4 88.1C192.2 88.4 192 88.7 191.8 88.9L191.4 89.3Z" fill="#19A2DC"/>
</g>
<path d="M48.7001 46.4L46.8001 52C44.8001 51.3 43.5001 51.4 42.9001 52.3C42.1001 53.4 42.8001 54.7 44.9001 56.3C45.6001 56.8 46.6001 57.4 47.9001 58.1L48.3001 58.3L48.6001 58.5C48.9001 58.6 49.1001 58.8 49.2001 58.8C49.6001 59 49.9001 59.2 50.1001 59.4C51.5001 60.4 52.4001 61.6 52.8001 63.2C53.2001 64.7 53.0001 66.2 52.4001 67.7C51.7001 69.2 50.8001 70.4 49.6001 71.3C48.3001 72.3 46.6001 72.8 44.6001 73C43.5001 73.1 42.1001 73 40.6001 72.6C39.3001 72.3 38.0001 71.9 36.5001 71.3L39.6001 65.7C40.7001 66.4 41.6001 66.7 42.4001 66.6C43.2001 66.5 43.6001 66 43.4001 65.1C43.3001 64.5 43.0001 64 42.5001 63.5C42.1001 63.1 41.4001 62.6 40.3001 62.1L39.6001 61.8L38.9001 61.4C38.4001 61.1 37.9001 60.9 37.5001 60.7C35.2001 59.4 33.8001 57.7 33.3001 55.6C32.9001 53.8 33.1001 52.1 33.9001 50.5C34.7001 48.9 36.0001 47.8 37.6001 47C39.8001 46 42.1001 45.5 44.7001 45.7C46.1001 45.6 47.4001 45.9 48.7001 46.4Z" fill="#E7F4F5" stroke="#E7F4F5" stroke-width="6" stroke-miterlimit="10"/>
<path d="M64.0002 47.6C63.7002 48.5 63.4002 49.5 63.1002 50.7C62.8002 52 62.5002 53.3 62.3002 54.5C61.8002 57.6 62.0002 59.9 62.8002 61.3C63.0002 61.7 63.2002 62 63.4002 62.2C63.9002 62.7 64.5002 63 65.1002 63.2C65.8002 63.4 66.4002 63.4 67.0002 63.3C67.4002 63.2 67.7002 63.1 68.1002 62.8C68.5002 62.5 68.8002 62.1 69.1002 61.6C69.8002 60.2 69.9002 58.3 69.5002 55.6C69.3002 54.3 68.9002 52.9 68.4002 51.4C68.2002 50.8 68.0002 50.1 67.7002 49.3L67.3002 48.3L66.9002 47.3L75.7002 46.5C78.8002 55.8 78.9002 62.7 75.8002 67.4C74.3002 69.7 72.3002 71.2 69.7002 72C68.8002 72.2 67.9002 72.4 67.0002 72.5C66.7002 72.5 66.3002 72.5 66.0002 72.5C65.9002 72.5 65.8002 72.5 65.6002 72.5C65.5002 72.5 65.4002 72.5 65.4002 72.5C62.9002 72.3 60.7002 71.5 58.9002 70.2C57.5002 69.2 56.4002 67.9 55.6002 66.3C54.0002 63.4 53.4002 59.7 53.8002 55.1C53.9002 53.4 54.2002 51.6 54.6002 49.8C54.9002 48.4 55.3002 47.1 55.7002 45.7L64.0002 47.6ZM70.1002 72.2H70.2002H70.1002ZM71.6002 70.8C71.7002 70.8 71.7002 70.8 71.7002 70.8H71.6002ZM71.6002 70.8C71.7002 70.8 71.7002 70.8 71.7002 70.8C71.6002 70.7 71.6002 70.7 71.6002 70.8Z" fill="#E7F4F5" stroke="#E7F4F5" stroke-width="6" stroke-miterlimit="10"/>
<path d="M100.2 63.1C100.5 65.6 99.9001 67.6 98.3001 69.2C96.9001 70.7 94.9001 71.4 92.5001 71.5C91.4001 71.5 90.1001 71.5 88.7001 71.5L86.8001 71.4L84.9001 71.3L79.1001 71V46.9L87.1001 47.1C89.0001 47.2 90.7001 47.4 92.3001 47.7C94.2001 48.1 95.8001 48.6 96.9001 49.3C99.9001 51 99.9001 53.5 97.1001 56.7C96.8001 57.1 96.4001 57.4 96.0001 57.7C98.5001 58.7 99.9001 60.5 100.2 63.1ZM87.3001 56.6C88.2001 56.6 88.9001 56.4 89.5001 56C90.0001 55.6 90.4001 55.1 90.4001 54.6C90.5001 54 90.3001 53.5 89.8001 53.1C89.2001 52.6 88.4001 52.4 87.3001 52.3V56.6ZM90.5001 66.4C90.9001 66.2 91.2001 66 91.4001 65.7C91.6001 65.4 91.8001 65 91.7001 64.6C91.6001 63.8 91.0001 63.1 89.9001 62.6C89.5001 62.4 89.0001 62.3 88.5001 62.2C88.1001 62.1 87.7001 62 87.2001 62C87.2001 65 87.2001 66.5 87.2001 66.5C87.2001 66.5 87.4001 66.6 88.0001 66.7C88.2001 66.7 88.4001 66.7 88.6001 66.8C88.8001 66.8 88.9001 66.8 88.9001 66.8C89.4001 66.8 89.8001 66.7 90.2001 66.6L90.5001 66.4Z" fill="#E7F4F5" stroke="#E7F4F5" stroke-width="6" stroke-miterlimit="10"/>
<path d="M116.2 62.2C115.9 64.6 115 66.7 113.6 68.3C112.4 69.6 110.9 70.7 109 71.4C106.8 72.3 104.7 72.7 102.6 72.7L101.4 65.7C104.3 65.2 106.2 64 107.2 62.1C107.7 61.2 107.9 60.3 107.9 59.5L108 47.3L116.6 47L116.2 62.2Z" fill="#E7F4F5" stroke="#E7F4F5" stroke-width="6" stroke-miterlimit="10"/>
<path d="M134.7 71.5L117.5 71.7L117.6 46.2L135.1 45.7L135.4 52.8L125.7 52.6L125.8 55.5H130.8L131.1 62L125.9 61.6L126 64.7H134.6L134.7 71.5Z" fill="#E7F4F5" stroke="#E7F4F5" stroke-width="6" stroke-miterlimit="10"/>
<path d="M158.1 68.3C156.7 69.4 155.2 70.1 153.6 70.6C151.9 71.1 150.1 71.3 148.3 71.1C146.5 70.9 144.8 70.4 143.2 69.6C141.7 68.8 140.4 67.7 139.3 66.5C138.2 65.2 137.4 63.8 136.9 62.2C136.4 60.6 136.2 58.9 136.4 57.2C136.6 55.5 137.1 53.9 138 52.4C138.8 51 139.9 49.7 141.3 48.7C144.2 46.5 147.4 45.6 151.1 46C154.2 46.3 156.9 47.6 159.2 49.7L155.8 54.8C154.9 54.1 153.8 53.6 152.6 53.5C151 53.3 149.6 53.7 148.3 54.6C147.1 55.5 146.4 56.7 146.2 58.1C146 59.6 146.5 60.9 147.5 62C148.5 63.2 149.9 63.8 151.5 64C152.9 64.2 154.3 63.9 155.5 63.1L158.1 68.3Z" fill="#E7F4F5" stroke="#E7F4F5" stroke-width="6" stroke-miterlimit="10"/>
<path d="M159.2 46.6L180 45.6L180.3 52.5L173.2 52.9L173.7 70.9L165.3 71.2L165.2 53.3L159.5 53.7L159.2 46.6Z" fill="#E7F4F5" stroke="#E7F4F5" stroke-width="6" stroke-miterlimit="10"/>
<path d="M47.8001 44.7001L45.8001 50.5001C43.7001 49.8001 42.4001 49.9001 41.8001 50.8001C41.0001 52.0001 41.7 53.3001 43.9 54.9001C44.6 55.4001 45.6 56.0001 46.9 56.8001L47.3001 57.0001L47.6 57.2001C47.9 57.4001 48.1001 57.5001 48.2001 57.5001C48.6001 57.8001 49 58.0001 49.1 58.1001C50.5 59.1001 51.4001 60.4001 51.8001 61.9001C52.2001 63.4001 52.1 64.9001 51.4 66.5001C50.7 68.1001 49.8 69.3001 48.6 70.2001C47.3 71.2001 45.6001 71.8001 43.5001 72.0001C42.4001 72.1001 41 72.0001 39.4 71.6001C38.1 71.3001 36.7001 70.9001 35.2001 70.3001L38.4 64.6001C39.5 65.3001 40.5001 65.6001 41.3001 65.5001C42.2001 65.4001 42.5001 64.9001 42.3001 64.0001C42.2001 63.4001 41.9001 62.9001 41.3001 62.4001C40.9001 62.0001 40.1 61.5001 39.1 61.0001L38.4 60.7001L37.7001 60.3001C37.1001 60.0001 36.7001 59.8001 36.3001 59.5001C33.9001 58.1001 32.5001 56.4001 32.0001 54.3001C31.5001 52.5001 31.8 50.7001 32.6 49.0001C33.4 47.4001 34.7 46.2001 36.4 45.4001C38.6 44.3001 41.0001 43.9001 43.7001 44.1001C45.0001 44.0001 46.4001 44.3001 47.8001 44.7001Z" fill="#1A7ABE"/>
<path d="M63.2001 46C62.9001 46.9 62.6001 48 62.3001 49.2C62.0001 50.6 61.7001 51.9 61.5001 53.1C61.0001 56.3 61.2001 58.7 62.0001 60.1C62.2001 60.5 62.5001 60.9 62.6001 61C63.1001 61.5 63.7 61.8 64.4 62C65.1 62.2 65.8 62.2 66.4 62.1C66.8 62 67.2001 61.8 67.5001 61.6C67.9001 61.3 68.3001 60.9 68.5001 60.3C69.2001 58.9 69.4 56.9 68.9 54.2C68.7 52.9 68.3001 51.5 67.8001 49.9C67.6001 49.3 67.3001 48.6 67.0001 47.8L66.6001 46.8L66.2001 45.7L75.2001 44.9C78.4001 54.4 78.5001 61.6 75.3001 66.3C73.8001 68.6 71.7001 70.2 69.0001 71C68.1001 71.3 67.2001 71.4 66.2001 71.5C65.9001 71.5 65.5001 71.5 65.2001 71.5C65.1001 71.5 65.0001 71.5 64.8001 71.5C64.7001 71.5 64.6001 71.5 64.5001 71.5C61.9001 71.3 59.7001 70.5 57.8001 69.1C56.4001 68.1 55.3 66.7 54.4 65.1C52.8 62.1 52.2001 58.3 52.5001 53.6C52.7001 51.9 52.9001 50.1 53.3001 48.1C53.6001 46.7 54 45.3 54.4 43.9L63.2001 46ZM69.6001 71.2H69.7001H69.6001ZM71.0001 69.7C71.1001 69.7 71.1001 69.7 71.1001 69.7H71.0001ZM71.0001 69.7C71.1001 69.7 71.1001 69.7 71.1001 69.7C71.1001 69.7 71.1001 69.7 71.0001 69.7Z" fill="#1A7ABE"/>
<path d="M100.3 61.9C100.6 64.5 100 66.5 98.4001 68.1C96.9001 69.6 95.0001 70.4 92.5001 70.5C91.4001 70.5 90.1001 70.5 88.6001 70.5L86.6001 70.4L84.6001 70.3L78.6001 70V45.3L86.8001 45.5C88.7001 45.6 90.5001 45.8 92.1001 46.1C94.1001 46.5 95.7001 47 96.8001 47.7C99.8001 49.4 99.9001 52 97.0001 55.3C96.7001 55.7 96.3001 56 95.8001 56.4C98.5001 57.3 100 59.2 100.3 61.9ZM87.0001 55.2C87.9001 55.2 88.6001 55 89.2001 54.6C89.8001 54.2 90.1001 53.7 90.2001 53.1C90.3001 52.5 90.0001 52 89.6001 51.6C89.0001 51.1 88.2001 50.8 87.0001 50.8V55.2ZM90.3001 65.3C90.7001 65.1 91.0001 64.8 91.2001 64.6C91.5001 64.3 91.6001 63.9 91.5001 63.5C91.4001 62.6 90.8001 62 89.7001 61.5C89.3001 61.3 88.8001 61.2 88.3001 61.1C87.9001 61 87.5001 60.9 87.0001 60.9C87.0001 64 87.0001 65.5 87.0001 65.5C87.0001 65.5 87.3001 65.6 87.8001 65.7C88.0001 65.7 88.2001 65.7 88.4001 65.8C88.6001 65.8 88.7001 65.8 88.7001 65.8C89.2001 65.8 89.6001 65.7 90.0001 65.6L90.3001 65.3Z" fill="#1A7ABE"/>
<path d="M116.5 60.9C116.2 63.4 115.3 65.5 113.8 67.2C112.6 68.6 111 69.6 109.1 70.4C106.9 71.3 104.7 71.7 102.6 71.7L101.4 64.5C104.3 63.9 106.3 62.7 107.4 60.8C107.9 59.9 108.2 59 108.1 58.1L108.2 45.6L117.1 45.3L116.5 60.9Z" fill="#1A7ABE"/>
<path d="M135.3 70.5L117.7 70.7L117.8 44.5L135.7 44L136 51.3L126 51.1L126.1 54.1H131.3L131.6 60.8L126.3 60.4L126.4 63.6H135.2L135.3 70.5Z" fill="#1A7ABE"/>
<path d="M159.1 67.2C157.7 68.3 156.2 69.1 154.4 69.6C152.6 70.1 150.8 70.3 148.9 70.1C147.1 69.9 145.3 69.4 143.7 68.5C142.1 67.7001 140.8 66.6001 139.7 65.3001C138.6 64.0001 137.7 62.5001 137.2 60.9001C136.7 59.2001 136.5 57.5001 136.7 55.8001C136.9 54.1001 137.4 52.4001 138.3 50.9001C139.2 49.4001 140.3 48.2 141.7 47.1C144.6 44.9 148 43.9001 151.7 44.3001C154.9 44.6001 157.7 45.9 160 48.1L156.6 53.4001C155.6 52.6 154.5 52.2 153.3 52.1C151.6 51.9 150.2 52.3 148.9 53.2C147.6 54.1 146.9 55.3001 146.7 56.8001C146.5 58.3001 147 59.6001 148 60.8001C149.1 62.0001 150.4 62.7001 152.1 62.8001C153.6 63.0001 154.9 62.7001 156.2 61.9001L159.1 67.2Z" fill="#1A7ABE"/>
<path d="M160.1 45L181.5 43.9L181.8 51L174.5 51.5L175 70L166.4 70.3L166.3 52L160.4 52.4L160.1 45Z" fill="#1A7ABE"/>
<path d="M47.8001 46.7001L45.8001 52.5001C43.7001 51.8001 42.4001 51.9001 41.8001 52.8001C41.0001 54.0001 41.7 55.3001 43.9 56.9001C44.6 57.4001 45.6 58.0001 46.9 58.8001L47.3001 59.0001L47.6 59.2001C47.9 59.4001 48.1001 59.5001 48.2001 59.5001C48.6001 59.8001 49 60.0001 49.1 60.1001C50.5 61.1001 51.4001 62.4001 51.8001 63.9001C52.2001 65.4001 52.1 66.9001 51.4 68.5001C50.7 70.1001 49.8 71.3001 48.6 72.2001C47.3 73.2001 45.6001 73.8001 43.5001 74.0001C42.4001 74.1001 41 74.0001 39.4 73.6001C38.1 73.3001 36.7001 72.9001 35.2001 72.3001L38.4 66.6001C39.5 67.3001 40.5001 67.6001 41.3001 67.5001C42.2001 67.4001 42.5001 66.9001 42.3001 66.0001C42.2001 65.4001 41.9001 64.9001 41.3001 64.4001C40.9001 64.0001 40.1 63.5001 39.1 63.0001L38.4 62.7001L37.7001 62.3001C37.1001 62.0001 36.7001 61.8001 36.3001 61.5001C33.9001 60.1001 32.5001 58.4001 32.0001 56.3001C31.5001 54.5001 31.8 52.7001 32.6 51.0001C33.4 49.4001 34.7 48.2001 36.4 47.4001C38.6 46.3001 41.0001 45.9001 43.7001 46.1001C45.0001 46.0001 46.4001 46.3001 47.8001 46.7001Z" fill="#19A2DC"/>
<path d="M63.2001 48C62.9001 48.9 62.6001 50 62.3001 51.2C62.0001 52.6 61.7001 53.9 61.5001 55.1C61.0001 58.3 61.2001 60.7 62.0001 62.1C62.2001 62.5 62.5001 62.9 62.6001 63C63.1001 63.5 63.7 63.8 64.4 64C65.1 64.2 65.8 64.2 66.4 64.1C66.8 64 67.2001 63.8 67.5001 63.6C67.9001 63.3 68.3001 62.9 68.5001 62.3C69.2001 60.9 69.4 58.9 68.9 56.2C68.7 54.9 68.3001 53.5 67.8001 51.9C67.6001 51.3 67.3001 50.6 67.0001 49.8L66.6001 48.8L66.2001 47.7L75.2001 46.9C78.4001 56.4 78.5001 63.6 75.3001 68.3C73.8001 70.6 71.7001 72.2 69.0001 73C68.1001 73.3 67.2001 73.4 66.2001 73.5C65.9001 73.5 65.5001 73.5 65.2001 73.5C65.1001 73.5 65.0001 73.5 64.8001 73.5C64.7001 73.5 64.6001 73.5 64.5001 73.5C61.9001 73.3 59.7001 72.5 57.8001 71.1C56.4001 70.1 55.3 68.7 54.4 67.1C52.8 64.1 52.2001 60.3 52.5001 55.6C52.7001 53.9 52.9001 52.1 53.3001 50.1C53.6001 48.7 54 47.3 54.4 45.9L63.2001 48ZM69.6001 73.2H69.7001H69.6001ZM71.0001 71.7C71.1001 71.7 71.1001 71.7 71.1001 71.7H71.0001ZM71.0001 71.7C71.1001 71.7 71.1001 71.7 71.1001 71.7C71.1001 71.7 71.1001 71.7 71.0001 71.7Z" fill="#19A2DC"/>
<path d="M100.3 63.9C100.6 66.5 100 68.5 98.4001 70.1C96.9001 71.6 95.0001 72.4 92.5001 72.5C91.4001 72.5 90.1001 72.5 88.6001 72.5L86.6001 72.4L84.6001 72.3L78.6001 72V47.3L86.8001 47.5C88.7001 47.6 90.5001 47.8 92.1001 48.1C94.1001 48.5 95.7001 49 96.8001 49.7C99.8001 51.4 99.9001 54 97.0001 57.3C96.7001 57.7 96.3001 58 95.8001 58.4C98.5001 59.3 100 61.2 100.3 63.9ZM87.0001 57.2C87.9001 57.2 88.6001 57 89.2001 56.6C89.8001 56.2 90.1001 55.7 90.2001 55.1C90.3001 54.5 90.0001 54 89.6001 53.6C89.0001 53.1 88.2001 52.8 87.0001 52.8V57.2ZM90.3001 67.3C90.7001 67.1 91.0001 66.8 91.2001 66.6C91.5001 66.3 91.6001 65.9 91.5001 65.5C91.4001 64.6 90.8001 64 89.7001 63.5C89.3001 63.3 88.8001 63.2 88.3001 63.1C87.9001 63 87.5001 62.9 87.0001 62.9C87.0001 66 87.0001 67.5 87.0001 67.5C87.0001 67.5 87.3001 67.6 87.8001 67.7C88.0001 67.7 88.2001 67.7 88.4001 67.8C88.6001 67.8 88.7001 67.8 88.7001 67.8C89.2001 67.8 89.6001 67.7 90.0001 67.6L90.3001 67.3Z" fill="#19A2DC"/>
<path d="M116.5 62.9C116.2 65.4 115.3 67.5 113.8 69.2C112.6 70.6 111 71.6 109.1 72.4C106.9 73.3 104.7 73.7 102.6 73.7L101.4 66.5C104.3 65.9 106.3 64.7 107.4 62.8C107.9 61.9 108.2 61 108.1 60.1L108.2 47.6L117.1 47.3L116.5 62.9Z" fill="#19A2DC"/>
<path d="M135.3 72.5L117.7 72.7L117.8 46.5L135.7 46L136 53.3L126 53.1L126.1 56.1H131.3L131.6 62.8L126.3 62.4L126.4 65.6H135.2L135.3 72.5Z" fill="#19A2DC"/>
<path d="M159.1 69.2C157.7 70.3 156.2 71.1 154.4 71.6C152.6 72.1 150.8 72.3 148.9 72.1C147.1 71.9 145.3 71.4 143.7 70.5C142.1 69.7001 140.8 68.6001 139.7 67.3001C138.6 66.0001 137.7 64.5001 137.2 62.9001C136.7 61.2001 136.5 59.5001 136.7 57.8001C136.9 56.1001 137.4 54.4001 138.3 52.9001C139.2 51.4001 140.3 50.2 141.7 49.1C144.6 46.9 148 45.9001 151.7 46.3001C154.9 46.6001 157.7 47.9 160 50.1L156.6 55.4001C155.6 54.6 154.5 54.2 153.3 54.1C151.6 53.9 150.2 54.3 148.9 55.2C147.6 56.1 146.9 57.3001 146.7 58.8001C146.5 60.3001 147 61.6001 148 62.8001C149.1 64.0001 150.4 64.7001 152.1 64.8001C153.6 65.0001 154.9 64.7001 156.2 63.9001L159.1 69.2Z" fill="#19A2DC"/>
<path d="M160.1 47L181.5 45.9L181.8 53L174.5 53.5L175 72L166.4 72.3L166.3 54L160.4 54.4L160.1 47Z" fill="#19A2DC"/>
</svg>
