<svg width="243" height="135" viewBox="0 0 243 135" fill="none" xmlns="http://www.w3.org/2000/svg">
<path d="M186.747 26.2921C185.955 26.2921 185.275 26.2921 184.483 26.2921C183.124 26.2921 181.766 25.8363 180.86 24.697C167.161 9.77178 146.217 0.201416 122.669 0.201416C99.1202 0.201416 78.1757 9.88572 64.3637 24.9249C63.458 25.9503 61.9863 26.5199 60.6277 26.406C59.2692 26.2921 57.7974 26.2921 56.4388 26.2921C25.758 26.2921 0.964355 47.3697 0.964355 73.4603C0.964355 99.551 25.758 120.629 56.4388 120.629C61.873 120.629 67.0809 119.945 71.949 118.806C73.3076 118.464 74.6661 118.692 75.7982 119.489C88.7045 128.604 105.007 134.187 122.669 134.187C140.217 134.187 156.293 128.832 169.086 119.945C170.105 119.147 171.463 118.92 172.709 119.147C177.237 120.173 181.879 120.742 186.747 120.742C217.428 120.742 242.222 99.6649 242.222 73.5742C242.222 47.3697 217.428 26.2921 186.747 26.2921Z" fill="white"/>
<g opacity="0.3">
<path opacity="0.3" d="M221.843 93.6265C230.561 93.6265 230.561 79.9546 221.843 79.9546C213.126 79.9546 213.126 93.6265 221.843 93.6265Z" fill="#19A2DC"/>
</g>
<g opacity="0.3">
<path opacity="0.3" d="M217.428 101.829C216.635 102.627 215.956 103.197 215.164 103.766C214.484 104.336 213.692 104.906 213.013 105.361C211.541 106.387 209.956 107.298 208.484 108.21C205.314 109.919 202.031 111.286 198.748 112.197C197.05 112.767 195.351 112.995 193.653 113.337C192.747 113.451 191.955 113.565 191.049 113.565C190.596 113.565 190.143 113.678 189.804 113.678H188.559C185.162 113.792 181.766 113.109 178.596 112.425C181.879 112.425 185.162 112.311 188.332 111.4L189.464 111.172C189.804 111.058 190.257 110.944 190.596 110.83C191.389 110.602 192.068 110.374 192.861 110.033C194.332 109.349 195.804 108.779 197.163 107.982C199.88 106.501 202.484 104.678 204.748 102.513C205.88 101.488 207.012 100.348 208.031 99.209C208.484 98.6393 209.05 98.0697 209.503 97.5C209.956 96.9304 210.409 96.2468 210.748 95.791C211.994 93.6263 214.824 92.8288 216.975 94.196C219.126 95.4492 219.919 98.2975 218.56 100.462C218.334 100.804 218.107 101.146 217.881 101.374L217.428 101.829Z" fill="#19A2DC"/>
</g>
<path d="M60.2263 82.808C59.926 82.405 59.7258 82.0021 59.7258 81.4984V56.9176C59.7258 56.4139 59.926 55.9102 60.2263 55.608C60.5266 55.205 61.0271 55.1042 61.5276 55.1042C62.5287 55.1042 63.4296 55.9102 63.4296 56.9176C63.4296 56.9176 63.4296 56.9176 63.4296 57.0183V79.685H76.4432C77.4443 79.685 78.3452 80.491 78.3452 81.5991C78.3452 82.7073 77.5444 83.5132 76.4432 83.5132H61.5276C61.0271 83.3117 60.5266 83.2109 60.2263 82.808Z" fill="#1E1A4E" stroke="#1E1A4E" stroke-miterlimit="10"/>
<path d="M85.9529 81.9021C83.8507 80.6932 82.0488 78.8799 80.8475 76.7643C79.6463 74.4473 79.0457 71.828 79.0457 69.2088C79.0457 66.5895 79.6463 63.9703 80.8475 61.6532C82.0488 59.4369 83.7506 57.7244 85.9529 56.5155C90.5577 54.0977 96.1635 54.0977 100.768 56.5155C102.871 57.7244 104.672 59.5377 105.874 61.6532C107.075 63.9703 107.776 66.5895 107.676 69.2088C107.676 71.828 107.075 74.4473 105.874 76.7643C104.672 78.8799 102.971 80.6932 100.868 81.9021C96.1635 84.3199 90.6578 84.3199 85.9529 81.9021ZM98.8663 78.8799C100.468 77.8725 101.769 76.5629 102.67 74.8503C104.472 71.3244 104.472 67.0932 102.67 63.5673C101.769 61.8547 100.468 60.5451 98.8663 59.5377C95.4628 57.6236 91.2584 57.6236 87.7547 59.5377C86.1531 60.5451 84.8517 61.8547 83.9508 63.5673C82.1489 67.0932 82.1489 71.3244 83.9508 74.8503C84.8517 76.5629 86.1531 77.8725 87.7547 78.8799C91.2584 80.794 95.4628 80.794 98.8663 78.8799Z" fill="#1E1A4E" stroke="#1E1A4E" stroke-miterlimit="10"/>
<path d="M134.303 69.2089C134.704 69.6118 134.904 70.0149 134.804 70.5186V79.1822C134.804 79.6859 134.604 80.1896 134.203 80.4918C129.699 84.2192 123.392 84.7229 118.287 81.7007C116.184 80.3911 114.483 78.5777 113.281 76.4622C112.08 74.2459 111.379 71.6267 111.48 69.1082C111.48 66.5897 112.08 64.0712 113.281 61.7541C114.483 59.6386 116.184 57.8252 118.287 56.5156C120.389 55.206 122.791 54.6015 125.294 54.6015C128.497 54.5008 131.701 55.609 134.103 57.7245C134.303 57.926 134.504 58.1275 134.704 58.4297C134.804 58.7319 134.804 58.9334 134.804 59.2356C134.804 59.7393 134.604 60.1423 134.303 60.4445C134.003 60.7467 133.502 60.9482 133.102 60.9482C132.702 60.9482 132.201 60.7467 131.901 60.4445C131 59.6386 130.099 59.0341 128.998 58.6311C127.797 58.2282 126.595 58.0267 125.394 58.0267C123.592 58.0267 121.79 58.5304 120.189 59.5378C118.587 60.5452 117.286 61.9556 116.485 63.5674C114.583 67.0934 114.583 71.2237 116.485 74.7496C117.386 76.3614 118.687 77.7718 120.189 78.7792C121.69 79.7866 123.492 80.2903 125.394 80.2903C127.496 80.2903 129.498 79.6859 131.2 78.477V72.0297H126.195C125.694 72.0297 125.194 71.8282 124.893 71.526C124.193 70.9215 124.193 69.9141 124.793 69.2089L124.893 69.1082C125.294 68.8059 125.794 68.6045 126.195 68.6045H132.902C133.402 68.6045 133.903 68.8059 134.303 69.2089Z" fill="#1E1A4E" stroke="#1E1A4E" stroke-miterlimit="10"/>
<path d="M151.921 82.8083C151.521 82.5061 151.321 82.0024 151.421 81.4987V56.918C151.421 56.4143 151.621 55.9105 151.921 55.6083C152.622 54.9031 153.824 54.8024 154.524 55.5076C154.925 55.9105 155.125 56.4143 155.125 56.918V81.4987C155.125 82.0024 154.925 82.5061 154.624 82.8083C153.824 83.5135 152.622 83.5135 151.921 82.8083Z" fill="#1E1A4E" stroke="#1E1A4E" stroke-miterlimit="10"/>
<path d="M162.833 82.808C162.533 82.405 162.333 82.0021 162.333 81.4984V56.9176C162.333 56.4139 162.533 55.9102 162.833 55.608C163.133 55.3057 163.634 55.1042 164.135 55.1042C164.435 55.1042 164.635 55.205 164.935 55.3057C165.136 55.4065 165.436 55.608 165.636 55.8094L181.352 76.8643V57.0183C181.352 56.5146 181.553 56.011 181.853 55.7087C182.253 55.4065 182.654 55.205 183.154 55.205C183.655 55.205 184.155 55.4065 184.456 55.7087C184.856 56.1117 184.956 56.5146 184.956 57.0183V81.5992C184.956 82.1029 184.756 82.6066 184.456 82.9088C184.155 83.211 183.655 83.4125 183.154 83.4125C182.854 83.4125 182.554 83.4124 182.253 83.3117C181.953 83.211 181.753 83.0095 181.653 82.808L165.936 61.7532V81.5992C165.936 82.1029 165.736 82.6066 165.436 82.9088C164.735 83.5132 163.534 83.5132 162.833 82.808Z" fill="#1E1A4E" stroke="#1E1A4E" stroke-miterlimit="10"/>
</svg>
