<svg width="621" height="167" viewBox="0 0 621 167" fill="none" xmlns="http://www.w3.org/2000/svg">
<path d="M30.7996 0.777832H589.982C606.599 0.777832 620.013 14.2771 620.013 31.0001V136.173C620.013 152.896 606.599 166.396 589.982 166.396H30.7996C14.1823 166.396 0.768311 152.896 0.768311 136.173V31.0001C0.768311 14.2771 14.1823 0.777832 30.7996 0.777832Z" fill="#FFDD15"/>
<path d="M250.328 37.5481L243.722 57.0917L237.015 47.4207L229.807 57.4947L223.601 38.6562L231.108 35.8355L233.01 42.7866L237.515 37.2458L240.718 41.8799L243.021 35.4325L250.328 37.5481Z" fill="#2B2E6F"/>
<path d="M265.044 56.8903L251.229 57.0918V36.5407L265.244 36.1377L265.444 41.8799L257.636 41.7792L257.736 44.0962H261.74L261.941 49.3348L257.736 49.0325L257.836 51.551H264.744L265.044 56.8903Z" fill="#2B2E6F"/>
<path d="M273.653 36.2385L272.952 50.04L280.159 49.637L280.259 55.883L266.645 56.1852L266.045 36.3393L273.653 36.2385Z" fill="#2B2E6F"/>
<path d="M290.27 57.1926C288.868 57.0918 287.467 56.6889 286.266 56.0844C285.064 55.48 284.063 54.674 283.263 53.5659C281.561 51.4503 280.76 48.7303 281.26 46.0103C281.461 44.6 281.961 43.2903 282.762 42.0815C283.463 40.8726 284.464 39.8652 285.565 38.9585C287.867 37.1452 290.77 36.3392 293.673 36.5407C295.075 36.6415 296.476 37.0444 297.678 37.6489C298.879 38.2533 299.88 39.0592 300.681 40.1674C301.482 41.1748 302.082 42.3837 302.483 43.5926C302.883 44.9022 302.883 46.3126 302.683 47.6222C302.483 49.0326 301.982 50.3422 301.181 51.5511C300.38 52.76 299.479 53.7674 298.378 54.674C296.076 56.5881 293.173 57.394 290.27 57.1926ZM287.767 46.6148C287.567 47.7229 287.867 48.8311 288.568 49.637C289.269 50.4429 290.27 51.0474 291.371 51.0474C292.572 51.1481 293.673 50.8459 294.574 50.04C295.475 49.3348 296.076 48.3274 296.276 47.2192C296.476 46.1111 296.176 45.0029 295.475 44.197C294.775 43.2904 293.774 42.7867 292.672 42.7867C291.471 42.6859 290.37 42.9881 289.469 43.7941C288.568 44.4992 287.967 45.5066 287.767 46.6148Z" fill="#2B2E6F"/>
<path d="M301.582 54.0686L308.389 36.1368L315.096 44.196L322.103 35.9353L327.709 54.3709L320.601 56.7886L318.8 49.636L314.896 54.7738L310.991 50.3412L308.489 56.8894L301.582 54.0686Z" fill="#2B2E6F"/>
<path d="M343.125 56.8903L329.311 57.0918V36.5407L343.325 36.1377L343.526 41.8799L335.717 41.7792L335.818 44.0962H339.822L340.022 49.3348L335.818 49.0325L335.918 51.551H342.825L343.125 56.8903Z" fill="#2B2E6F"/>
<path d="M349.432 36.8431L366.149 36.0371L366.349 41.6786L360.643 42.0815L361.044 56.5882L354.337 56.7897V42.3838L349.732 42.686L349.432 36.8431Z" fill="#2B2E6F"/>
<path d="M376.059 57.1925C374.658 57.0918 373.257 56.6888 372.055 56.0844C370.854 55.4799 369.853 54.674 369.052 53.5659C368.251 52.5584 367.651 51.3496 367.25 50.1407C366.85 48.831 366.85 47.4207 367.05 46.111C367.25 44.7007 367.751 43.3911 368.552 42.1822C369.252 40.9733 370.253 39.9659 371.355 39.0592C373.657 37.2459 376.46 36.4399 379.363 36.6414C380.764 36.7422 382.166 37.1451 383.367 37.7496C384.568 38.354 385.569 39.16 386.37 40.2681C387.171 41.2755 387.772 42.4844 388.172 43.6933C388.572 45.0029 388.572 46.4133 388.372 47.7229C388.172 49.1333 387.672 50.4429 386.871 51.6518C386.07 52.8607 385.169 53.8681 384.068 54.7748C381.765 56.5881 378.862 57.394 376.059 57.1925ZM373.557 46.6148C373.357 47.7229 373.657 48.831 374.358 49.637C375.058 50.4429 376.059 51.0473 377.161 51.0473C378.362 51.1481 379.463 50.8459 380.364 50.0399C381.265 49.3347 381.865 48.3273 382.066 47.2192C382.266 46.1111 381.966 45.0029 381.265 44.197C380.564 43.2903 379.563 42.7866 378.462 42.7866C377.261 42.6859 376.16 42.9881 375.259 43.794C374.258 44.4992 373.657 45.5066 373.557 46.6148Z" fill="#2B2E6F"/>
<path d="M82.7537 115.219L77.7485 102.123L70.8413 111.29L62.1323 100.713L58.5285 114.917L44.3137 110.082L55.5254 73.3112L70.4409 90.0341L82.9539 73.6134L96.468 109.477L82.7537 115.219Z" fill="#2B2E6F"/>
<path d="M123.696 109.981L110.182 110.787L107.079 117.234L96.4681 110.787L118.391 71.6991L139.913 111.29L126.199 116.327L123.696 109.981ZM120.193 101.216L117.79 95.2725L114.687 101.619L120.193 101.216Z" fill="#2B2E6F"/>
<path d="M163.338 98.3956C163.238 102.022 162.037 105.548 159.834 108.47C157.932 110.787 155.53 112.701 152.827 114.01C149.724 115.622 146.32 116.529 142.817 116.73L140.114 105.548C144.618 104.339 147.621 102.224 149.023 99.1007C149.724 97.7911 150.024 96.28 149.924 94.8696L148.823 75.2252L162.637 73.8148L163.338 98.3956Z" fill="#2B2E6F"/>
<path d="M190.166 76.0311C192.969 76.2326 195.772 77.0385 198.274 78.3481C200.577 79.557 202.679 81.1689 204.381 83.1837C207.784 87.2133 209.286 92.6533 208.285 97.8918C207.784 100.612 206.783 103.231 205.281 105.548C203.78 107.865 201.878 109.981 199.676 111.593C195.071 115.118 189.265 116.73 183.559 116.227C180.756 116.025 177.953 115.219 175.45 113.91C173.048 112.701 171.046 111.089 169.344 109.074C165.94 105.044 164.539 99.6044 165.44 94.3659C165.94 91.6459 166.941 89.0266 168.443 86.7096C169.945 84.3926 171.847 82.277 174.149 80.6652C178.654 77.1392 184.36 75.5274 190.166 76.0311ZM195.171 96.6829C195.571 94.5674 194.971 92.4518 193.669 90.84C192.268 89.1274 190.166 88.12 187.963 88.0192C185.661 87.8177 183.359 88.5229 181.557 89.9333C179.755 91.2429 178.554 93.157 178.153 95.3733C177.753 97.4888 178.353 99.6044 179.755 101.216C181.156 102.929 183.259 103.936 185.361 104.037C187.663 104.238 189.965 103.533 191.867 102.123C193.569 100.813 194.77 98.7985 195.171 96.6829Z" fill="#2B2E6F"/>
<path d="M232.71 116.831L222.299 100.612V113.708L209.186 113.305L210.687 74.0163C215.592 72.8074 220.798 72.5052 225.803 73.1096C230.308 73.6133 233.811 74.9229 236.414 76.9377C239.717 79.4563 241.519 83.1837 241.72 88.0192C241.92 89.5303 241.719 91.0414 241.319 92.5526C241.019 93.9629 240.418 95.1718 239.517 96.3807C238.516 97.7911 237.115 98.7985 235.613 99.5037L243.722 108.57L232.71 116.831ZM228.105 87.314C228.205 86.3066 227.905 85.2992 227.305 84.3925C226.804 83.6874 226.103 83.1837 225.302 82.8814C224.401 82.4785 223.3 82.1763 222.299 82.1763L222.399 91.7466C223.4 91.8474 224.301 91.7466 225.302 91.3437C227.004 90.8399 228.205 89.1274 228.105 87.314Z" fill="#2B2E6F"/>
<path d="M284.764 84.7955L270.95 84.1911L270.65 89.1274L278.958 88.8251L278.157 99.3022L270.049 99L269.749 103.634L285.365 103.936L284.564 114.917L256.635 113.507L258.036 73.8148L285.065 73.5126L284.764 84.7955Z" fill="#2B2E6F"/>
<path d="M323.805 93.6607C324.005 99.7051 322.303 104.44 318.7 107.865C315.797 110.585 311.692 112.398 306.387 113.305C302.282 114.01 298.078 114.111 293.874 113.809C291.972 113.708 290.07 113.507 288.168 113.104L286.666 75.4266C292.072 73.8148 297.678 73.0089 303.384 73.1096C312.193 73.1096 318.199 76.5348 321.603 83.3851C322.203 84.594 322.704 85.9037 323.004 87.2133C323.304 88.3215 323.505 89.4296 323.705 90.5377C323.805 91.5451 323.805 92.5526 323.805 93.6607ZM310.691 94.0637C310.891 92.8548 310.691 91.6459 310.391 90.437C310.091 89.4296 309.49 88.5229 308.789 87.9185C307.788 87.1125 306.487 86.6089 305.186 86.6089C303.484 86.5081 301.882 86.7096 300.28 87.1126L300.08 100.31C301.682 100.713 303.384 100.713 305.085 100.41C306.487 100.209 307.688 99.6044 308.689 98.6977C309.89 97.4888 310.591 95.7763 310.691 94.0637Z" fill="#2B2E6F"/>
<path d="M361.044 72.7065C361.744 74.8221 362.345 77.0384 362.946 79.2547C363.646 82.0754 364.147 84.8962 364.447 87.8177C365.148 95.1717 364.347 101.115 361.945 105.951C360.743 108.47 358.942 110.585 356.739 112.298C353.736 114.615 350.132 115.924 346.328 116.327C346.228 116.327 346.028 116.327 345.928 116.327H345.327C344.827 116.327 344.326 116.327 343.726 116.327C342.224 116.227 340.823 116.025 339.421 115.723C335.317 114.715 331.713 112.197 329.411 108.57C324.406 101.216 324.205 89.9332 329.01 74.8221L343.125 75.8295L342.524 77.4414L341.924 79.0532C341.423 80.3629 341.123 81.471 340.823 82.3777C340.122 84.594 339.621 86.911 339.221 89.2281C338.62 93.4592 338.921 96.6829 340.022 98.7984C340.422 99.6043 341.023 100.209 341.724 100.712C342.224 101.115 342.825 101.317 343.425 101.518C344.426 101.72 345.528 101.619 346.529 101.317C347.53 101.015 348.531 100.41 349.231 99.6043C349.632 99.2014 349.932 98.6977 350.132 98.194C351.334 95.8769 351.534 92.2503 350.633 87.2132C350.333 85.1984 349.832 83.0829 349.231 81.068C348.731 79.2547 348.23 77.5421 347.63 76.1318L361.044 72.7065ZM351.934 116.327H352.134H351.934ZM354.237 114.01H354.437H354.237ZM354.237 114.01H354.437H354.237Z" fill="#2B2E6F"/>
<path d="M399.984 110.585C397.682 112.096 395.179 113.204 392.476 113.708C389.673 114.312 386.77 114.312 383.867 113.809C381.065 113.305 378.362 112.197 375.959 110.686C373.657 109.275 371.655 107.361 370.053 105.145C368.451 103.03 367.35 100.511 366.75 97.8917C365.448 92.4517 366.549 86.8102 369.653 82.2769C371.154 80.0606 373.056 78.1465 375.359 76.7362C384.468 70.8932 396.481 72.5051 403.788 80.5643L397.782 88.4221C396.38 87.1125 394.679 86.3065 392.777 85.9036C390.374 85.3999 387.872 85.8028 385.769 87.1125C381.965 89.3288 380.764 94.1643 382.866 97.8917C383.067 98.2947 383.267 98.5969 383.567 98.8991C385.069 100.914 387.271 102.224 389.673 102.627C391.876 103.03 394.078 102.727 396.08 101.72L399.984 110.585Z" fill="#2B2E6F"/>
<path d="M428.214 109.981L414.7 110.787L411.596 117.234L400.985 110.787L422.908 71.6991L444.431 111.29L430.716 116.327L428.214 109.981ZM424.71 101.216L422.308 95.2725L419.204 101.619L424.71 101.216Z" fill="#2B2E6F"/>
<path d="M472.86 86.1052L463.651 85.9037L463.45 114.716H450.036L450.937 85.6015L439.525 85.2993V74.1171L472.96 74.52L472.86 86.1052Z" fill="#2B2E6F"/>
<path d="M489.578 76.3332L488.476 115.924L474.162 115.018L476.664 75.7288L489.578 76.3332Z" fill="#2B2E6F"/>
<path d="M516.406 76.0311C519.209 76.2326 522.011 77.0385 524.514 78.3481C526.817 79.557 528.919 81.1689 530.62 83.1837C532.222 85.1985 533.524 87.4148 534.224 89.9333C534.925 92.5525 535.025 95.2725 534.625 97.8918C534.124 100.612 533.123 103.231 531.621 105.548C530.12 107.865 528.218 109.981 525.916 111.593C521.311 115.118 515.505 116.73 509.699 116.227C506.896 116.025 504.093 115.219 501.59 113.91C499.288 112.801 497.186 111.089 495.484 109.074C493.782 107.059 492.581 104.843 491.98 102.324C491.279 99.7051 491.079 96.9851 491.58 94.3659C492.08 91.6459 493.081 89.0266 494.583 86.7096C496.084 84.3926 497.986 82.277 500.289 80.6651C504.894 77.24 510.6 75.5274 516.406 76.0311ZM521.411 96.6829C521.811 94.5674 521.211 92.4518 519.909 90.8399C518.508 89.1273 516.406 88.1199 514.203 88.0192C511.901 87.8177 509.599 88.5229 507.697 89.9333C505.895 91.2429 504.693 93.157 504.293 95.3733C503.893 97.4888 504.493 99.6044 505.895 101.216C507.296 102.929 509.398 103.936 511.601 104.037C513.903 104.238 516.205 103.533 518.007 102.123C519.809 100.813 521.01 98.7985 521.411 96.6829Z" fill="#2B2E6F"/>
<path d="M534.725 112.801L537.828 75.6281L560.251 91.8474L560.051 74.8222L575.567 74.7214L573.265 115.924L550.041 101.518L549.44 114.111L534.725 112.801Z" fill="#2B2E6F"/>
</svg>
