<svg width="306" height="80" viewBox="0 0 306 80" fill="none" xmlns="http://www.w3.org/2000/svg">
<path d="M266 80H40C18 80 0 62 0 40C0 18 18 0 40 0H266C288 0 306 18 306 40C306 62 288 80 266 80Z" fill="#27306E"/>
<path d="M58.7 49.6C58.3 49.6 58.1 49.4 57.9 49.1C57.7 48.8 57.7 48.5 57.9 48.2L65 31.4C65.2 31 65.5 30.8 65.9 30.8C66.3 30.8 66.6 31 66.8 31.4L73.9 48.2C74 48.5 74 48.8 73.8 49.1C73.6 49.4 73.4 49.5 73 49.5C72.8 49.5 72.6 49.5 72.5 49.4C72.3 49.3 72.2 49.2 72.1 49L65.5 33H66.2L59.6 49C59.5 49.2 59.4 49.3 59.3 49.4C59.1 49.5 58.9 49.6 58.7 49.6ZM60.3 45.1L61 43.5H70.7L71.4 45.1H60.3Z" fill="white"/>
<path d="M77.3 49.6C77 49.6 76.8001 49.5 76.6001 49.3C76.4001 49.1 76.3 48.9 76.3 48.6V37.3C76.3 37 76.4001 36.8 76.6001 36.6C76.8001 36.4 77 36.3 77.3 36.3C77.6 36.3 77.8001 36.4 78.0001 36.6C78.2001 36.8 78.3 37 78.3 37.3V48.6C78.3 48.9 78.2001 49.1 78.0001 49.3C77.8001 49.5 77.6 49.6 77.3 49.6ZM87.6001 49.6C87.3001 49.6 87.1001 49.5 86.9001 49.3C86.7001 49.1 86.6001 48.9 86.6001 48.7V42.5C86.6001 41.5 86.4001 40.7 86.0001 40.1C85.6001 39.5 85.1001 39 84.5001 38.7C83.9001 38.4 83.1 38.2 82.3 38.2C81.5 38.2 80.8001 38.4 80.2001 38.7C79.6001 39 79.1001 39.4 78.7001 39.9C78.3001 40.4 78.1001 41 78.1001 41.7H76.8C76.8 40.7 77.1001 39.8 77.6001 39C78.1001 38.2 78.8001 37.6 79.6001 37.1C80.4001 36.6 81.4001 36.4 82.4001 36.4C83.5001 36.4 84.6001 36.6 85.4001 37.1C86.3001 37.6 87.0001 38.3 87.5001 39.2C88.0001 40.1 88.3 41.2 88.3 42.5V48.7C88.3 49 88.2001 49.2 88.0001 49.3C88.1001 49.5 87.9001 49.6 87.6001 49.6Z" fill="white"/>
<path d="M93.6001 49.6C93.3001 49.6 93.1001 49.5 92.9001 49.3C92.7001 49.1 92.6001 48.9 92.6001 48.6V37.3C92.6001 37 92.7001 36.8 92.9001 36.6C93.1001 36.4 93.3001 36.3 93.6001 36.3C93.9001 36.3 94.1001 36.4 94.3001 36.6C94.5001 36.8 94.6001 37 94.6001 37.3V48.6C94.6001 48.9 94.5001 49.1 94.3001 49.3C94.1001 49.5 93.8001 49.6 93.6001 49.6ZM103.9 49.6C103.6 49.6 103.4 49.5 103.2 49.3C103 49.1 102.9 48.9 102.9 48.7V42.5C102.9 41.5 102.7 40.7 102.3 40.1C101.9 39.5 101.4 39 100.8 38.7C100.2 38.4 99.4001 38.2 98.6001 38.2C97.8001 38.2 97.1001 38.4 96.5001 38.7C95.9001 39 95.4001 39.4 95.0001 39.9C94.6001 40.4 94.4001 41 94.4001 41.7H93.1001C93.1001 40.7 93.4001 39.8 93.9001 39C94.4001 38.2 95.1001 37.6 95.9001 37.1C96.7001 36.6 97.7001 36.4 98.7001 36.4C99.8001 36.4 100.9 36.6 101.7 37.1C102.6 37.6 103.3 38.3 103.8 39.2C104.3 40.1 104.6 41.2 104.6 42.5V48.7C104.6 49 104.5 49.2 104.3 49.3C104.4 49.5 104.2 49.6 103.9 49.6Z" fill="white"/>
<path d="M114.9 49.7C113.6 49.7 112.5 49.4 111.5 48.8C110.5 48.2 109.7 47.4 109.1 46.4C108.5 45.4 108.2 44.2 108.2 43C108.2 41.7 108.5 40.6 109.1 39.5C109.7 38.5 110.5 37.7 111.5 37.1C112.5 36.5 113.7 36.2 114.9 36.2C116.2 36.2 117.3 36.5 118.3 37.1C119.3 37.7 120.1 38.5 120.7 39.5C121.3 40.5 121.6 41.7 121.6 43C121.6 44.3 121.3 45.4 120.7 46.4C120.1 47.4 119.3 48.2 118.3 48.8C117.3 49.4 116.1 49.7 114.9 49.7ZM114.9 48C115.8 48 116.7 47.8 117.4 47.4C118.1 47 118.7 46.4 119.1 45.6C119.5 44.8 119.7 44 119.7 43C119.7 42 119.5 41.2 119.1 40.4C118.7 39.6 118.1 39 117.4 38.6C116.7 38.2 115.8 38 114.9 38C114 38 113.1 38.2 112.4 38.6C111.7 39 111.1 39.6 110.7 40.4C110.3 41.2 110.1 42 110.1 43C110.1 44 110.3 44.8 110.7 45.6C111.1 46.4 111.7 46.9 112.4 47.4C113.1 47.8 113.9 48 114.9 48Z" fill="white"/>
<path d="M130.8 49.7C129.7 49.7 128.6 49.5 127.8 49C126.9 48.5 126.2 47.8 125.7 46.9C125.2 46 124.9 44.9 124.9 43.6V37.4C124.9 37.1 125 36.9 125.2 36.8C125.4 36.6 125.6 36.5 125.8 36.5C126.1 36.5 126.3 36.6 126.5 36.8C126.7 37 126.8 37.2 126.8 37.4V43.6C126.8 44.6 127 45.4 127.4 46C127.8 46.6 128.3 47.1 128.9 47.4C129.5 47.7 130.3 47.9 131.1 47.9C131.9 47.9 132.6 47.7 133.2 47.4C133.8 47.1 134.3 46.7 134.7 46.2C135.1 45.7 135.3 45.1 135.3 44.4H136.6C136.6 45.4 136.3 46.3 135.8 47.1C135.3 47.9 134.6 48.5 133.8 49C132.8 49.5 131.9 49.7 130.8 49.7ZM136.1 49.6C135.8 49.6 135.6 49.5 135.4 49.3C135.2 49.1 135.1 48.9 135.1 48.6V37.3C135.1 37 135.2 36.8 135.4 36.6C135.6 36.4 135.8 36.3 136.1 36.3C136.4 36.3 136.6 36.4 136.8 36.6C137 36.8 137.1 37 137.1 37.3V48.6C137.1 48.9 137 49.1 136.8 49.3C136.6 49.5 136.4 49.6 136.1 49.6Z" fill="white"/>
<path d="M142.3 49.6C142 49.6 141.8 49.5 141.6 49.3C141.4 49.1 141.3 48.9 141.3 48.6V37.3C141.3 37 141.4 36.8 141.6 36.6C141.8 36.4 142 36.3 142.3 36.3C142.6 36.3 142.8 36.4 143 36.6C143.2 36.8 143.3 37 143.3 37.3V48.6C143.3 48.9 143.2 49.1 143 49.3C142.8 49.5 142.6 49.6 142.3 49.6ZM152.6 49.6C152.3 49.6 152.1 49.5 151.9 49.3C151.7 49.1 151.6 48.9 151.6 48.7V42.5C151.6 41.5 151.4 40.7 151 40.1C150.6 39.5 150.1 39 149.5 38.7C148.9 38.4 148.1 38.2 147.3 38.2C146.5 38.2 145.8 38.4 145.2 38.7C144.6 39 144.1 39.4 143.7 39.9C143.3 40.4 143.1 41 143.1 41.7H141.8C141.8 40.7 142.1 39.8 142.6 39C143.1 38.2 143.8 37.6 144.6 37.1C145.4 36.6 146.4 36.4 147.4 36.4C148.5 36.4 149.6 36.6 150.4 37.1C151.3 37.6 152 38.3 152.5 39.2C153 40.1 153.3 41.2 153.3 42.5V48.7C153.3 49 153.2 49.2 153 49.3C153.1 49.5 152.9 49.6 152.6 49.6Z" fill="white"/>
<path d="M163.5 49.7C162.2 49.7 161.1 49.4 160.1 48.8C159.1 48.2 158.3 47.4 157.8 46.4C157.2 45.4 156.9 44.3 156.9 43C156.9 41.7 157.2 40.6 157.7 39.6C158.2 38.6 159 37.8 159.9 37.2C160.8 36.6 161.9 36.3 163.2 36.3C164.2 36.3 165.1 36.5 165.9 36.9C166.7 37.3 167.4 37.9 168.1 38.6C168.3 38.8 168.3 39 168.3 39.2C168.3 39.4 168.1 39.6 167.9 39.8C167.7 39.9 167.5 40 167.3 39.9C167.1 39.9 166.9 39.7 166.7 39.6C165.8 38.5 164.6 38 163.2 38C162.3 38 161.5 38.2 160.8 38.6C160.1 39 159.6 39.6 159.2 40.4C158.8 41.2 158.6 42 158.6 43C158.6 44 158.8 44.8 159.2 45.6C159.6 46.4 160.2 46.9 160.9 47.4C161.6 47.8 162.4 48 163.4 48C164 48 164.6 47.9 165.1 47.7C165.6 47.5 166.1 47.3 166.5 46.9C166.7 46.7 166.9 46.7 167.1 46.6C167.3 46.6 167.5 46.6 167.7 46.8C167.9 47 168 47.2 168 47.4C168 47.6 167.9 47.8 167.8 48C166.7 49.1 165.2 49.7 163.5 49.7Z" fill="white"/>
<path d="M177.9 49.7C176.6 49.7 175.5 49.4 174.5 48.8C173.5 48.2 172.7 47.4 172.1 46.4C171.5 45.4 171.2 44.2 171.2 42.9C171.2 41.6 171.5 40.4 172 39.4C172.5 38.4 173.3 37.6 174.2 37C175.1 36.4 176.2 36.1 177.5 36.1C178.7 36.1 179.8 36.4 180.7 36.9C181.6 37.5 182.3 38.2 182.8 39.2C183.3 40.2 183.5 41.3 183.5 42.5C183.5 42.8 183.4 43 183.3 43.1C183.1 43.3 182.9 43.3 182.7 43.3H172.5V41.8H182.9L181.9 42.5C181.9 41.6 181.7 40.7 181.4 40C181 39.3 180.5 38.7 179.9 38.3C179.3 37.9 178.5 37.7 177.6 37.7C176.7 37.7 175.9 37.9 175.2 38.3C174.5 38.7 174 39.3 173.6 40.1C173.2 40.9 173 41.7 173 42.7C173 43.7 173.2 44.5 173.6 45.3C174 46.1 174.6 46.6 175.3 47.1C176 47.5 176.9 47.7 177.8 47.7C178.4 47.7 179 47.6 179.5 47.4C180.1 47.2 180.6 46.9 180.9 46.6C181.1 46.5 181.3 46.4 181.5 46.4C181.7 46.4 181.9 46.5 182.1 46.6C182.3 46.8 182.4 47 182.4 47.2C182.4 47.4 182.3 47.6 182.1 47.8C181.6 48.2 180.9 48.6 180.1 48.9C179.4 49.5 178.6 49.7 177.9 49.7Z" fill="white"/>
<path d="M187.6 49.6C187.3 49.6 187.1 49.5 186.9 49.3C186.7 49.1 186.6 48.9 186.6 48.6V37.3C186.6 37 186.7 36.8 186.9 36.6C187.1 36.4 187.3 36.3 187.6 36.3C187.9 36.3 188.1 36.4 188.3 36.6C188.5 36.8 188.6 37 188.6 37.3V48.6C188.6 48.9 188.5 49.1 188.3 49.3C188.1 49.5 187.9 49.6 187.6 49.6ZM196 49.6C195.7 49.6 195.5 49.5 195.3 49.3C195.1 49.1 195 48.9 195 48.6V41.7C195 40.6 194.7 39.7 194.1 39C193.5 38.3 192.7 38 191.8 38C190.8 38 190 38.3 189.4 39C188.8 39.6 188.4 40.5 188.4 41.5H187.1C187.1 40.5 187.4 39.6 187.8 38.8C188.2 38 188.8 37.4 189.5 36.9C190.2 36.5 191.1 36.2 192 36.2C192.9 36.2 193.8 36.4 194.5 36.9C195.2 37.3 195.8 38 196.2 38.8C196.6 39.6 196.8 40.6 196.8 41.7V48.6C196.8 48.9 196.7 49.1 196.5 49.3C196.3 49.5 196.3 49.6 196 49.6ZM204.4 49.6C204.1 49.6 203.9 49.5 203.7 49.3C203.5 49.1 203.4 48.9 203.4 48.6V41.7C203.4 40.6 203.1 39.7 202.5 39C201.9 38.3 201.1 38 200.2 38C199.2 38 198.4 38.3 197.8 39C197.2 39.7 196.9 40.5 196.9 41.7H195.2C195.2 40.6 195.4 39.7 195.9 38.9C196.3 38.1 197 37.5 197.7 37C198.5 36.6 199.4 36.3 200.4 36.3C201.3 36.3 202.2 36.5 202.9 37C203.6 37.4 204.2 38.1 204.6 38.9C205 39.7 205.2 40.7 205.2 41.8V48.7C205.2 49 205.1 49.2 204.9 49.4C204.7 49.6 204.7 49.6 204.4 49.6Z" fill="white"/>
<path d="M215.4 49.7C214.1 49.7 213 49.4 212 48.8C211 48.2 210.2 47.4 209.6 46.4C209 45.4 208.7 44.2 208.7 42.9C208.7 41.6 209 40.4 209.5 39.4C210 38.4 210.8 37.6 211.7 37C212.6 36.4 213.7 36.1 215 36.1C216.2 36.1 217.3 36.4 218.2 36.9C219.1 37.5 219.8 38.2 220.3 39.2C220.8 40.2 221 41.3 221 42.5C221 42.8 220.9 43 220.8 43.1C220.6 43.3 220.4 43.3 220.2 43.3H210V41.8H220.4L219.4 42.5C219.4 41.6 219.2 40.7 218.9 40C218.5 39.3 218 38.7 217.4 38.3C216.8 37.9 216 37.7 215.1 37.7C214.2 37.7 213.4 37.9 212.7 38.3C212 38.7 211.5 39.3 211.1 40.1C210.7 40.9 210.5 41.7 210.5 42.7C210.5 43.7 210.7 44.5 211.1 45.3C211.5 46.1 212.1 46.6 212.8 47.1C213.5 47.5 214.4 47.7 215.3 47.7C215.9 47.7 216.5 47.6 217 47.4C217.6 47.2 218.1 46.9 218.4 46.6C218.6 46.5 218.8 46.4 219 46.4C219.2 46.4 219.4 46.5 219.6 46.6C219.8 46.8 219.9 47 219.9 47.2C219.9 47.4 219.8 47.6 219.6 47.8C219.1 48.2 218.4 48.6 217.6 48.9C216.9 49.5 216.1 49.7 215.4 49.7Z" fill="white"/>
<path d="M225.1 49.6C224.8 49.6 224.6 49.5 224.4 49.3C224.2 49.1 224.1 48.9 224.1 48.6V37.3C224.1 37 224.2 36.8 224.4 36.6C224.6 36.4 224.8 36.3 225.1 36.3C225.4 36.3 225.6 36.4 225.8 36.6C226 36.8 226.1 37 226.1 37.3V48.6C226.1 48.9 226 49.1 225.8 49.3C225.6 49.5 225.3 49.6 225.1 49.6ZM235.4 49.6C235.1 49.6 234.9 49.5 234.7 49.3C234.5 49.1 234.4 48.9 234.4 48.7V42.5C234.4 41.5 234.2 40.7 233.8 40.1C233.4 39.5 232.9 39 232.3 38.7C231.7 38.4 230.9 38.2 230.1 38.2C229.3 38.2 228.6 38.4 228 38.7C227.4 39 226.9 39.4 226.5 39.9C226.1 40.4 225.9 41 225.9 41.7H224.6C224.6 40.7 224.9 39.8 225.4 39C225.9 38.2 226.6 37.6 227.4 37.1C228.2 36.6 229.2 36.4 230.2 36.4C231.3 36.4 232.4 36.6 233.2 37.1C234.1 37.6 234.8 38.3 235.3 39.2C235.8 40.1 236.1 41.2 236.1 42.5V48.7C236.1 49 236 49.2 235.8 49.3C235.9 49.5 235.6 49.6 235.4 49.6Z" fill="white"/>
<path d="M239.5 38.5C239.3 38.5 239.1 38.4 238.9 38.3C238.7 38.1 238.7 38 238.7 37.7C238.7 37.5 238.8 37.3 238.9 37.1C239.1 36.9 239.3 36.9 239.5 36.9H245.6C245.8 36.9 246 37 246.2 37.1C246.4 37.3 246.4 37.4 246.4 37.7C246.4 37.9 246.3 38.1 246.2 38.3C246 38.5 245.8 38.5 245.6 38.5H239.5ZM245.5 49.6C244.7 49.6 243.9 49.4 243.2 49C242.5 48.6 242 48.1 241.6 47.4C241.2 46.7 241 45.9 241 45V33.3C241 33 241.1 32.8 241.3 32.6C241.5 32.4 241.7 32.3 242 32.3C242.3 32.3 242.5 32.4 242.7 32.6C242.9 32.8 243 33 243 33.3V45C243 45.8 243.2 46.5 243.7 47C244.2 47.5 244.8 47.8 245.5 47.8H246.1C246.4 47.8 246.6 47.9 246.7 48.1C246.9 48.3 246.9 48.5 246.9 48.8C246.9 49.1 246.8 49.3 246.6 49.5C246.4 49.7 246.2 49.8 245.9 49.8H245.5V49.6Z" fill="white"/>
</svg>
