<svg width="23" height="23" viewBox="0 0 23 23" fill="none" xmlns="http://www.w3.org/2000/svg">
<path d="M12.7 1.60002L14.5 7.10002C14.7 7.60002 15.2 8.00005 15.7 8.00005H21.5C22.7 8.00005 23.2 9.6001 22.2 10.3001L17.5 13.7C17.1 14 16.9 14.6 17 15.1L18.8 20.6C19.2 21.8 17.8 22.7001 16.9 22L12.2 18.6C11.8 18.3 11.2 18.3 10.7 18.6L5.99999 22C4.99999 22.7001 3.7 21.8 4.1 20.6L5.89999 15.1C6.09999 14.6 5.89999 14 5.39999 13.7L0.700006 10.3001C-0.299994 9.6001 0.199987 8.00005 1.39999 8.00005H7.20001C7.70001 8.00005 8.19999 7.60002 8.39999 7.10002L10.2 1.60002C10.7 0.500024 12.3 0.500024 12.7 1.60002Z" fill="#27306E"/>
</svg>
