<svg width="86" height="85" viewBox="0 0 86 85" fill="none" xmlns="http://www.w3.org/2000/svg">
<path d="M43.3003 85C66.7724 85 85.8003 65.9721 85.8003 42.5C85.8003 19.0279 66.7724 0 43.3003 0C19.8282 0 0.800293 19.0279 0.800293 42.5C0.800293 65.9721 19.8282 85 43.3003 85Z" fill="#FFDD17"/>
<path d="M42.3608 2.26983C20.8368 2.73945 3.30463 20.4282 3.06982 42.0304C3.06982 42.187 3.06982 42.3435 3.06982 42.4218C3.06982 48.605 6.82671 54.2404 12.5403 56.5102C21.5413 60.1105 32.0293 62.2238 43.3001 62.2238C54.5708 62.2238 65.0588 60.1105 74.0597 56.5102C79.7733 54.2404 83.5303 48.6833 83.5303 42.5783V42.5C83.5303 19.9586 65.0588 1.80022 42.3608 2.26983Z" fill="#FCD208"/>
<path d="M71.5552 22.4632C70.6942 20.5847 69.5985 19.3324 69.4419 19.1759C67.3287 16.593 63.3369 11.7403 56.2927 8.76613C43.7697 3.20903 31.4815 7.90516 29.7596 8.60958C15.6712 14.1667 10.1923 27.0028 9.0183 31.4641C8.15735 34.6731 8.54871 38.1952 8.54871 38.3518C8.78352 40.7781 9.09663 43.9871 11.523 45.9439C13.2449 47.3527 15.2798 47.5092 16.0625 47.5092C23.6546 47.9788 28.429 35.0645 39.3084 31.151C48.8572 27.7854 66.4677 30.4466 70.6942 28.5681C71.0073 28.4116 71.79 28.0986 72.1814 27.3159C73.1206 25.907 72.1813 23.7938 71.5552 22.4632Z" fill="#FFE232"/>
<path d="M7.76648 25.9853C5.96629 27.8638 5.49672 31.0728 7.21863 32.5599C8.94055 34.047 11.7582 33.6557 13.5584 31.7772C15.3586 29.8988 15.4368 27.1593 13.7149 25.6722C11.993 24.1851 9.56666 24.1068 7.76648 25.9853Z" fill="#FCFB7C"/>
<path d="M40.874 13.3057C39.1521 8.60956 31.9513 6.8094 24.6723 9.314C17.3933 11.8186 12.932 17.6105 14.654 22.3066C16.3759 27.0028 21.9329 22.7763 29.212 20.2716C36.4127 17.767 42.596 18.0018 40.874 13.3057Z" fill="#FCFB7C"/>
<path d="M50.0312 74.512C50.6573 78.8951 58.2494 78.5037 63.9631 75.4512C69.755 72.3987 74.3728 67.7809 72.3378 63.8674C70.3028 59.954 66.9373 66.2938 60.0496 69.4245C54.0229 72.0857 49.4833 71.0682 50.0312 74.512Z" fill="#FCFB7C"/>
<path d="M58.2498 40.6216C58.4063 40.9347 58.7977 41.7174 58.7194 42.6566C58.6411 43.361 58.4063 43.9872 58.0149 44.5351C54.4928 49.8573 47.6052 54.71 47.6052 54.71C42.0481 58.6235 39.5435 59.5627 38.6043 59.954C36.6476 60.6585 34.9256 61.0498 33.6733 61.2846C32.8124 61.4411 31.9515 61.2063 31.4819 61.0498C30.1513 60.5019 29.6817 58.5452 29.5251 57.7625C28.038 50.5617 27.9598 42.6566 27.9598 42.6566C27.9598 42.6566 27.8815 34.4384 29.2903 27.0028C29.3686 26.5332 29.6034 25.3592 30.5426 24.5765C31.7949 23.559 33.5168 23.7155 34.456 23.7938C39.5435 24.4982 46.5095 29.1944 47.1356 29.664C47.2139 29.664 55.5886 35.3776 58.2498 40.6216Z" fill="#F2AD00"/>
<path d="M57.0766 39.8389C57.2331 40.0737 57.5462 40.8564 57.4679 41.7957C57.3897 42.5001 57.1548 43.048 56.8417 43.5176C53.5544 48.6051 46.9799 53.2229 46.9799 53.2229C41.7359 56.9015 39.3095 57.8408 38.4486 58.2321C36.5701 58.9366 34.9265 59.3279 33.7524 59.4844C32.8915 59.6409 32.1088 59.4062 31.7174 59.2496C30.4651 58.7017 29.9955 56.8233 29.839 56.1189C28.4301 49.2312 28.3519 41.7957 28.3519 41.7957C28.3519 41.7957 28.2737 34.047 29.6042 26.9246C29.6825 26.455 29.9173 25.3592 30.8565 24.5765C32.0305 23.559 33.6742 23.7155 34.6135 23.8721C39.4661 24.5765 46.0406 28.9596 46.6668 29.4292C46.6668 29.3509 54.572 34.8297 57.0766 39.8389Z" fill="white"/>
</svg>
