<svg width="86" height="85" viewBox="0 0 86 85" fill="none" xmlns="http://www.w3.org/2000/svg">
<path d="M42.8001 85C66.2722 85 85.3 65.9721 85.3 42.5C85.3 19.0279 66.2722 0 42.8001 0C19.328 0 0.300049 19.0279 0.300049 42.5C0.300049 65.9721 19.328 85 42.8001 85Z" fill="#FFDD17"/>
<path d="M43.739 82.8085C65.263 82.3389 82.7952 64.6501 83.03 43.0479C83.03 42.8914 83.03 42.7348 83.03 42.6566C83.03 36.4733 79.2731 30.838 73.5595 28.5682C64.5585 24.9678 54.0705 22.8546 42.7998 22.8546C31.5291 22.8546 21.041 24.9678 12.0401 28.5682C6.32649 30.838 2.56958 36.3951 2.56958 42.5V42.5783C2.56958 65.1198 21.1193 83.2781 43.739 82.8085Z" fill="#FCD208"/>
<path d="M14.5452 62.6151C15.4062 64.4936 16.5019 65.7459 16.6585 65.9024C18.7717 68.4853 22.7634 73.3379 29.8076 76.3122C42.3306 81.8693 54.6189 77.1731 56.3408 76.4687C70.4292 70.9116 75.908 58.0755 77.082 53.6142C77.943 50.4052 77.5516 46.8831 77.5516 46.7265C77.3168 44.3002 77.0038 41.0912 74.5774 39.1344C72.8555 37.7256 70.8205 37.5691 70.0378 37.5691C62.4457 37.0994 57.6713 50.0138 46.792 53.9273C37.2432 57.2928 19.6327 54.6317 15.4062 56.5101C15.0931 56.6667 14.3104 56.9797 13.919 57.7624C12.9798 59.1713 13.9973 61.2845 14.5452 62.6151Z" fill="#FFE232"/>
<path d="M78.3343 59.093C80.1345 57.2145 80.6041 54.0055 78.8821 52.5184C77.1602 51.0313 74.3426 51.4227 72.5424 53.3011C70.7422 55.1796 70.6639 57.919 72.3858 59.4061C74.1077 60.8932 76.5341 60.9714 78.3343 59.093Z" fill="#FCFB7C"/>
<path d="M45.3048 71.7726C47.0267 76.4687 54.2275 78.2689 61.5065 75.7643C68.7855 73.2597 73.2468 67.4678 71.5249 62.7717C69.803 58.0755 64.2459 62.302 56.9669 64.8067C49.7661 67.3113 43.5829 67.0765 45.3048 71.7726Z" fill="#FCFB7C"/>
<path d="M36.1473 10.5662C35.5211 6.18319 27.929 6.57453 22.2154 9.62701C16.4235 12.6795 11.8056 17.2974 13.8406 21.2108C15.8756 25.1243 19.2412 18.7845 26.1288 15.6537C32.0773 12.9143 36.6169 14.0101 36.1473 10.5662Z" fill="#FCFB7C"/>
<path d="M27.9291 44.4567C27.7725 44.1436 27.3812 43.361 27.4595 42.4217C27.5377 41.7173 27.7725 41.0911 28.1639 40.5433C31.686 35.221 38.5736 30.3683 38.5736 30.3683C44.1307 26.4549 46.6353 25.5157 47.5746 25.1243C49.5313 24.4199 51.2532 24.0286 52.5055 23.7938C53.3665 23.6372 54.2274 23.872 54.697 24.0285C56.0276 24.5764 56.4972 26.5332 56.6538 27.3159C58.1409 34.5166 58.2191 42.4217 58.2191 42.4217C58.2191 42.4217 58.2974 50.64 56.8886 58.0755C56.8103 58.5451 56.5755 59.7191 55.6363 60.5018C54.384 61.5193 52.662 61.3628 51.7228 61.2845C46.6353 60.5801 39.6694 55.884 39.0433 55.4144C38.8867 55.4144 30.5119 49.7007 27.9291 44.4567Z" fill="#F2AD00"/>
<path d="M29.0248 45.2394C28.8683 45.0046 28.5552 44.2219 28.6334 43.2827C28.7117 42.5782 28.9465 42.0304 29.2596 41.5608C32.5469 36.4733 39.1215 31.8554 39.1215 31.8554C44.3655 28.1768 46.7918 27.2375 47.6528 26.8462C49.5312 26.1418 51.1749 25.7505 52.3489 25.5939C53.2099 25.4374 53.9926 25.6722 54.3839 25.8287C55.6362 26.3766 56.1058 28.2551 56.2624 28.9595C57.6712 35.8471 57.7495 43.2827 57.7495 43.2827C57.7495 43.2827 57.8277 51.0313 56.4972 58.1538C56.4189 58.6234 56.1841 59.7191 55.2449 60.5018C54.0708 61.5193 52.4272 61.3628 51.488 61.2063C46.6353 60.5018 40.0607 56.1188 39.4346 55.6492C39.5128 55.7275 31.5294 50.2486 29.0248 45.2394Z" fill="white"/>
</svg>
